# vtk DataFile Version 2.0
MEF - Elasticidade Plana 2D
ASCII
DATASET UNSTRUCTURED_GRID
POINTS       36 float
  0.00000000E+00  0.00000000E+00  0.00000000E+00
  0.00000000E+00  0.20000000E+00  0.00000000E+00
  0.20000000E+00  0.00000000E+00  0.00000000E+00
  0.20000000E+00  0.20000000E+00  0.00000000E+00
  0.00000000E+00  0.40000000E+00  0.00000000E+00
  0.40000000E+00  0.00000000E+00  0.00000000E+00
  0.20000000E+00  0.40000000E+00  0.00000000E+00
  0.40000000E+00  0.20000000E+00  0.00000000E+00
  0.40000000E+00  0.40000000E+00  0.00000000E+00
  0.60000000E+00  0.00000000E+00  0.00000000E+00
  0.00000000E+00  0.60000000E+00  0.00000000E+00
  0.20000000E+00  0.60000000E+00  0.00000000E+00
  0.60000000E+00  0.20000000E+00  0.00000000E+00
  0.60000000E+00  0.40000000E+00  0.00000000E+00
  0.40000000E+00  0.60000000E+00  0.00000000E+00
  0.00000000E+00  0.80000000E+00  0.00000000E+00
  0.80000000E+00  0.00000000E+00  0.00000000E+00
  0.20000000E+00  0.80000000E+00  0.00000000E+00
  0.80000000E+00  0.20000000E+00  0.00000000E+00
  0.60000000E+00  0.60000000E+00  0.00000000E+00
  0.80000000E+00  0.40000000E+00  0.00000000E+00
  0.40000000E+00  0.80000000E+00  0.00000000E+00
  0.60000000E+00  0.80000000E+00  0.00000000E+00
  0.80000000E+00  0.60000000E+00  0.00000000E+00
  0.10000000E+01  0.00000000E+00  0.00000000E+00
  0.00000000E+00  0.10000000E+01  0.00000000E+00
  0.20000000E+00  0.10000000E+01  0.00000000E+00
  0.10000000E+01  0.20000000E+00  0.00000000E+00
  0.10000000E+01  0.40000000E+00  0.00000000E+00
  0.40000000E+00  0.10000000E+01  0.00000000E+00
  0.80000000E+00  0.80000000E+00  0.00000000E+00
  0.60000000E+00  0.10000000E+01  0.00000000E+00
  0.10000000E+01  0.60000000E+00  0.00000000E+00
  0.80000000E+00  0.10000000E+01  0.00000000E+00
  0.10000000E+01  0.80000000E+00  0.00000000E+00
  0.10000000E+01  0.10000000E+01  0.00000000E+00
CELLS       25     125
       4      15      17      26      25
       4      10      11      17      15
       4       4       6      11      10
       4       1       3       6       4
       4       0       2       3       1
       4      17      21      29      26
       4      11      14      21      17
       4       6       8      14      11
       4       3       7       8       6
       4       2       5       7       3
       4      21      22      31      29
       4      14      19      22      21
       4       8      13      19      14
       4       7      12      13       8
       4       5       9      12       7
       4      22      30      33      31
       4      19      23      30      22
       4      13      20      23      19
       4      12      18      20      13
       4       9      16      18      12
       4      30      34      35      33
       4      23      32      34      30
       4      20      28      32      23
       4      18      27      28      20
       4      16      24      27      18
CELL_TYPES       25
 9
 9
 9
 9
 9
 9
 9
 9
 9
 9
 9
 9
 9
 9
 9
 9
 9
 9
 9
 9
 9
 9
 9
 9
 9
POINT_DATA       36
VECTORS Deslocamentos float
  0.00000000E+00  0.00000000E+00  0.00000000E+00
  0.00000000E+00  0.00000000E+00  0.00000000E+00
 -0.47945862E+00 -0.58969628E+00  0.00000000E+00
 -0.15674836E+00 -0.47436735E+00  0.00000000E+00
  0.00000000E+00  0.00000000E+00  0.00000000E+00
 -0.74312136E+00 -0.11439294E+01  0.00000000E+00
 -0.44868887E-01 -0.47945838E+00  0.00000000E+00
 -0.31453626E+00 -0.10891482E+01  0.00000000E+00
 -0.67137472E-01 -0.10893490E+01  0.00000000E+00
 -0.86417259E+00 -0.17132985E+01  0.00000000E+00
  0.00000000E+00  0.00000000E+00  0.00000000E+00
  0.49398841E-01 -0.52819295E+00  0.00000000E+00
 -0.40545492E+00 -0.16932455E+01  0.00000000E+00
 -0.74129139E-01 -0.17166101E+01  0.00000000E+00
  0.13059615E+00 -0.11702011E+01  0.00000000E+00
  0.00000000E+00  0.00000000E+00  0.00000000E+00
 -0.89980704E+00 -0.22402578E+01  0.00000000E+00
  0.17012344E+00 -0.63442665E+00  0.00000000E+00
 -0.44152153E+00 -0.22448515E+01  0.00000000E+00
  0.22256282E+00 -0.18096593E+01  0.00000000E+00
 -0.60086251E-01 -0.22851186E+01  0.00000000E+00
  0.40815616E+00 -0.13420466E+01  0.00000000E+00
  0.57792552E+00 -0.19701787E+01  0.00000000E+00
  0.29467764E+00 -0.23798011E+01  0.00000000E+00
 -0.90265153E+00 -0.27153938E+01  0.00000000E+00
  0.00000000E+00  0.00000000E+00  0.00000000E+00
  0.58676644E+00 -0.92363812E+00  0.00000000E+00
 -0.44530688E+00 -0.27181228E+01  0.00000000E+00
 -0.35600941E-01 -0.27509239E+01  0.00000000E+00
  0.89626726E+00 -0.15664196E+01  0.00000000E+00
  0.69222080E+00 -0.25268361E+01  0.00000000E+00
  0.10658471E+01 -0.21685614E+01  0.00000000E+00
  0.35385378E+00 -0.28484893E+01  0.00000000E+00
  0.11666952E+01 -0.27042965E+01  0.00000000E+00
  0.77533914E+00 -0.30066541E+01  0.00000000E+00
  0.12450590E+01 -0.31882076E+01  0.00000000E+00
CELL_DATA       25
SCALARS Tensao_X float 1
LOOKUP_TABLE default
  0.21300936E+01
  0.58555523E+00
 -0.55045199E-01
 -0.68586241E+00
 -0.19747414E+01
  0.11019142E+01
  0.67325607E+00
  0.11414026E-01
 -0.61359179E+00
 -0.11729924E+01
  0.53229670E+00
  0.40146986E+00
  0.35154357E-01
 -0.36349451E+00
 -0.60542630E+00
  0.18195875E+00
  0.18375364E+00
  0.19186854E-01
 -0.16589481E+00
 -0.21900451E+00
  0.25641039E-01
  0.38683635E-01
  0.42722673E-02
 -0.35723511E-01
 -0.32873519E-01
SCALARS Tensao_Y float 1
LOOKUP_TABLE default
  0.11836027E+00
 -0.40898586E-01
 -0.15747697E+00
 -0.30792739E+00
 -0.52948001E+00
 -0.93869737E+00
 -0.47541555E+00
 -0.35111551E+00
 -0.27750593E+00
 -0.35375524E-01
 -0.93328960E+00
 -0.74103196E+00
 -0.46268469E+00
 -0.22052351E+00
 -0.53879973E-01
 -0.95455378E+00
 -0.76617807E+00
 -0.50752370E+00
 -0.24591021E+00
 -0.51388403E-01
 -0.97531296E+00
 -0.82188230E+00
 -0.52632273E+00
 -0.21604691E+00
 -0.34205913E-01
SCALARS Tensao_XY float 1
LOOKUP_TABLE default
 -0.10975209E+01
 -0.10018221E+01
 -0.87825346E+00
 -0.80956371E+00
 -0.71283977E+00
 -0.42850702E+00
 -0.91475333E+00
 -0.92297828E+00
 -0.83210888E+00
 -0.40165252E+00
 -0.24446285E+00
 -0.61025736E+00
 -0.74259010E+00
 -0.62753244E+00
 -0.27515724E+00
 -0.12499661E+00
 -0.35951281E+00
 -0.46845625E+00
 -0.39168603E+00
 -0.15534825E+00
 -0.18783599E-01
 -0.12449780E+00
 -0.18295660E+00
 -0.14224558E+00
 -0.31516500E-01
