# vtk DataFile Version 2.0
MEF - Elasticidade Plana 2D
ASCII
DATASET UNSTRUCTURED_GRID
POINTS        4 float
  0.00000000E+00  0.00000000E+00  0.00000000E+00
  0.10000000E+01  0.00000000E+00  0.00000000E+00
  0.10000000E+01  0.10000000E+01  0.00000000E+00
  0.00000000E+00  0.10000000E+01  0.00000000E+00
CELLS        1       5
       4       0       1       2       3
CELL_TYPES        1
 9
POINT_DATA        4
VECTORS Deslocamentos float
  0.00000000E+00  0.00000000E+00  0.00000000E+00
  0.00000000E+00  0.00000000E+00  0.00000000E+00
  0.00000000E+00 -0.74285714E-01  0.00000000E+00
  0.00000000E+00 -0.74285714E-01  0.00000000E+00
CELL_DATA        1
SCALARS Tensao_X float 1
LOOKUP_TABLE default
 -0.42857143E+02
SCALARS Tensao_Y float 1
LOOKUP_TABLE default
 -0.10000000E+03
SCALARS Tensao_XY float 1
LOOKUP_TABLE default
  0.00000000E+00
