# vtk DataFile Version 2.0
MEF - Elasticidade Plana 2D
ASCII
DATASET UNSTRUCTURED_GRID
POINTS      121 float
  0.00000000E+00  0.10000000E+01  0.00000000E+00
  0.10000000E+00  0.10000000E+01  0.00000000E+00
  0.20000000E+00  0.10000000E+01  0.00000000E+00
  0.30000000E+00  0.10000000E+01  0.00000000E+00
  0.40000000E+00  0.10000000E+01  0.00000000E+00
  0.50000000E+00  0.10000000E+01  0.00000000E+00
  0.60000000E+00  0.10000000E+01  0.00000000E+00
  0.70000000E+00  0.10000000E+01  0.00000000E+00
  0.80000000E+00  0.10000000E+01  0.00000000E+00
  0.90000000E+00  0.10000000E+01  0.00000000E+00
  0.10000000E+01  0.10000000E+01  0.00000000E+00
  0.00000000E+00  0.90000000E+00  0.00000000E+00
  0.10000000E+00  0.90000000E+00  0.00000000E+00
  0.20000000E+00  0.90000000E+00  0.00000000E+00
  0.30000000E+00  0.90000000E+00  0.00000000E+00
  0.40000000E+00  0.90000000E+00  0.00000000E+00
  0.50000000E+00  0.90000000E+00  0.00000000E+00
  0.60000000E+00  0.90000000E+00  0.00000000E+00
  0.70000000E+00  0.90000000E+00  0.00000000E+00
  0.80000000E+00  0.90000000E+00  0.00000000E+00
  0.90000000E+00  0.90000000E+00  0.00000000E+00
  0.10000000E+01  0.90000000E+00  0.00000000E+00
  0.00000000E+00  0.80000000E+00  0.00000000E+00
  0.10000000E+00  0.80000000E+00  0.00000000E+00
  0.20000000E+00  0.80000000E+00  0.00000000E+00
  0.30000000E+00  0.80000000E+00  0.00000000E+00
  0.40000000E+00  0.80000000E+00  0.00000000E+00
  0.50000000E+00  0.80000000E+00  0.00000000E+00
  0.60000000E+00  0.80000000E+00  0.00000000E+00
  0.70000000E+00  0.80000000E+00  0.00000000E+00
  0.80000000E+00  0.80000000E+00  0.00000000E+00
  0.90000000E+00  0.80000000E+00  0.00000000E+00
  0.10000000E+01  0.80000000E+00  0.00000000E+00
  0.00000000E+00  0.70000000E+00  0.00000000E+00
  0.10000000E+00  0.70000000E+00  0.00000000E+00
  0.20000000E+00  0.70000000E+00  0.00000000E+00
  0.30000000E+00  0.70000000E+00  0.00000000E+00
  0.40000000E+00  0.70000000E+00  0.00000000E+00
  0.50000000E+00  0.70000000E+00  0.00000000E+00
  0.60000000E+00  0.70000000E+00  0.00000000E+00
  0.70000000E+00  0.70000000E+00  0.00000000E+00
  0.80000000E+00  0.70000000E+00  0.00000000E+00
  0.90000000E+00  0.70000000E+00  0.00000000E+00
  0.10000000E+01  0.70000000E+00  0.00000000E+00
  0.00000000E+00  0.60000000E+00  0.00000000E+00
  0.10000000E+00  0.60000000E+00  0.00000000E+00
  0.20000000E+00  0.60000000E+00  0.00000000E+00
  0.30000000E+00  0.60000000E+00  0.00000000E+00
  0.40000000E+00  0.60000000E+00  0.00000000E+00
  0.50000000E+00  0.60000000E+00  0.00000000E+00
  0.60000000E+00  0.60000000E+00  0.00000000E+00
  0.70000000E+00  0.60000000E+00  0.00000000E+00
  0.80000000E+00  0.60000000E+00  0.00000000E+00
  0.90000000E+00  0.60000000E+00  0.00000000E+00
  0.10000000E+01  0.60000000E+00  0.00000000E+00
  0.00000000E+00  0.50000000E+00  0.00000000E+00
  0.10000000E+00  0.50000000E+00  0.00000000E+00
  0.20000000E+00  0.50000000E+00  0.00000000E+00
  0.30000000E+00  0.50000000E+00  0.00000000E+00
  0.40000000E+00  0.50000000E+00  0.00000000E+00
  0.50000000E+00  0.50000000E+00  0.00000000E+00
  0.60000000E+00  0.50000000E+00  0.00000000E+00
  0.70000000E+00  0.50000000E+00  0.00000000E+00
  0.80000000E+00  0.50000000E+00  0.00000000E+00
  0.90000000E+00  0.50000000E+00  0.00000000E+00
  0.10000000E+01  0.50000000E+00  0.00000000E+00
  0.00000000E+00  0.40000000E+00  0.00000000E+00
  0.10000000E+00  0.40000000E+00  0.00000000E+00
  0.20000000E+00  0.40000000E+00  0.00000000E+00
  0.30000000E+00  0.40000000E+00  0.00000000E+00
  0.40000000E+00  0.40000000E+00  0.00000000E+00
  0.50000000E+00  0.40000000E+00  0.00000000E+00
  0.60000000E+00  0.40000000E+00  0.00000000E+00
  0.70000000E+00  0.40000000E+00  0.00000000E+00
  0.80000000E+00  0.40000000E+00  0.00000000E+00
  0.90000000E+00  0.40000000E+00  0.00000000E+00
  0.10000000E+01  0.40000000E+00  0.00000000E+00
  0.00000000E+00  0.30000000E+00  0.00000000E+00
  0.10000000E+00  0.30000000E+00  0.00000000E+00
  0.20000000E+00  0.30000000E+00  0.00000000E+00
  0.30000000E+00  0.30000000E+00  0.00000000E+00
  0.40000000E+00  0.30000000E+00  0.00000000E+00
  0.50000000E+00  0.30000000E+00  0.00000000E+00
  0.60000000E+00  0.30000000E+00  0.00000000E+00
  0.70000000E+00  0.30000000E+00  0.00000000E+00
  0.80000000E+00  0.30000000E+00  0.00000000E+00
  0.90000000E+00  0.30000000E+00  0.00000000E+00
  0.10000000E+01  0.30000000E+00  0.00000000E+00
  0.00000000E+00  0.20000000E+00  0.00000000E+00
  0.10000000E+00  0.20000000E+00  0.00000000E+00
  0.20000000E+00  0.20000000E+00  0.00000000E+00
  0.30000000E+00  0.20000000E+00  0.00000000E+00
  0.40000000E+00  0.20000000E+00  0.00000000E+00
  0.50000000E+00  0.20000000E+00  0.00000000E+00
  0.60000000E+00  0.20000000E+00  0.00000000E+00
  0.70000000E+00  0.20000000E+00  0.00000000E+00
  0.80000000E+00  0.20000000E+00  0.00000000E+00
  0.90000000E+00  0.20000000E+00  0.00000000E+00
  0.10000000E+01  0.20000000E+00  0.00000000E+00
  0.00000000E+00  0.10000000E+00  0.00000000E+00
  0.10000000E+00  0.10000000E+00  0.00000000E+00
  0.20000000E+00  0.10000000E+00  0.00000000E+00
  0.30000000E+00  0.10000000E+00  0.00000000E+00
  0.40000000E+00  0.10000000E+00  0.00000000E+00
  0.50000000E+00  0.10000000E+00  0.00000000E+00
  0.60000000E+00  0.10000000E+00  0.00000000E+00
  0.70000000E+00  0.10000000E+00  0.00000000E+00
  0.80000000E+00  0.10000000E+00  0.00000000E+00
  0.90000000E+00  0.10000000E+00  0.00000000E+00
  0.10000000E+01  0.10000000E+00  0.00000000E+00
  0.00000000E+00  0.00000000E+00  0.00000000E+00
  0.10000000E+00  0.00000000E+00  0.00000000E+00
  0.20000000E+00  0.00000000E+00  0.00000000E+00
  0.30000000E+00  0.00000000E+00  0.00000000E+00
  0.40000000E+00  0.00000000E+00  0.00000000E+00
  0.50000000E+00  0.00000000E+00  0.00000000E+00
  0.60000000E+00  0.00000000E+00  0.00000000E+00
  0.70000000E+00  0.00000000E+00  0.00000000E+00
  0.80000000E+00  0.00000000E+00  0.00000000E+00
  0.90000000E+00  0.00000000E+00  0.00000000E+00
  0.10000000E+01  0.00000000E+00  0.00000000E+00
CELLS      100     500
       4       0      11      12       1
       4       1      12      13       2
       4       2      13      14       3
       4       3      14      15       4
       4       4      15      16       5
       4       5      16      17       6
       4       6      17      18       7
       4       7      18      19       8
       4       8      19      20       9
       4       9      20      21      10
       4      11      22      23      12
       4      12      23      24      13
       4      13      24      25      14
       4      14      25      26      15
       4      15      26      27      16
       4      16      27      28      17
       4      17      28      29      18
       4      18      29      30      19
       4      19      30      31      20
       4      20      31      32      21
       4      22      33      34      23
       4      23      34      35      24
       4      24      35      36      25
       4      25      36      37      26
       4      26      37      38      27
       4      27      38      39      28
       4      28      39      40      29
       4      29      40      41      30
       4      30      41      42      31
       4      31      42      43      32
       4      33      44      45      34
       4      34      45      46      35
       4      35      46      47      36
       4      36      47      48      37
       4      37      48      49      38
       4      38      49      50      39
       4      39      50      51      40
       4      40      51      52      41
       4      41      52      53      42
       4      42      53      54      43
       4      44      55      56      45
       4      45      56      57      46
       4      46      57      58      47
       4      47      58      59      48
       4      48      59      60      49
       4      49      60      61      50
       4      50      61      62      51
       4      51      62      63      52
       4      52      63      64      53
       4      53      64      65      54
       4      55      66      67      56
       4      56      67      68      57
       4      57      68      69      58
       4      58      69      70      59
       4      59      70      71      60
       4      60      71      72      61
       4      61      72      73      62
       4      62      73      74      63
       4      63      74      75      64
       4      64      75      76      65
       4      66      77      78      67
       4      67      78      79      68
       4      68      79      80      69
       4      69      80      81      70
       4      70      81      82      71
       4      71      82      83      72
       4      72      83      84      73
       4      73      84      85      74
       4      74      85      86      75
       4      75      86      87      76
       4      77      88      89      78
       4      78      89      90      79
       4      79      90      91      80
       4      80      91      92      81
       4      81      92      93      82
       4      82      93      94      83
       4      83      94      95      84
       4      84      95      96      85
       4      85      96      97      86
       4      86      97      98      87
       4      88      99     100      89
       4      89     100     101      90
       4      90     101     102      91
       4      91     102     103      92
       4      92     103     104      93
       4      93     104     105      94
       4      94     105     106      95
       4      95     106     107      96
       4      96     107     108      97
       4      97     108     109      98
       4      99     110     111     100
       4     100     111     112     101
       4     101     112     113     102
       4     102     113     114     103
       4     103     114     115     104
       4     104     115     116     105
       4     105     116     117     106
       4     106     117     118     107
       4     107     118     119     108
       4     108     119     120     109
CELL_TYPES      100
 9
 9
 9
 9
 9
 9
 9
 9
 9
 9
 9
 9
 9
 9
 9
 9
 9
 9
 9
 9
 9
 9
 9
 9
 9
 9
 9
 9
 9
 9
 9
 9
 9
 9
 9
 9
 9
 9
 9
 9
 9
 9
 9
 9
 9
 9
 9
 9
 9
 9
 9
 9
 9
 9
 9
 9
 9
 9
 9
 9
 9
 9
 9
 9
 9
 9
 9
 9
 9
 9
 9
 9
 9
 9
 9
 9
 9
 9
 9
 9
 9
 9
 9
 9
 9
 9
 9
 9
 9
 9
 9
 9
 9
 9
 9
 9
 9
 9
 9
 9
POINT_DATA      121
VECTORS Deslocamentos float
  0.00000000E+00  0.00000000E+00  0.00000000E+00
  0.40724723E+00 -0.56379094E+00  0.00000000E+00
  0.65066721E+00 -0.94022490E+00  0.00000000E+00
  0.81689887E+00 -0.12941323E+01  0.00000000E+00
  0.94161240E+00 -0.16248499E+01  0.00000000E+00
  0.10357783E+01 -0.19401491E+01  0.00000000E+00
  0.11065466E+01 -0.22402303E+01  0.00000000E+00
  0.11598184E+01 -0.25242833E+01  0.00000000E+00
  0.12017397E+01 -0.27917885E+01  0.00000000E+00
  0.12389251E+01 -0.30446352E+01  0.00000000E+00
  0.12768552E+01 -0.32897652E+01  0.00000000E+00
  0.00000000E+00  0.00000000E+00  0.00000000E+00
  0.15870202E+00 -0.38159327E+00  0.00000000E+00
  0.36230988E+00 -0.79395390E+00  0.00000000E+00
  0.52615222E+00 -0.11602532E+01  0.00000000E+00
  0.65491938E+00 -0.15045928E+01  0.00000000E+00
  0.75588850E+00 -0.18303992E+01  0.00000000E+00
  0.83522328E+00 -0.21388901E+01  0.00000000E+00
  0.89803889E+00 -0.24291606E+01  0.00000000E+00
  0.94889173E+00 -0.27005650E+01  0.00000000E+00
  0.99204878E+00 -0.29546002E+01  0.00000000E+00
  0.10320927E+01 -0.31977066E+01  0.00000000E+00
  0.00000000E+00  0.00000000E+00  0.00000000E+00
  0.91073544E-01 -0.31256754E+00  0.00000000E+00
  0.20492173E+00 -0.67632253E+00  0.00000000E+00
  0.32793232E+00 -0.10422390E+01  0.00000000E+00
  0.43692684E+00 -0.13917863E+01  0.00000000E+00
  0.52840400E+00 -0.17249667E+01  0.00000000E+00
  0.60343175E+00 -0.20403646E+01  0.00000000E+00
  0.66449090E+00 -0.23364695E+01  0.00000000E+00
  0.71435171E+00 -0.26120919E+01  0.00000000E+00
  0.75619204E+00 -0.28674629E+01  0.00000000E+00
  0.79503689E+00 -0.31051002E+01  0.00000000E+00
  0.00000000E+00  0.00000000E+00  0.00000000E+00
  0.49606434E-01 -0.27758462E+00  0.00000000E+00
  0.11672732E+00 -0.60431251E+00  0.00000000E+00
  0.19462125E+00 -0.95100588E+00  0.00000000E+00
  0.27320565E+00 -0.12972103E+01  0.00000000E+00
  0.34441827E+00 -0.16325770E+01  0.00000000E+00
  0.40582776E+00 -0.19522728E+01  0.00000000E+00
  0.45745906E+00 -0.22528947E+01  0.00000000E+00
  0.50051500E+00 -0.25320022E+01  0.00000000E+00
  0.53722382E+00 -0.27877260E+01  0.00000000E+00
  0.57194025E+00 -0.30178344E+01  0.00000000E+00
  0.00000000E+00  0.00000000E+00  0.00000000E+00
  0.21112924E-01 -0.25559663E+00  0.00000000E+00
  0.54454991E-01 -0.55751398E+00  0.00000000E+00
  0.97575248E-01 -0.88659030E+00  0.00000000E+00
  0.14487246E+00 -0.12245511E+01  0.00000000E+00
  0.19135491E+00 -0.15582855E+01  0.00000000E+00
  0.23397130E+00 -0.18794022E+01  0.00000000E+00
  0.27168650E+00 -0.21825261E+01  0.00000000E+00
  0.30465148E+00 -0.24636940E+01  0.00000000E+00
  0.33400966E+00 -0.27190259E+01  0.00000000E+00
  0.36241183E+00 -0.29426134E+01  0.00000000E+00
  0.00000000E+00  0.00000000E+00  0.00000000E+00
 -0.27963537E-02 -0.24009940E+00  0.00000000E+00
  0.32656028E-02 -0.52619716E+00  0.00000000E+00
  0.16528333E-01 -0.84292918E+00  0.00000000E+00
  0.34669017E-01 -0.11734481E+01  0.00000000E+00
  0.55423683E-01 -0.15038093E+01  0.00000000E+00
  0.77130229E-01 -0.18240920E+01  0.00000000E+00
  0.98814585E-01 -0.21275466E+01  0.00000000E+00
  0.12007335E+00 -0.24091823E+01  0.00000000E+00
  0.14091209E+00 -0.26639836E+01  0.00000000E+00
  0.16171601E+00 -0.28843197E+01  0.00000000E+00
  0.00000000E+00  0.00000000E+00  0.00000000E+00
 -0.26171497E-01 -0.22876615E+00  0.00000000E+00
 -0.46358856E-01 -0.50645684E+00  0.00000000E+00
 -0.61834369E-01 -0.81682543E+00  0.00000000E+00
 -0.72208358E-01 -0.11424556E+01  0.00000000E+00
 -0.77088967E-01 -0.14692198E+01  0.00000000E+00
 -0.76600626E-01 -0.17869875E+01  0.00000000E+00
 -0.71371353E-01 -0.20887474E+01  0.00000000E+00
 -0.62188751E-01 -0.23692999E+01  0.00000000E+00
 -0.50132203E-01 -0.26237651E+01  0.00000000E+00
 -0.37167753E-01 -0.28451032E+01  0.00000000E+00
  0.00000000E+00  0.00000000E+00  0.00000000E+00
 -0.52804406E-01 -0.22174587E+00  0.00000000E+00
 -0.10310187E+00 -0.49862204E+00  0.00000000E+00
 -0.15006283E+00 -0.80824269E+00  0.00000000E+00
 -0.19005330E+00 -0.11311151E+01  0.00000000E+00
 -0.21995274E+00 -0.14538461E+01  0.00000000E+00
 -0.23949658E+00 -0.17675712E+01  0.00000000E+00
 -0.24959501E+00 -0.20657688E+01  0.00000000E+00
 -0.25165372E+00 -0.23437343E+01  0.00000000E+00
 -0.24772880E+00 -0.25978574E+01  0.00000000E+00
 -0.24174722E+00 -0.28240239E+01  0.00000000E+00
  0.00000000E+00  0.00000000E+00  0.00000000E+00
 -0.89150294E-01 -0.22227864E+00  0.00000000E+00
 -0.17910715E+00 -0.50776231E+00  0.00000000E+00
 -0.26514560E+00 -0.82012447E+00  0.00000000E+00
 -0.33513196E+00 -0.11390380E+01  0.00000000E+00
 -0.38752755E+00 -0.14561006E+01  0.00000000E+00
 -0.42364106E+00 -0.17639885E+01  0.00000000E+00
 -0.44580514E+00 -0.20569720E+01  0.00000000E+00
 -0.45660941E+00 -0.23309764E+01  0.00000000E+00
 -0.45904499E+00 -0.25841360E+01  0.00000000E+00
 -0.45811292E+00 -0.28170191E+01  0.00000000E+00
  0.00000000E+00  0.00000000E+00  0.00000000E+00
 -0.14556844E+00 -0.24304849E+00  0.00000000E+00
 -0.30490725E+00 -0.54683477E+00  0.00000000E+00
 -0.43139247E+00 -0.85325002E+00  0.00000000E+00
 -0.52660532E+00 -0.11639323E+01  0.00000000E+00
 -0.59477214E+00 -0.14722301E+01  0.00000000E+00
 -0.64042513E+00 -0.17723141E+01  0.00000000E+00
 -0.66807869E+00 -0.20588040E+01  0.00000000E+00
 -0.68223436E+00 -0.23279821E+01  0.00000000E+00
 -0.68735640E+00 -0.25791629E+01  0.00000000E+00
 -0.68846972E+00 -0.28174091E+01  0.00000000E+00
  0.00000000E+00  0.00000000E+00  0.00000000E+00
 -0.31652453E+00 -0.33341960E+00  0.00000000E+00
 -0.52818270E+00 -0.61021642E+00  0.00000000E+00
 -0.67753062E+00 -0.90262017E+00  0.00000000E+00
 -0.78438141E+00 -0.11989874E+01  0.00000000E+00
 -0.85652469E+00 -0.14953754E+01  0.00000000E+00
 -0.90039958E+00 -0.17856459E+01  0.00000000E+00
 -0.92229813E+00 -0.20646423E+01  0.00000000E+00
 -0.92914947E+00 -0.23288656E+01  0.00000000E+00
 -0.92864884E+00 -0.25780982E+01  0.00000000E+00
 -0.92773643E+00 -0.28183146E+01  0.00000000E+00
SCALARS Tensao_X float 1
LOOKUP_TABLE default
  0.20144160E+01
  0.22938754E+01
  0.16358357E+01
  0.11975388E+01
  0.82998232E+00
  0.55377793E+00
  0.34137953E+00
  0.18473824E+00
  0.79104591E-01
  0.21765673E-01
  0.11139587E-01
  0.25252106E+01
  0.23329063E+01
  0.15054443E+01
  0.10853570E+01
  0.76643413E+00
  0.51252890E+00
  0.31236997E+00
  0.16249756E+00
  0.62357492E-01
  0.94002486E-02
  0.58252451E-02
  0.11282425E+01
  0.12838124E+01
  0.12251489E+01
  0.94279117E+00
  0.70303713E+00
  0.49862955E+00
  0.33160433E+00
  0.19931507E+00
  0.98585300E-01
  0.27099110E-01
  0.18070142E-01
  0.60703764E+00
  0.68459178E+00
  0.72359935E+00
  0.65808358E+00
  0.52546928E+00
  0.39212492E+00
  0.27236807E+00
  0.17093979E+00
  0.87842880E-01
  0.24934262E-01
  0.18984883E-01
  0.22326754E+00
  0.28423245E+00
  0.33175063E+00
  0.33176189E+00
  0.28935881E+00
  0.22635370E+00
  0.16226454E+00
  0.10390435E+00
  0.53880032E-01
  0.15245421E-01
  0.12614748E-01
 -0.95847824E-01
 -0.48300091E-01
 -0.52256315E-02
  0.22052756E-01
  0.33028401E-01
  0.32422650E-01
  0.25786835E-01
  0.17268392E-01
  0.90927286E-02
  0.25858508E-02
  0.26102906E-02
 -0.41135684E+00
 -0.37347997E+00
 -0.33472069E+00
 -0.28486889E+00
 -0.22605923E+00
 -0.16768363E+00
 -0.11693720E+00
 -0.74188997E-01
 -0.38490622E-01
 -0.10934217E-01
 -0.81259880E-02
 -0.77714807E+00
 -0.74755044E+00
 -0.70295157E+00
 -0.60679929E+00
 -0.47797811E+00
 -0.35495210E+00
 -0.24675519E+00
 -0.15566972E+00
 -0.80698937E-01
 -0.23186145E-01
 -0.16492524E-01
 -0.12581875E+01
 -0.12698656E+01
 -0.11622892E+01
 -0.92153388E+00
 -0.70110306E+00
 -0.50529400E+00
 -0.34025838E+00
 -0.20689962E+00
 -0.10383564E+00
 -0.29233287E-01
 -0.18068484E-01
 -0.23147389E+01
 -0.21266856E+01
 -0.15491374E+01
 -0.11744357E+01
 -0.85723843E+00
 -0.58797986E+00
 -0.36692250E+00
 -0.19637067E+00
 -0.78847181E-01
 -0.13717208E-01
 -0.63222779E-02
 -0.20347109E+01
 -0.21154690E+01
 -0.16355644E+01
 -0.12571342E+01
 -0.91416731E+00
 -0.63092195E+00
 -0.40050229E+00
 -0.22337498E+00
 -0.99429685E-01
 -0.28318018E-01
 -0.12964655E-01
SCALARS Tensao_Y float 1
LOOKUP_TABLE default
 -0.71574227E+00
 -0.73867128E-01
 -0.10082861E+01
 -0.95263744E+00
 -0.97929719E+00
 -0.97779878E+00
 -0.97682238E+00
 -0.97617686E+00
 -0.98030061E+00
 -0.99398692E+00
 -0.98932141E+00
 -0.64133221E-02
  0.13632044E+00
 -0.75133125E+00
 -0.90409786E+00
 -0.95415241E+00
 -0.96822200E+00
 -0.97136404E+00
 -0.97082747E+00
 -0.97273740E+00
 -0.99114931E+00
 -0.97967758E+00
  0.32823515E-01
  0.18544144E-01
 -0.37386227E+00
 -0.69913665E+00
 -0.82148887E+00
 -0.86967344E+00
 -0.88510291E+00
 -0.88881127E+00
 -0.89694979E+00
 -0.93709858E+00
 -0.92423907E+00
  0.13282389E-01
 -0.30175204E-01
 -0.28851839E+00
 -0.51846006E+00
 -0.66736905E+00
 -0.73658691E+00
 -0.76486260E+00
 -0.77577543E+00
 -0.78982616E+00
 -0.83525859E+00
 -0.82376530E+00
 -0.66751609E-01
 -0.90962882E-01
 -0.26391044E+00
 -0.42071312E+00
 -0.53286105E+00
 -0.59838924E+00
 -0.62988218E+00
 -0.64485525E+00
 -0.65921970E+00
 -0.69254429E+00
 -0.68584361E+00
 -0.15734429E+00
 -0.16247858E+00
 -0.27081549E+00
 -0.36005505E+00
 -0.42530470E+00
 -0.46763043E+00
 -0.49242063E+00
 -0.50624482E+00
 -0.51529653E+00
 -0.52529871E+00
 -0.52490418E+00
 -0.25582861E+00
 -0.24112034E+00
 -0.29039118E+00
 -0.31383110E+00
 -0.32944600E+00
 -0.34406321E+00
 -0.35785190E+00
 -0.36779560E+00
 -0.36961791E+00
 -0.35391482E+00
 -0.36004372E+00
 -0.36117631E+00
 -0.32508302E+00
 -0.30665757E+00
 -0.26080256E+00
 -0.23009335E+00
 -0.22459212E+00
 -0.22972978E+00
 -0.23647777E+00
 -0.23379493E+00
 -0.19983589E+00
 -0.21140509E+00
 -0.44691090E+00
 -0.41503107E+00
 -0.29846981E+00
 -0.16711733E+00
 -0.12501866E+00
 -0.11382768E+00
 -0.11557606E+00
 -0.12061199E+00
 -0.11838673E+00
 -0.82697428E-01
 -0.96434449E-01
 -0.51041490E+00
 -0.56040178E+00
 -0.12540332E+00
 -0.55663560E-01
 -0.33940033E-01
 -0.29571661E-01
 -0.30389951E-01
 -0.32901442E-01
 -0.32705507E-01
 -0.14656043E-01
 -0.27369404E-01
 -0.88794193E-01
 -0.42210836E+00
  0.51783887E-01
  0.24421222E-02
  0.38580167E-02
 -0.69668219E-02
 -0.15087177E-01
 -0.20574155E-01
 -0.19875455E-01
 -0.68566198E-02
 -0.12680938E-01
SCALARS Tensao_XY float 1
LOOKUP_TABLE default
 -0.86182593E+00
 -0.94691687E+00
 -0.42547845E+00
 -0.24755689E+00
 -0.18044106E+00
 -0.13829001E+00
 -0.10345091E+00
 -0.68259827E-01
 -0.31411820E-01
 -0.10057418E-02
  0.11136450E-01
 -0.11597771E+01
 -0.10820347E+01
 -0.63191145E+00
 -0.43108037E+00
 -0.31931760E+00
 -0.24583632E+00
 -0.18518090E+00
 -0.12765774E+00
 -0.71038948E-01
 -0.22371396E-01
 -0.18379781E-02
 -0.10883516E+01
 -0.11046456E+01
 -0.96375883E+00
 -0.74468323E+00
 -0.58394482E+00
 -0.45903655E+00
 -0.35234060E+00
 -0.25322068E+00
 -0.15859971E+00
 -0.71971871E-01
 -0.34037147E-01
 -0.98123425E+00
 -0.10387216E+01
 -0.10166310E+01
 -0.90079937E+00
 -0.75512470E+00
 -0.61602923E+00
 -0.48558411E+00
 -0.36175256E+00
 -0.24233867E+00
 -0.12414976E+00
 -0.70428049E-01
 -0.91342998E+00
 -0.97654380E+00
 -0.10033615E+01
 -0.94805935E+00
 -0.83985768E+00
 -0.70869601E+00
 -0.57239387E+00
 -0.43726323E+00
 -0.30329365E+00
 -0.16271959E+00
 -0.97118757E-01
 -0.85805918E+00
 -0.92502913E+00
 -0.97173000E+00
 -0.94532915E+00
 -0.86001033E+00
 -0.74055894E+00
 -0.60674241E+00
 -0.46933516E+00
 -0.33003358E+00
 -0.17977786E+00
 -0.10888942E+00
 -0.81056486E+00
 -0.88199808E+00
 -0.93341616E+00
 -0.91016823E+00
 -0.82940165E+00
 -0.71555641E+00
 -0.58710647E+00
 -0.45367598E+00
 -0.31773167E+00
 -0.17210329E+00
 -0.10369382E+00
 -0.76880544E+00
 -0.84549870E+00
 -0.88178293E+00
 -0.83538925E+00
 -0.74294574E+00
 -0.63263173E+00
 -0.51375860E+00
 -0.39126300E+00
 -0.26739973E+00
 -0.14008899E+00
 -0.81474186E-01
 -0.74491744E+00
 -0.80842867E+00
 -0.78476370E+00
 -0.68157358E+00
 -0.58308519E+00
 -0.48640187E+00
 -0.38853066E+00
 -0.28809781E+00
 -0.18662413E+00
 -0.88943777E-01
 -0.45330350E-01
 -0.69551030E+00
 -0.71291801E+00
 -0.50598373E+00
 -0.40300294E+00
 -0.33238676E+00
 -0.27322813E+00
 -0.21498837E+00
 -0.15420032E+00
 -0.91114127E-01
 -0.33330073E-01
 -0.80930947E-02
 -0.48968206E+00
 -0.59977413E+00
 -0.34272664E+00
 -0.24555345E+00
 -0.19986216E+00
 -0.16312400E+00
 -0.12712336E+00
 -0.88116226E-01
 -0.45660797E-01
 -0.77114594E-02
  0.84684855E-02
