# vtk DataFile Version 2.0
MEF - Python 2D
ASCII
DATASET UNSTRUCTURED_GRID
POINTS 633 float
2.0 0.0 0.0
2.153093108923949 0.0 0.0
2.433012701892219 0.0 0.0
2.795495128834866 0.0 0.0
3.224744871391589 0.0 0.0
3.711632992203644 0.0 0.0
4.25 0.0 0.0
4.835324055553439 0.0 0.0
5.464101615137754 0.0 0.0
6.133513940946613 0.0 0.0
6.841229182759271 0.0 0.0
7.585276403187222 0.0 0.0
8.36396103067893 0.0 0.0
9.175805703891374 0.0 0.0
10.01950746617272 0.0 0.0
10.89390591922357 0.0 0.0
11.79795897113271 0.0 0.0
12.73072399700971 0.0 0.0
13.69134295108992 0.0 0.0
14.67903042428718 0.0 0.0
15.69306393762916 0.0 0.0
16.73277596042239 0.0 0.0
17.79754727797958 0.0 0.0
18.88680142892668 0.0 0.0
20.0 0.0 0.0
1.997590912410345 0.09813534865483603 0.0
2.430661567942914 0.1194107456887492 0.0
3.222499701450277 0.1583112587153008 0.0
4.247892048359052 0.2086855544966497 0.0
5.462156156670895 0.2683385249261417 0.0
6.839468036566441 0.3360015187354727 0.0
8.362403684174831 0.4108185495040965 0.0
10.01817169502262 0.4921612158261052 0.0
11.7968612247298 0.5795426291385541 0.0
13.6904986117897 0.6725710685704929 0.0
15.69248750506153 0.7709224761703997 0.0
17.79725250567294 0.8743229501554695 0.0
20.0 0.982536995389345 0.0
1.990369453344394 0.1960342806591212 0.0
2.143544471731017 0.2111207031792792 0.0
2.423613830182616 0.2387051273305178 0.0
2.78629019623218 0.2744256315872159 0.0
3.215769600437381 0.3167256608203849 0.0
3.702918221180743 0.3647056121209057 0.0
4.241573271676344 0.4177585039696416 0.0
4.827210493375654 0.4754387357929973 0.0
5.456324468050168 0.5374010540302936 0.0
6.126094949783223 0.6033676887033862 0.0
6.834188840743391 0.6731088497326878 0.0
7.578634149030803 0.7464303128685719 0.0
8.357735396446678 0.8231650880838788 0.0
9.170014431214819 0.9031675901357956 0.0
10.014167599562 0.9863094203347061 0.0
10.8890338823405 1.072476228275426 0.0
11.79357063008829 1.161565321949231 0.0
12.72683471358197 1.253483811235362 0.0
13.68796762797638 1.348147140786828 0.0
14.67618354396763 1.445477913172692 0.0
15.69075959603519 1.545404932353397 0.0
16.73102789633642 1.647862417118038 0.0
17.79636889888535 1.752789347513009 0.0
18.88620583388358 1.860128916671457 0.0
20.0 1.969828067143285 0.0
1.978353019929562 0.2934609489107235 0.0
2.411886467228898 0.3577695609467746 0.0
3.204570781755728 0.4753531715482699 0.0
4.231058892438367 0.6276182991427517 0.0
5.446620598324253 0.8079298451991328 0.0
6.825404313335257 1.012453089167081 0.0
8.349967413808498 1.238600662240305 0.0
10.00750482600756 1.484473111160609 0.0
11.78809511453889 1.748598730011095 0.0
13.68375609701165 2.029793473884105 0.0
15.68788437323433 2.327077820891123 0.0
17.79489858630293 2.639623854943988 0.0
20.0 2.966719750766948 0.0
1.961570560806461 0.3901806440322565 0.0
2.114990518748206 0.4206977710697367 0.0
2.395507731326314 0.4764961139143907 0.0
2.758764046957011 0.548752287622105 0.0
3.188930224340425 0.6343176603320977 0.0
3.676857836120969 0.7313724967012685 0.0
4.216374240705653 0.8386889819773695 0.0
4.802947944881392 0.955365746117621 0.0
5.433067924965281 1.08070440308933 0.0
6.103909425233589 1.214143074044221 0.0
6.813135617038 1.355216934863696 0.0
7.558771355100093 1.503533104724505 0.0
8.339118450010861 1.658753792751045 0.0
9.152696386306854 1.820584506107537 0.0
9.998199425564371 1.988765517272946 0.0
10.8744646920698 2.163065515886107 0.0
11.78044786907817 2.343276774430986 0.0
12.71520431922427 2.529211392852952 0.0
13.67787416484248 2.72069833084988 0.0
14.66767032002271 2.917581027300062 0.0
15.68386876332252 3.119715465384353 0.0
16.72580053889125 3.326968581510818 0.0
17.79284511003749 3.539216943257129 0.0
18.88442478466015 3.756345640519839 0.0
20.0 3.97824734759316 0.0
1.940062506389088 0.4859603598065277 0.0
2.374517080284258 0.5947855653627377 0.0
3.168885607664234 0.7937645230577919 0.0
4.197554693090452 1.051432715308975 0.0
5.415699097550446 1.356562004256207 0.0
6.797412308215615 1.702663146251894 0.0
8.325214641157817 2.085357708403771 0.0
9.986273815757164 2.50143137174704 0.0
11.77064731659026 2.94839366581664 0.0
13.67033600155867 3.424240909824197 0.0
15.67872244025577 3.927315523742874 0.0
17.79021341709322 4.456216480002258 0.0
20.0 5.009739203826109 0.0
1.913880671464418 0.5805693545089247 0.0
2.06770624015192 0.6272318306242918 0.0
2.348965082419656 0.7125507676614502 0.0
2.713181772874205 0.8230346928252797 0.0
3.144485220964431 0.9538691634318615 0.0
3.633702812778502 1.10227169747103 0.0
4.174645587531366 1.266364894213665 0.0
4.762770071675915 1.444770506027193 0.0
5.394555959106321 1.636420659729129 0.0
6.067171026026964 1.840456209623836 0.0
6.778272265696248 2.056166412386584 0.0
7.525879310958757 2.28295053020845 0.0
8.308289482742717 2.520292061039765 0.0
9.124018351406955 2.767740708071831 0.0
9.97175672642452 3.024899332700087 0.0
10.8503386576781 3.291414247823196 0.0
11.75871706746453 3.566967825892418 0.0
12.69594482099208 3.851272756709761 0.0
13.66115976725584 4.144067509627114 0.0
14.65357273945281 4.44511269351197 0.0
15.67245780197709 4.754188098205771 0.0
16.71714423039663 5.071090261676437 0.0
17.78700984744892 5.395630448514773 0.0
18.88147543373403 5.727632954436726 0.0
20.0 6.066933672146848 0.0
1.883088130366042 0.6737797067844401 0.0
2.318913294733454 0.829720444087943 0.0
3.115787846909797 1.114846718026588 0.0
4.147702114070286 1.484071546722695 0.0
5.369689445305339 1.921305605212464 0.0
6.755761599518806 2.417250152144789 0.0
8.288383748954654 2.965631125826299 0.0
9.954683130506194 3.561842577968293 0.0
11.74468586271609 4.202315796721622 0.0
13.65036756828617 4.884179613979019 0.0
15.66508994054884 5.605058805634973 0.0
17.78324211878448 6.362945773622505 0.0
20.0 7.156114426290482 0.0
1.847759065022573 0.7653668647301796 0.0
2.002147009393255 0.8293164451554186 0.0
2.284434114614414 0.9462435926210635 0.0
2.649982356200984 1.097658631987858 0.0
3.082862619988022 1.276963508132092 0.0
3.573868757619068 1.480344909547301 0.0
4.116789181894752 1.705229912571645 0.0
4.707063808641649 1.949729668494926 0.0
5.341159461757294 2.212380687857252 0.0
6.016233563030962 2.492005536211633 0.0
6.729934539849804 2.787630160288924 0.0
7.480274784972496 3.098431266213094 0.0
8.26554539444986 3.423701002791606 0.0
9.084256511668213 3.762822251209077 0.0
9.935094159790216 4.115250744438836 0.0
10.81688812606524 4.480501764488717 0.0
11.72858750474616 4.858140011945475 0.0
12.6692416983817 5.247771736452443 0.0
13.63798540400226 5.649038517784048 0.0
14.63402656966535 6.061612277283608 0.0
15.65663660579453 6.485191223267153 0.0
16.70514233583539 6.919496516875983 0.0
17.77891930788825 7.364269501664191 0.0
18.87738618496691 7.819269379967794 0.0
20.0 8.2842712474619 0.0
1.807978586246887 0.8551101868605642 0.0
2.245610605427462 1.06209471673517 0.0
3.04578885995467 1.440550845560739 0.0
4.081981262966026 1.930633353231293 0.0
5.309034739691485 2.510986425857415 0.0
6.700853306338173 3.169267582312844 0.0
8.239829438824742 3.897149083916444 0.0
9.913037005822837 4.688517325861358 0.0
11.71046077590915 5.538635456461963 0.0
13.62404310412241 6.443692493474937 0.0
15.647118162538 7.400535735089788 0.0
17.77405182879032 8.406500439884516 0.0
20.0 9.459295517826398 0.0
1.76384252869671 0.9427934736519953 0.0
1.918944197702739 1.025697042940271 0.0
2.202536296406767 1.17728017776523 0.0
2.569774441868228 1.373573056060298 0.0
3.004655880744939 1.606022027958203 0.0
3.497931905302471 1.86968355618174 0.0
4.043362212609622 2.161222129322475 0.0
4.636365637543754 2.478189063606728 0.0
5.273392670377163 2.818687106557876 0.0
5.951587591859481 3.181189844435448 0.0
6.668587958222655 3.564434524737361 0.0
7.422396973656523 3.967353837866866 0.0
8.21129783406885 4.389030132918416 0.0
9.033793795343348 4.828663383494185 0.0
9.888564806219941 5.28554800749564 0.0
10.77443524413657 5.759055621571679 0.0
11.69034934508254 6.24862190810166 0.0
12.63535211706127 6.753736413228659 0.0
13.60857425686824 7.273934484709342 0.0
14.6092200509604 7.808790804793923 0.0
15.6365575415428 8.357914133889958 0.0
16.68991044001306 8.920942988208358 0.0
17.76865140767417 9.497542048229551 0.0
18.87219642005984 10.08739914637265 0.0
20.0 10.69022271901583 0.0
1.715457220000544 1.028205488386443 0.0
2.155314957335624 1.291846070246612 0.0
2.959562775308568 1.773893661303614 0.0
4.001025067500477 2.398122136542947 0.0
5.234319118681181 3.137330143267796 0.0
6.633216225552971 3.975796801721123 0.0
8.180019315317116 4.902914894673682 0.0
9.861736516653886 5.910897394131061 0.0
11.66830166246474 6.993710871723808 0.0
13.5916161280477 8.14650119861101 0.0
15.62498018426988 9.3652527116885 0.0
17.7627310546273 10.64657127333919 0.0
20.0 11.98753867363847 0.0
1.66293922460509 1.111140466039204 0.0
1.818899093640235 1.215349518901179 0.0
2.104060348555956 1.405888177798124 0.0
2.473330475937065 1.652626588535919 0.0
2.910618176886246 1.944812888935004 0.0
3.406623569227827 2.27623309639043 0.0
3.955071821529454 2.642694502582551 0.0
4.551356420417457 3.041119133679792 0.0
5.191908216212017 3.469122160110562 0.0
5.87385568855399 3.92478489331253 0.0
6.594823321931323 4.406520064566497 0.0
7.352803271973045 4.912986075155513 0.0
8.146069235260887 5.443029446012924 0.0
8.97311618597629 5.995644551037252 0.0
9.832616768824114 6.569944479775354 0.0
10.72338885635215 7.165139359916368 0.0
11.64437084285433 7.780519849205605 0.0
12.59460245222485 8.41544431166266 0.0
13.57320957127847 9.069328683530037 0.0
14.57939208367371 9.741638344160508 0.0
15.61241398158699 10.43188150884901 0.0
16.67159523441301 11.13960379567196 0.0
17.75630503229876 11.86438371096097 0.0
18.86595611928587 12.6058288628297 0.0
20.0 13.36357275838598 0.0
1.60641506296129 1.191398608984867 0.0
2.048895946909687 1.519564798280129 0.0
2.857939997302609 2.119592760212179 0.0
3.905613180091128 2.896600148541847 0.0
5.146262134548471 3.816728123346964 0.0
6.553501739225354 4.860408144891218 0.0
8.109529382616694 6.014436896626793 0.0
9.801275714753736 7.269121488009942 0.0
11.61861453769184 8.616951818803368 0.0
13.55339892956803 10.05188571995695 0.0
15.59888920657705 11.56892470129482 0.0
17.74938882153918 13.16384391548929 0.0
20.0 14.83301092544071 0.0
1.546020906725474 1.268786568327291 0.0
1.702975186248082 1.397595616661289 0.0
1.989954648272215 1.633113574547913 0.0
2.361579266521049 1.938098016894529 0.0
2.801655142906339 2.299258954999272 0.0
3.300823098585751 2.708915509286665 0.0
3.85276829338479 3.16188522435803 0.0
4.452854842494447 3.654363527873886 0.0
5.097490839099398 4.183402618092266 0.0
5.783786453835896 4.746630873345227 0.0
6.509351024747146 5.342086328068788 0.0
7.272163905313059 5.968110680520148 0.0
8.070487785090071 6.623278156865192 0.0
8.902808042115003 7.306345738982612 0.0
9.76778885778716 8.016217148878427 0.0
10.66424056733115 8.751916053903276 0.0
11.5910947961724 9.51256566170314 0.0
12.54738514542083 10.29737286920546 0.0
13.53223192848747 11.10561573628408 0.0
14.54482992743588 11.93663343765659 0.0
15.58443844160768 12.78981809600228 0.0
16.65037310447727 13.66460806622845 0.0
17.74199908410609 14.56048235522738 0.0
18.85872538015277 15.47695594155354 0.0
20.0 16.4135758165732 0.0
1.481902250709918 1.343117909694037 0.0
1.927378447394603 1.746873999424617 0.0
2.741899208841649 2.485112585669468 0.0
3.796664469371178 3.44109609353015 0.0
5.045711824187395 4.573166627538681 0.0
6.462477541435026 5.857248224529452 0.0
8.029038497309099 7.277096311981848 0.0
9.732236870695921 8.82078533597901 0.0
11.56187791576377 10.47907531749748 0.0
13.5097595611964 12.24453233241971 0.0
15.56909649983745 14.11100653681359 0.0
17.73415362252421 16.07329993072547 0.0
20.0 18.12694338038294 0.0
1.414213562373095 1.414213562373095 0.0
1.572288886124921 1.572288886124921 0.0
1.861318095825795 1.861318095825794 0.0
2.235597038856279 2.235597038856279 0.0
2.678816152387701 2.6788161523877 0.0
3.181549409744942 3.181549409744941 0.0
3.737436867076458 3.737436867076458 0.0
4.341809527816563 4.341809527816562 0.0
4.991049829994691 4.99104982999469 0.0
5.68224730367239 5.682247303672389 0.0
6.41299421161592 6.412994211615919 0.0
7.181255474859464 7.181255474859463 0.0
7.98528137423857 7.985281374238569 0.0
8.823546469619211 8.82354646961921 0.0
9.694705401330909 9.694705401330907 0.0
10.5975600074306 10.59756000743059 0.0
11.53103428248994 11.53103428248994 0.0
12.49415492512535 12.49415492512535 0.0
13.48603596559598 13.48603596559598 0.0
14.50586643470507 14.50586643470507 0.0
15.55290034134787 15.55290034134787 0.0
16.62644843091833 16.62644843091833 0.0
17.72587133719769 17.72587133719768 0.0
18.8505738386311 18.8505738386311 0.0
20.0 20.0 0.0
1.343117909694037 1.481902250709918 0.0
1.746873999424617 1.927378447394603 0.0
2.485112585669468 2.741899208841649 0.0
3.44109609353015 3.796664469371178 0.0
4.573166627538681 5.045711824187395 0.0
5.857248224529452 6.462477541435026 0.0
7.277096311981848 8.029038497309099 0.0
8.82078533597901 9.732236870695921 0.0
10.47907531749748 11.56187791576377 0.0
12.24453233241971 13.5097595611964 0.0
14.11100653681359 15.56909649983745 0.0
16.07329993072547 17.73415362252421 0.0
18.12694338038294 20.0 0.0
1.268786568327291 1.546020906725474 0.0
1.397595616661289 1.702975186248082 0.0
1.633113574547913 1.989954648272215 0.0
1.938098016894529 2.361579266521049 0.0
2.299258954999273 2.801655142906339 0.0
2.708915509286665 3.300823098585751 0.0
3.161885224358031 3.85276829338479 0.0
3.654363527873887 4.452854842494447 0.0
4.183402618092267 5.097490839099398 0.0
4.746630873345229 5.783786453835896 0.0
5.34208632806879 6.509351024747146 0.0
5.96811068052015 7.272163905313059 0.0
6.623278156865192 8.070487785090071 0.0
7.306345738982614 8.902808042115003 0.0
8.016217148878427 9.76778885778716 0.0
8.751916053903278 10.66424056733115 0.0
9.512565661703142 11.5910947961724 0.0
10.29737286920546 12.54738514542083 0.0
11.10561573628409 13.53223192848747 0.0
11.93663343765659 14.54482992743588 0.0
12.78981809600229 15.58443844160768 0.0
13.66460806622846 16.65037310447727 0.0
14.56048235522738 17.74199908410609 0.0
15.47695594155354 18.85872538015277 0.0
16.41357581657321 20.0 0.0
1.191398608984867 1.60641506296129 0.0
1.519564798280129 2.048895946909687 0.0
2.11959276021218 2.857939997302609 0.0
2.896600148541848 3.905613180091128 0.0
3.816728123346965 5.146262134548471 0.0
4.860408144891219 6.553501739225354 0.0
6.014436896626794 8.109529382616694 0.0
7.269121488009944 9.801275714753736 0.0
8.616951818803368 11.61861453769184 0.0
10.05188571995695 13.55339892956803 0.0
11.56892470129482 15.59888920657705 0.0
13.1638439154893 17.74938882153918 0.0
14.83301092544071 20.0 0.0
1.111140466039205 1.66293922460509 0.0
1.21534951890118 1.818899093640235 0.0
1.405888177798124 2.104060348555956 0.0
1.65262658853592 2.473330475937065 0.0
1.944812888935005 2.910618176886246 0.0
2.27623309639043 3.406623569227827 0.0
2.642694502582551 3.955071821529454 0.0
3.041119133679792 4.551356420417457 0.0
3.469122160110563 5.191908216212017 0.0
3.92478489331253 5.87385568855399 0.0
4.406520064566498 6.594823321931323 0.0
4.912986075155514 7.352803271973045 0.0
5.443029446012924 8.146069235260887 0.0
5.995644551037253 8.97311618597629 0.0
6.569944479775354 9.832616768824114 0.0
7.165139359916369 10.72338885635215 0.0
7.780519849205606 11.64437084285433 0.0
8.415444311662661 12.59460245222485 0.0
9.069328683530038 13.57320957127847 0.0
9.74163834416051 14.57939208367371 0.0
10.43188150884901 15.61241398158699 0.0
11.13960379567196 16.67159523441301 0.0
11.86438371096098 17.75630503229876 0.0
12.6058288628297 18.86595611928587 0.0
13.36357275838598 20.0 0.0
1.028205488386443 1.715457220000544 0.0
1.291846070246612 2.155314957335624 0.0
1.773893661303614 2.959562775308568 0.0
2.398122136542947 4.001025067500477 0.0
3.137330143267796 5.234319118681181 0.0
3.975796801721124 6.633216225552971 0.0
4.902914894673682 8.180019315317116 0.0
5.910897394131061 9.861736516653886 0.0
6.993710871723809 11.66830166246474 0.0
8.146501198611011 13.5916161280477 0.0
9.365252711688502 15.62498018426988 0.0
10.64657127333919 17.7627310546273 0.0
11.98753867363848 20.0 0.0
0.9427934736519956 1.76384252869671 0.0
1.025697042940272 1.918944197702738 0.0
1.177280177765231 2.202536296406767 0.0
1.373573056060298 2.569774441868227 0.0
1.606022027958204 3.004655880744938 0.0
1.869683556181741 3.497931905302471 0.0
2.161222129322476 4.043362212609621 0.0
2.478189063606729 4.636365637543754 0.0
2.818687106557877 5.273392670377163 0.0
3.181189844435449 5.951587591859481 0.0
3.564434524737363 6.668587958222655 0.0
3.967353837866868 7.422396973656523 0.0
4.389030132918418 8.21129783406885 0.0
4.828663383494187 9.033793795343346 0.0
5.285548007495644 9.888564806219941 0.0
5.759055621571683 10.77443524413657 0.0
6.248621908101663 11.69034934508254 0.0
6.753736413228663 12.63535211706127 0.0
7.273934484709346 13.60857425686824 0.0
7.808790804793929 14.6092200509604 0.0
8.357914133889961 15.6365575415428 0.0
8.920942988208362 16.68991044001306 0.0
9.497542048229556 17.76865140767417 0.0
10.08739914637265 18.87219642005984 0.0
10.69022271901584 20.0 0.0
0.8551101868605644 1.807978586246887 0.0
1.062094716735171 2.245610605427462 0.0
1.440550845560739 3.04578885995467 0.0
1.930633353231294 4.081981262966026 0.0
2.510986425857416 5.309034739691485 0.0
3.169267582312845 6.700853306338173 0.0
3.897149083916446 8.239829438824742 0.0
4.68851732586136 9.913037005822837 0.0
5.538635456461964 11.71046077590915 0.0
6.443692493474939 13.62404310412241 0.0
7.40053573508979 15.647118162538 0.0
8.40650043988452 17.77405182879032 0.0
9.459295517826401 20.0 0.0
0.7653668647301797 1.847759065022573 0.0
0.8293164451554187 2.002147009393255 0.0
0.9462435926210637 2.284434114614414 0.0
1.097658631987858 2.649982356200984 0.0
1.276963508132092 3.082862619988022 0.0
1.480344909547302 3.573868757619068 0.0
1.705229912571645 4.116789181894752 0.0
1.949729668494926 4.707063808641649 0.0
2.212380687857252 5.341159461757294 0.0
2.492005536211633 6.016233563030962 0.0
2.787630160288924 6.729934539849804 0.0
3.098431266213095 7.480274784972496 0.0
3.423701002791606 8.26554539444986 0.0
3.762822251209077 9.084256511668213 0.0
4.115250744438837 9.935094159790216 0.0
4.480501764488718 10.81688812606524 0.0
4.858140011945476 11.72858750474616 0.0
5.247771736452444 12.6692416983817 0.0
5.649038517784049 13.63798540400226 0.0
6.06161227728361 14.63402656966535 0.0
6.485191223267154 15.65663660579453 0.0
6.919496516875986 16.70514233583539 0.0
7.364269501664193 17.77891930788825 0.0
7.819269379967796 18.87738618496691 0.0
8.284271247461902 20.0 0.0
0.6737797067844401 1.883088130366042 0.0
0.829720444087943 2.318913294733454 0.0
1.114846718026588 3.115787846909797 0.0
1.484071546722695 4.147702114070286 0.0
1.921305605212464 5.369689445305339 0.0
2.417250152144789 6.755761599518806 0.0
2.9656311258263 8.288383748954654 0.0
3.561842577968293 9.954683130506194 0.0
4.202315796721622 11.74468586271609 0.0
4.88417961397902 13.65036756828617 0.0
5.605058805634973 15.66508994054884 0.0
6.362945773622506 17.78324211878448 0.0
7.156114426290483 20.0 0.0
0.5805693545089247 1.913880671464418 0.0
0.6272318306242918 2.06770624015192 0.0
0.7125507676614502 2.348965082419656 0.0
0.8230346928252796 2.713181772874205 0.0
0.9538691634318613 3.144485220964431 0.0
1.10227169747103 3.633702812778503 0.0
1.266364894213665 4.174645587531366 0.0
1.444770506027193 4.762770071675915 0.0
1.636420659729128 5.394555959106321 0.0
1.840456209623836 6.067171026026964 0.0
2.056166412386584 6.778272265696249 0.0
2.28295053020845 7.525879310958757 0.0
2.520292061039765 8.308289482742717 0.0
2.767740708071831 9.124018351406955 0.0
3.024899332700087 9.97175672642452 0.0
3.291414247823196 10.8503386576781 0.0
3.566967825892418 11.75871706746453 0.0
3.85127275670976 12.69594482099208 0.0
4.144067509627114 13.66115976725584 0.0
4.445112693511969 14.65357273945281 0.0
4.754188098205771 15.67245780197709 0.0
5.071090261676436 16.71714423039663 0.0
5.395630448514772 17.78700984744892 0.0
5.727632954436725 18.88147543373403 0.0
6.066933672146847 20.0 0.0
0.485960359806528 1.940062506389088 0.0
0.594785565362738 2.374517080284258 0.0
0.7937645230577921 3.168885607664234 0.0
1.051432715308976 4.197554693090452 0.0
1.356562004256208 5.415699097550446 0.0
1.702663146251895 6.797412308215615 0.0
2.085357708403772 8.325214641157817 0.0
2.501431371747042 9.986273815757164 0.0
2.948393665816642 11.77064731659026 0.0
3.424240909824199 13.67033600155867 0.0
3.927315523742876 15.67872244025577 0.0
4.45621648000226 17.79021341709322 0.0
5.009739203826111 20.0 0.0
0.3901806440322567 1.961570560806461 0.0
0.4206977710697368 2.114990518748206 0.0
0.4764961139143909 2.395507731326314 0.0
0.5487522876221053 2.758764046957011 0.0
0.6343176603320979 3.188930224340425 0.0
0.7313724967012687 3.676857836120969 0.0
0.8386889819773697 4.216374240705653 0.0
0.9553657461176213 4.802947944881392 0.0
1.08070440308933 5.433067924965281 0.0
1.214143074044221 6.103909425233589 0.0
1.355216934863696 6.813135617038 0.0
1.503533104724506 7.558771355100093 0.0
1.658753792751045 8.339118450010861 0.0
1.820584506107538 9.152696386306854 0.0
1.988765517272946 9.998199425564371 0.0
2.163065515886108 10.8744646920698 0.0
2.343276774430987 11.78044786907817 0.0
2.529211392852952 12.71520431922427 0.0
2.720698330849881 13.67787416484248 0.0
2.917581027300064 14.66767032002271 0.0
3.119715465384354 15.68386876332252 0.0
3.326968581510819 16.72580053889125 0.0
3.539216943257131 17.79284511003749 0.0
3.756345640519841 18.88442478466015 0.0
3.978247347593161 20.0 0.0
0.2934609489107235 1.978353019929562 0.0
0.3577695609467746 2.411886467228898 0.0
0.4753531715482699 3.204570781755728 0.0
0.6276182991427517 4.231058892438367 0.0
0.8079298451991328 5.446620598324253 0.0
1.012453089167081 6.825404313335257 0.0
1.238600662240305 8.349967413808498 0.0
1.484473111160609 10.00750482600756 0.0
1.748598730011095 11.78809511453889 0.0
2.029793473884105 13.68375609701165 0.0
2.327077820891123 15.68788437323433 0.0
2.639623854943988 17.79489858630293 0.0
2.966719750766948 20.0 0.0
0.1960342806591215 1.990369453344394 0.0
0.2111207031792795 2.143544471731017 0.0
0.2387051273305182 2.423613830182616 0.0
0.2744256315872164 2.786290196232179 0.0
0.3167256608203855 3.21576960043738 0.0
0.3647056121209064 3.702918221180743 0.0
0.4177585039696424 4.241573271676344 0.0
0.4754387357929982 4.827210493375653 0.0
0.5374010540302947 5.456324468050167 0.0
0.6033676887033874 6.126094949783223 0.0
0.6731088497326891 6.83418884074339 0.0
0.7464303128685733 7.578634149030802 0.0
0.8231650880838803 8.357735396446678 0.0
0.9031675901357974 9.170014431214819 0.0
0.9863094203347081 10.014167599562 0.0
1.072476228275428 10.8890338823405 0.0
1.161565321949233 11.79357063008829 0.0
1.253483811235364 12.72683471358197 0.0
1.348147140786831 13.68796762797638 0.0
1.445477913172694 14.67618354396763 0.0
1.5454049323534 15.69075959603519 0.0
1.647862417118041 16.73102789633642 0.0
1.752789347513013 17.79636889888535 0.0
1.86012891667146 18.88620583388358 0.0
1.969828067143289 20.0 0.0
0.09813534865483625 1.997590912410345 0.0
0.1194107456887495 2.430661567942914 0.0
0.1583112587153012 3.222499701450277 0.0
0.2086855544966501 4.247892048359052 0.0
0.2683385249261423 5.462156156670895 0.0
0.3360015187354735 6.839468036566441 0.0
0.4108185495040974 8.362403684174831 0.0
0.4921612158261063 10.01817169502262 0.0
0.5795426291385555 11.7968612247298 0.0
0.6725710685704944 13.6904986117897 0.0
0.7709224761704014 15.69248750506153 0.0
0.8743229501554715 17.79725250567294 0.0
0.9825369953893472 20.0 0.0
1.224646799147353e-16 2.0 0.0
1.318389292054968e-16 2.153093108923949 0.0
1.48979060882858e-16 2.433012701892219 0.0
1.711747080779818e-16 2.795495128834866 0.0
1.974586742408276e-16 3.224744871391589 0.0
2.272719731755953e-16 3.711632992203644 0.0
2.602374448188126e-16 4.25 0.0
2.960782063736859e-16 4.835324055553439 0.0
3.345797276597167e-16 5.464101615137754 0.0
3.755694107652969e-16 6.133513940946613 0.0
4.189044710449802e-16 6.841229182759271 0.0
4.64464223390559e-16 7.585276403187222 0.0
5.121449052207074e-16 8.36396103067893 0.0
5.6185605424343e-16 9.175805703891374 0.0
6.135178873740715e-16 10.01950746617272 0.0
6.670593507094773e-16 10.89390591922357 0.0
7.224166345234739e-16 11.79795897113271 0.0
7.795320196883169e-16 12.73072399700971 0.0
8.383529660540475e-16 13.69134295108992 0.0
8.988313811844956e-16 14.67903042428718 0.0
9.609230260016152e-16 15.69306393762916 0.0
1.024587026039053e-15 16.73277596042239 0.0
1.089785465332569e-15 17.79754727797958 0.0
1.156483045803336e-15 18.88680142892668 0.0
1.224646799147353e-15 20.0 0.0
CELLS 192 1728
8 0 2 40 38 1 26 39 25
8 2 4 42 40 3 27 41 26
8 4 6 44 42 5 28 43 27
8 6 8 46 44 7 29 45 28
8 8 10 48 46 9 30 47 29
8 10 12 50 48 11 31 49 30
8 12 14 52 50 13 32 51 31
8 14 16 54 52 15 33 53 32
8 16 18 56 54 17 34 55 33
8 18 20 58 56 19 35 57 34
8 20 22 60 58 21 36 59 35
8 22 24 62 60 23 37 61 36
8 38 40 78 76 39 64 77 63
8 40 42 80 78 41 65 79 64
8 42 44 82 80 43 66 81 65
8 44 46 84 82 45 67 83 66
8 46 48 86 84 47 68 85 67
8 48 50 88 86 49 69 87 68
8 50 52 90 88 51 70 89 69
8 52 54 92 90 53 71 91 70
8 54 56 94 92 55 72 93 71
8 56 58 96 94 57 73 95 72
8 58 60 98 96 59 74 97 73
8 60 62 100 98 61 75 99 74
8 76 78 116 114 77 102 115 101
8 78 80 118 116 79 103 117 102
8 80 82 120 118 81 104 119 103
8 82 84 122 120 83 105 121 104
8 84 86 124 122 85 106 123 105
8 86 88 126 124 87 107 125 106
8 88 90 128 126 89 108 127 107
8 90 92 130 128 91 109 129 108
8 92 94 132 130 93 110 131 109
8 94 96 134 132 95 111 133 110
8 96 98 136 134 97 112 135 111
8 98 100 138 136 99 113 137 112
8 114 116 154 152 115 140 153 139
8 116 118 156 154 117 141 155 140
8 118 120 158 156 119 142 157 141
8 120 122 160 158 121 143 159 142
8 122 124 162 160 123 144 161 143
8 124 126 164 162 125 145 163 144
8 126 128 166 164 127 146 165 145
8 128 130 168 166 129 147 167 146
8 130 132 170 168 131 148 169 147
8 132 134 172 170 133 149 171 148
8 134 136 174 172 135 150 173 149
8 136 138 176 174 137 151 175 150
8 152 154 192 190 153 178 191 177
8 154 156 194 192 155 179 193 178
8 156 158 196 194 157 180 195 179
8 158 160 198 196 159 181 197 180
8 160 162 200 198 161 182 199 181
8 162 164 202 200 163 183 201 182
8 164 166 204 202 165 184 203 183
8 166 168 206 204 167 185 205 184
8 168 170 208 206 169 186 207 185
8 170 172 210 208 171 187 209 186
8 172 174 212 210 173 188 211 187
8 174 176 214 212 175 189 213 188
8 190 192 230 228 191 216 229 215
8 192 194 232 230 193 217 231 216
8 194 196 234 232 195 218 233 217
8 196 198 236 234 197 219 235 218
8 198 200 238 236 199 220 237 219
8 200 202 240 238 201 221 239 220
8 202 204 242 240 203 222 241 221
8 204 206 244 242 205 223 243 222
8 206 208 246 244 207 224 245 223
8 208 210 248 246 209 225 247 224
8 210 212 250 248 211 226 249 225
8 212 214 252 250 213 227 251 226
8 228 230 268 266 229 254 267 253
8 230 232 270 268 231 255 269 254
8 232 234 272 270 233 256 271 255
8 234 236 274 272 235 257 273 256
8 236 238 276 274 237 258 275 257
8 238 240 278 276 239 259 277 258
8 240 242 280 278 241 260 279 259
8 242 244 282 280 243 261 281 260
8 244 246 284 282 245 262 283 261
8 246 248 286 284 247 263 285 262
8 248 250 288 286 249 264 287 263
8 250 252 290 288 251 265 289 264
8 266 268 306 304 267 292 305 291
8 268 270 308 306 269 293 307 292
8 270 272 310 308 271 294 309 293
8 272 274 312 310 273 295 311 294
8 274 276 314 312 275 296 313 295
8 276 278 316 314 277 297 315 296
8 278 280 318 316 279 298 317 297
8 280 282 320 318 281 299 319 298
8 282 284 322 320 283 300 321 299
8 284 286 324 322 285 301 323 300
8 286 288 326 324 287 302 325 301
8 288 290 328 326 289 303 327 302
8 304 306 344 342 305 330 343 329
8 306 308 346 344 307 331 345 330
8 308 310 348 346 309 332 347 331
8 310 312 350 348 311 333 349 332
8 312 314 352 350 313 334 351 333
8 314 316 354 352 315 335 353 334
8 316 318 356 354 317 336 355 335
8 318 320 358 356 319 337 357 336
8 320 322 360 358 321 338 359 337
8 322 324 362 360 323 339 361 338
8 324 326 364 362 325 340 363 339
8 326 328 366 364 327 341 365 340
8 342 344 382 380 343 368 381 367
8 344 346 384 382 345 369 383 368
8 346 348 386 384 347 370 385 369
8 348 350 388 386 349 371 387 370
8 350 352 390 388 351 372 389 371
8 352 354 392 390 353 373 391 372
8 354 356 394 392 355 374 393 373
8 356 358 396 394 357 375 395 374
8 358 360 398 396 359 376 397 375
8 360 362 400 398 361 377 399 376
8 362 364 402 400 363 378 401 377
8 364 366 404 402 365 379 403 378
8 380 382 420 418 381 406 419 405
8 382 384 422 420 383 407 421 406
8 384 386 424 422 385 408 423 407
8 386 388 426 424 387 409 425 408
8 388 390 428 426 389 410 427 409
8 390 392 430 428 391 411 429 410
8 392 394 432 430 393 412 431 411
8 394 396 434 432 395 413 433 412
8 396 398 436 434 397 414 435 413
8 398 400 438 436 399 415 437 414
8 400 402 440 438 401 416 439 415
8 402 404 442 440 403 417 441 416
8 418 420 458 456 419 444 457 443
8 420 422 460 458 421 445 459 444
8 422 424 462 460 423 446 461 445
8 424 426 464 462 425 447 463 446
8 426 428 466 464 427 448 465 447
8 428 430 468 466 429 449 467 448
8 430 432 470 468 431 450 469 449
8 432 434 472 470 433 451 471 450
8 434 436 474 472 435 452 473 451
8 436 438 476 474 437 453 475 452
8 438 440 478 476 439 454 477 453
8 440 442 480 478 441 455 479 454
8 456 458 496 494 457 482 495 481
8 458 460 498 496 459 483 497 482
8 460 462 500 498 461 484 499 483
8 462 464 502 500 463 485 501 484
8 464 466 504 502 465 486 503 485
8 466 468 506 504 467 487 505 486
8 468 470 508 506 469 488 507 487
8 470 472 510 508 471 489 509 488
8 472 474 512 510 473 490 511 489
8 474 476 514 512 475 491 513 490
8 476 478 516 514 477 492 515 491
8 478 480 518 516 479 493 517 492
8 494 496 534 532 495 520 533 519
8 496 498 536 534 497 521 535 520
8 498 500 538 536 499 522 537 521
8 500 502 540 538 501 523 539 522
8 502 504 542 540 503 524 541 523
8 504 506 544 542 505 525 543 524
8 506 508 546 544 507 526 545 525
8 508 510 548 546 509 527 547 526
8 510 512 550 548 511 528 549 527
8 512 514 552 550 513 529 551 528
8 514 516 554 552 515 530 553 529
8 516 518 556 554 517 531 555 530
8 532 534 572 570 533 558 571 557
8 534 536 574 572 535 559 573 558
8 536 538 576 574 537 560 575 559
8 538 540 578 576 539 561 577 560
8 540 542 580 578 541 562 579 561
8 542 544 582 580 543 563 581 562
8 544 546 584 582 545 564 583 563
8 546 548 586 584 547 565 585 564
8 548 550 588 586 549 566 587 565
8 550 552 590 588 551 567 589 566
8 552 554 592 590 553 568 591 567
8 554 556 594 592 555 569 593 568
8 570 572 610 608 571 596 609 595
8 572 574 612 610 573 597 611 596
8 574 576 614 612 575 598 613 597
8 576 578 616 614 577 599 615 598
8 578 580 618 616 579 600 617 599
8 580 582 620 618 581 601 619 600
8 582 584 622 620 583 602 621 601
8 584 586 624 622 585 603 623 602
8 586 588 626 624 587 604 625 603
8 588 590 628 626 589 605 627 604
8 590 592 630 628 591 606 629 605
8 592 594 632 630 593 607 631 606
CELL_TYPES 192
23
23
23
23
23
23
23
23
23
23
23
23
23
23
23
23
23
23
23
23
23
23
23
23
23
23
23
23
23
23
23
23
23
23
23
23
23
23
23
23
23
23
23
23
23
23
23
23
23
23
23
23
23
23
23
23
23
23
23
23
23
23
23
23
23
23
23
23
23
23
23
23
23
23
23
23
23
23
23
23
23
23
23
23
23
23
23
23
23
23
23
23
23
23
23
23
23
23
23
23
23
23
23
23
23
23
23
23
23
23
23
23
23
23
23
23
23
23
23
23
23
23
23
23
23
23
23
23
23
23
23
23
23
23
23
23
23
23
23
23
23
23
23
23
23
23
23
23
23
23
23
23
23
23
23
23
23
23
23
23
23
23
23
23
23
23
23
23
23
23
23
23
23
23
23
23
23
23
23
23
23
23
23
23
23
23
23
23
23
23
23
23
POINT_DATA 633
VECTORS Deslocamentos float
3.09559935e-03 -3.81712369e-15 0.0
3.11346375e-03 -2.03927789e-14 0.0
3.13284043e-03 -9.27108237e-15 0.0
3.15608199e-03 -8.99688586e-15 0.0
3.20257560e-03 -1.44820828e-15 0.0
3.28642335e-03 -1.84558701e-16 0.0
3.41222051e-03 8.76108162e-16 0.0
3.58059299e-03 2.10120194e-15 0.0
3.78898664e-03 1.19338245e-15 0.0
4.03431758e-03 2.19314744e-15 0.0
4.31316082e-03 1.03965768e-15 0.0
4.62244888e-03 1.87706459e-15 0.0
4.95942633e-03 8.83302874e-16 0.0
5.32171928e-03 1.70177656e-15 0.0
5.70730722e-03 8.59181098e-16 0.0
6.11443092e-03 1.83827302e-15 0.0
6.54161239e-03 1.01591143e-15 0.0
6.98751537e-03 2.37391715e-15 0.0
7.45101706e-03 1.39470950e-15 0.0
7.93105836e-03 3.41919507e-15 0.0
8.42666594e-03 2.07305666e-15 0.0
8.93674083e-03 5.21725195e-15 0.0
9.46035862e-03 3.19597379e-15 0.0
9.99692195e-03 8.20029601e-15 0.0
1.05442038e-02 2.65723042e-15 0.0
3.09173861e-03 -5.26643677e-05 0.0
3.12741382e-03 -2.31234986e-05 0.0
3.19654822e-03 -1.04895560e-05 0.0
3.40649964e-03 -1.45733335e-05 0.0
3.78393838e-03 -2.50630818e-05 0.0
4.30877028e-03 -3.77602265e-05 0.0
4.95559227e-03 -5.12208333e-05 0.0
5.70390379e-03 -6.48710401e-05 0.0
6.53850431e-03 -7.83369606e-05 0.0
7.44806855e-03 -9.11730374e-05 0.0
8.42364841e-03 -1.02629328e-04 0.0
9.45738425e-03 -1.11189936e-04 0.0
1.05394276e-02 -1.13366584e-04 0.0
3.08062492e-03 -1.05152758e-04 0.0
3.09525206e-03 -7.79547505e-05 0.0
3.11092781e-03 -4.65744852e-05 0.0
3.13214325e-03 -2.82448764e-05 0.0
3.17813474e-03 -2.16916545e-05 0.0
3.26251040e-03 -2.33477516e-05 0.0
3.38939430e-03 -2.99581601e-05 0.0
3.55910669e-03 -3.95922966e-05 0.0
3.76890539e-03 -5.09370540e-05 0.0
4.01560591e-03 -6.33222872e-05 0.0
4.29573105e-03 -7.63067212e-05 0.0
4.60618902e-03 -8.96581459e-05 0.0
4.94421347e-03 -1.03209837e-04 0.0
5.30742702e-03 -1.16857960e-04 0.0
5.69380613e-03 -1.30504354e-04 0.0
6.10158998e-03 -1.44067626e-04 0.0
6.52929435e-03 -1.57441351e-04 0.0
6.97557704e-03 -1.70517511e-04 0.0
7.43930191e-03 -1.83128485e-04 0.0
7.91939918e-03 -1.95085657e-04 0.0
8.41487649e-03 -2.06071969e-04 0.0
8.92462293e-03 -2.15713140e-04 0.0
9.44771852e-03 -2.23306805e-04 0.0
9.98361471e-03 -2.27972594e-04 0.0
1.05302215e-02 -2.28017845e-04 0.0
3.06184973e-03 -1.57481940e-04 0.0
3.08373507e-03 -7.06494553e-05 0.0
3.14792732e-03 -3.41978380e-05 0.0
3.36116019e-03 -4.69175005e-05 0.0
3.74408556e-03 -7.84066420e-05 0.0
4.27419358e-03 -1.16412169e-04 0.0
4.92541559e-03 -1.56726050e-04 0.0
5.67711669e-03 -1.97655758e-04 0.0
6.51405255e-03 -2.38076797e-04 0.0
7.42480080e-03 -2.76649364e-04 0.0
8.40022820e-03 -3.11168786e-04 0.0
9.43231958e-03 -3.37343381e-04 0.0
1.05116866e-02 -3.45842285e-04 0.0
3.03584949e-03 -2.09288258e-04 0.0
3.04090807e-03 -1.56337860e-04 0.0
3.04575920e-03 -9.56901237e-05 0.0
3.06117973e-03 -6.07631747e-05 0.0
3.10587979e-03 -4.87893004e-05 0.0
3.19197245e-03 -5.27369513e-05 0.0
3.32217658e-03 -6.62406534e-05 0.0
3.49591407e-03 -8.55809392e-05 0.0
3.70989820e-03 -1.08237371e-04 0.0
3.96065686e-03 -1.32929219e-04 0.0
4.24456578e-03 -1.58813274e-04 0.0
4.55846602e-03 -1.85442982e-04 0.0
4.89956222e-03 -2.12495155e-04 0.0
5.26546851e-03 -2.39764405e-04 0.0
5.65415390e-03 -2.67054503e-04 0.0
6.06385385e-03 -2.94199966e-04 0.0
6.49306761e-03 -3.20986872e-04 0.0
6.94043739e-03 -3.47197104e-04 0.0
7.40479227e-03 -3.72502390e-04 0.0
7.88503693e-03 -3.96534078e-04 0.0
8.38013258e-03 -4.18702319e-04 0.0
8.88894770e-03 -4.38322553e-04 0.0
9.41058856e-03 -4.54176540e-04 0.0
9.94467471e-03 -4.64760206e-04 0.0
1.04894769e-02 -4.67445257e-04 0.0
3.00236843e-03 -2.60774269e-04 0.0
2.99751322e-03 -1.21941453e-04 0.0
3.05280908e-03 -6.58900612e-05 0.0
3.27298279e-03 -8.85782054e-05 0.0
3.66682707e-03 -1.41121078e-04 0.0
4.20726046e-03 -2.04209137e-04 0.0
4.86700941e-03 -2.71218141e-04 0.0
5.62521827e-03 -3.39412960e-04 0.0
6.46657876e-03 -4.06906871e-04 0.0
7.37951344e-03 -4.71458354e-04 0.0
8.35461494e-03 -5.29544882e-04 0.0
9.38374320e-03 -5.74835975e-04 0.0
1.04585368e-02 -5.95212985e-04 0.0
2.96171741e-03 -3.11406511e-04 0.0
2.95130257e-03 -2.35549266e-04 0.0
2.93903146e-03 -1.49746025e-04 0.0
2.94572212e-03 -1.01546263e-04 0.0
2.98896746e-03 -8.62941965e-05 0.0
3.07834733e-03 -9.37143524e-05 0.0
3.21426769e-03 -1.14625484e-04 0.0
3.39471748e-03 -1.43798775e-04 0.0
3.61556965e-03 -1.77710724e-04 0.0
3.87291893e-03 -2.14579442e-04 0.0
4.16292599e-03 -2.53231636e-04 0.0
4.48233891e-03 -2.93038006e-04 0.0
4.82832526e-03 -3.33535907e-04 0.0
5.19849171e-03 -3.74420849e-04 0.0
5.59079910e-03 -4.15397835e-04 0.0
6.00348083e-03 -4.56211584e-04 0.0
6.43501498e-03 -4.96538705e-04 0.0
6.88402621e-03 -5.36047846e-04 0.0
7.34930226e-03 -5.74264474e-04 0.0
7.82972566e-03 -6.10660630e-04 0.0
8.32421829e-03 -6.44454305e-04 0.0
8.83164943e-03 -6.74780391e-04 0.0
9.35122291e-03 -7.00218365e-04 0.0
9.88285596e-03 -7.19104567e-04 0.0
1.04253215e-02 -7.29043453e-04 0.0
2.91388908e-03 -3.61554164e-04 0.0
2.87099723e-03 -1.79273387e-04 0.0
2.91534885e-03 -1.10221025e-04 0.0
3.14680598e-03 -1.44868564e-04 0.0
3.55684871e-03 -2.18552031e-04 0.0
4.11219148e-03 -3.06460096e-04 0.0
4.78405247e-03 -4.00056875e-04 0.0
5.55135365e-03 -4.95656167e-04 0.0
6.39874636e-03 -5.90580979e-04 0.0
7.31451659e-03 -6.81683907e-04 0.0
8.28907462e-03 -7.64362884e-04 0.0
9.31449391e-03 -8.31353846e-04 0.0
1.03840780e-02 -8.71729141e-04 0.0
2.85897143e-03 -4.10546740e-04 0.0
2.82787807e-03 -3.15933590e-04 0.0
2.79353391e-03 -2.10856183e-04 0.0
2.78989638e-03 -1.54027960e-04 0.0
2.83250773e-03 -1.38419870e-04 0.0
2.92731815e-03 -1.50869294e-04 0.0
3.07156145e-03 -1.79841987e-04 0.0
3.26136921e-03 -2.19012102e-04 0.0
3.49158349e-03 -2.64132857e-04 0.0
3.75778226e-03 -3.13061085e-04 0.0
4.05588506e-03 -3.64385865e-04 0.0
4.38254616e-03 -4.17333456e-04 0.0
4.73490361e-03 -4.71316771e-04 0.0
5.11056260e-03 -5.25933234e-04 0.0
5.50748417e-03 -5.80785257e-04 0.0
5.92390383e-03 -6.35518855e-04 0.0
6.35828551e-03 -6.89699351e-04 0.0
6.80924484e-03 -7.42880499e-04 0.0
7.27554789e-03 -7.94465299e-04 0.0
7.75608419e-03 -8.43801705e-04 0.0
8.24978696e-03 -8.90031364e-04 0.0
8.75560197e-03 -9.32259018e-04 0.0
9.27291121e-03 -9.69278279e-04 0.0
9.80212579e-03 -9.99667313e-04 0.0
1.03423267e-02 -1.02244281e-03 0.0
2.79730747e-03 -4.58886155e-04 0.0
2.70750177e-03 -2.44562087e-04 0.0
2.74155753e-03 -1.70883714e-04 0.0
2.98947794e-03 -2.19832828e-04 0.0
3.42066986e-03 -3.14821342e-04 0.0
3.99478342e-03 -4.27448764e-04 0.0
4.68154118e-03 -5.47823680e-04 0.0
5.45974147e-03 -6.71373148e-04 0.0
6.31407387e-03 -7.94577485e-04 0.0
7.23281596e-03 -9.13403501e-04 0.0
8.20653061e-03 -1.02249902e-03 0.0
9.22816631e-03 -1.11491852e-03 0.0
1.02930096e-02 -1.18438314e-03 0.0
2.72865770e-03 -5.05816305e-04 0.0
2.67263000e-03 -3.97758700e-04 0.0
2.61308608e-03 -2.80705852e-04 0.0
2.59928456e-03 -2.20825293e-04 0.0
2.64335164e-03 -2.08256315e-04 0.0
2.74640202e-03 -2.27432122e-04 0.0
2.90173519e-03 -2.65160037e-04 0.0
3.10340561e-03 -3.14545683e-04 0.0
3.34516871e-03 -3.70914871e-04 0.0
3.62206880e-03 -4.31911992e-04 0.0
3.92981334e-03 -4.95994573e-04 0.0
4.26500056e-03 -5.62263813e-04 0.0
4.62474509e-03 -6.30022688e-04 0.0
5.00667838e-03 -6.98763254e-04 0.0
5.40876569e-03 -7.67977406e-04 0.0
5.82926274e-03 -8.37201087e-04 0.0
6.26663306e-03 -9.05888688e-04 0.0
6.71950997e-03 -9.73486767e-04 0.0
7.18668601e-03 -1.03930908e-03 0.0
7.66712342e-03 -1.10263621e-03 0.0
8.15986584e-03 -1.16264210e-03 0.0
8.66400905e-03 -1.21861221e-03 0.0
9.17926620e-03 -1.26968238e-03 0.0
9.70642005e-03 -1.31528312e-03 0.0
1.02450591e-02 -1.35599331e-03 0.0
2.65381550e-03 -5.51920515e-04 0.0
2.51132428e-03 -3.19221535e-04 0.0
2.53906459e-03 -2.50309035e-04 0.0
2.80936153e-03 -3.15908524e-04 0.0
3.26606763e-03 -4.32592599e-04 0.0
3.86182570e-03 -5.70337927e-04 0.0
4.56522110e-03 -7.18353864e-04 0.0
5.35512550e-03 -8.71176766e-04 0.0
6.21639771e-03 -1.02437309e-03 0.0
7.13755450e-03 -1.17310284e-03 0.0
8.10985410e-03 -1.31174477e-03 0.0
9.12782510e-03 -1.43463500e-03 0.0
1.01885737e-02 -1.54125530e-03 0.0
2.57210570e-03 -5.96435539e-04 0.0
2.48808432e-03 -4.81207988e-04 0.0
2.40243525e-03 -3.60405431e-04 0.0
2.38073910e-03 -3.03512687e-04 0.0
2.42983731e-03 -2.97506703e-04 0.0
2.54451333e-03 -3.24954767e-04 0.0
2.71366501e-03 -3.72146736e-04 0.0
2.92943234e-03 -4.32120116e-04 0.0
3.18447355e-03 -4.99986678e-04 0.0
3.47335969e-03 -5.73410125e-04 0.0
3.79174049e-03 -6.50724363e-04 0.0
4.13613305e-03 -7.30938707e-04 0.0
4.50372064e-03 -8.13237185e-04 0.0
4.89213845e-03 -8.96992193e-04 0.0
5.29940671e-03 -9.81572461e-04 0.0
5.72379001e-03 -1.06639323e-03 0.0
6.16380642e-03 -1.15080953e-03 0.0
6.61812218e-03 -1.23417768e-03 0.0
7.08564271e-03 -1.31578782e-03 0.0
7.56547629e-03 -1.39492887e-03 0.0
8.05691228e-03 -1.47091880e-03 0.0
8.55923101e-03 -1.54320056e-03 0.0
9.07231562e-03 -1.61169182e-03 0.0
9.59816229e-03 -1.67515752e-03 0.0
1.01342593e-02 -1.73748342e-03 0.0
2.48488130e-03 -6.39860359e-04 0.0
2.28761488e-03 -4.03982680e-04 0.0
2.31689188e-03 -3.49416411e-04 0.0
2.61570486e-03 -4.33848598e-04 0.0
3.10131404e-03 -5.73148812e-04 0.0
3.72035802e-03 -7.37409739e-04 0.0
4.44088273e-03 -9.15133013e-04 0.0
5.24209178e-03 -1.09984374e-03 0.0
6.10917400e-03 -1.28613146e-03 0.0
7.03119287e-03 -1.46857559e-03 0.0
8.00076067e-03 -1.64186826e-03 0.0
9.01440521e-03 -1.80108477e-03 0.0
1.00681105e-02 -1.94745981e-03 0.0
2.39096698e-03 -6.81549623e-04 0.0
2.27729956e-03 -5.66406402e-04 0.0
2.16708582e-03 -4.50302426e-04 0.0
2.14219162e-03 -4.02475052e-04 0.0
2.20159396e-03 -4.06237390e-04 0.0
2.33128441e-03 -4.43126250e-04 0.0
2.51676460e-03 -5.00794070e-04 0.0
2.74842782e-03 -5.71925939e-04 0.0
3.01768758e-03 -6.52100032e-04 0.0
3.31928966e-03 -7.38927503e-04 0.0
3.64852365e-03 -8.30650995e-04 0.0
4.00218563e-03 -9.26197432e-04 0.0
4.37735230e-03 -1.02457729e-03 0.0
4.77184326e-03 -1.12504497e-03 0.0
5.18362680e-03 -1.22680203e-03 0.0
5.61108224e-03 -1.32917944e-03 0.0
6.05273771e-03 -1.43141425e-03 0.0
6.50738874e-03 -1.53289453e-03 0.0
6.97412918e-03 -1.63291028e-03 0.0
7.45212715e-03 -1.73101397e-03 0.0
7.94101951e-03 -1.82638407e-03 0.0
8.44004095e-03 -1.91898417e-03 0.0
8.95013801e-03 -2.00743096e-03 0.0
9.47087631e-03 -2.09239619e-03 0.0
1.00024222e-02 -2.16792913e-03 0.0
2.29225576e-03 -7.21958085e-04 0.0
2.04179883e-03 -4.99005262e-04 0.0
2.08494922e-03 -4.67364535e-04 0.0
2.41819808e-03 -5.72904407e-04 0.0
2.93459807e-03 -7.36935001e-04 0.0
3.57700951e-03 -9.30833626e-04 0.0
4.31367417e-03 -1.14226138e-03 0.0
5.12433568e-03 -1.36347309e-03 0.0
5.99457111e-03 -1.58806875e-03 0.0
6.91411204e-03 -1.81071902e-03 0.0
7.87634932e-03 -2.02724450e-03 0.0
8.87806604e-03 -2.23439002e-03 0.0
9.89336887e-03 -2.40096479e-03 0.0
2.18711100e-03 -7.60446768e-04 0.0
2.04402446e-03 -6.53181618e-04 0.0
1.91235865e-03 -5.50412459e-04 0.0
1.89304239e-03 -5.16589020e-04 0.0
1.96863440e-03 -5.32650845e-04 0.0
2.11614074e-03 -5.80065610e-04 0.0
2.32083522e-03 -6.49773794e-04 0.0
2.56856594e-03 -7.33183160e-04 0.0
2.85279239e-03 -8.27663368e-04 0.0
3.16655024e-03 -9.29775595e-04 0.0
3.50636210e-03 -1.03839426e-03 0.0
3.86832528e-03 -1.15174130e-03 0.0
4.25021709e-03 -1.26905873e-03 0.0
4.64943018e-03 -1.38906465e-03 0.0
5.06436435e-03 -1.51112526e-03 0.0
5.49311610e-03 -1.63419257e-03 0.0
5.93453074e-03 -1.75777905e-03 0.0
6.38723498e-03 -1.88111338e-03 0.0
6.85045760e-03 -2.00399110e-03 0.0
7.32331677e-03 -2.12604745e-03 0.0
7.80547292e-03 -2.24745809e-03 0.0
8.29448342e-03 -2.36686419e-03 0.0
8.78879184e-03 -2.48428632e-03 0.0
9.26629816e-03 -2.58806470e-03 0.0
9.70934196e-03 -2.66362739e-03 0.0
2.07666422e-03 -7.97072172e-04 0.0
1.79323388e-03 -6.13561638e-04 0.0
1.82131752e-03 -5.91061702e-04 0.0
2.13206191e-03 -6.97748737e-04 0.0
2.61026786e-03 -8.67268962e-04 0.0
3.19989393e-03 -1.07268354e-03 0.0
3.87162267e-03 -1.30099931e-03 0.0
4.60711548e-03 -1.54379191e-03 0.0
5.39318652e-03 -1.79449708e-03 0.0
6.21981427e-03 -2.04827146e-03 0.0
7.07980814e-03 -2.30292102e-03 0.0
7.96245653e-03 -2.55820453e-03 0.0
8.83821450e-03 -2.79664161e-03 0.0
1.96125574e-03 -8.31007350e-04 0.0
1.81679177e-03 -7.54203754e-04 0.0
1.67353520e-03 -6.76079167e-04 0.0
1.63185730e-03 -6.44026450e-04 0.0
1.67759672e-03 -6.52300094e-04 0.0
1.78968542e-03 -6.90244673e-04 0.0
1.95135568e-03 -7.48901394e-04 0.0
2.15123266e-03 -8.23479283e-04 0.0
2.38137733e-03 -9.09748075e-04 0.0
2.63675576e-03 -1.00565389e-03 0.0
2.91338511e-03 -1.10918110e-03 0.0
3.20856509e-03 -1.21913829e-03 0.0
3.51992051e-03 -1.33429372e-03 0.0
3.84567666e-03 -1.45377335e-03 0.0
4.18415704e-03 -1.57666604e-03 0.0
4.53402797e-03 -1.70224308e-03 0.0
4.89398236e-03 -1.82983150e-03 0.0
5.26297821e-03 -1.95883456e-03 0.0
5.63992568e-03 -2.08889277e-03 0.0
6.02403259e-03 -2.21965624e-03 0.0
6.41436008e-03 -2.35125867e-03 0.0
6.81067398e-03 -2.48324679e-03 0.0
7.21091784e-03 -2.61604424e-03 0.0
7.61408657e-03 -2.74944937e-03 0.0
8.02310174e-03 -2.88169788e-03 0.0
1.84166257e-03 -8.63781145e-04 0.0
1.55328754e-03 -7.37416434e-04 0.0
1.53734669e-03 -7.14989789e-04 0.0
1.77816049e-03 -8.02590321e-04 0.0
2.16443016e-03 -9.54557232e-04 0.0
2.64393818e-03 -1.14751916e-03 0.0
3.19094007e-03 -1.36874096e-03 0.0
3.79001617e-03 -1.60978981e-03 0.0
4.43011732e-03 -1.86420622e-03 0.0
5.10240583e-03 -2.12698732e-03 0.0
5.79953316e-03 -2.39490969e-03 0.0
6.51600916e-03 -2.66684004e-03 0.0
7.25179012e-03 -2.94145470e-03 0.0
1.71746136e-03 -8.94026785e-04 0.0
1.57800131e-03 -8.47271165e-04 0.0
1.43288477e-03 -7.96826463e-04 0.0
1.37724637e-03 -7.73397570e-04 0.0
1.40083545e-03 -7.78343892e-04 0.0
1.48462271e-03 -8.08470791e-04 0.0
1.61179256e-03 -8.57734877e-04 0.0
1.77213691e-03 -9.22942922e-04 0.0
1.95800837e-03 -1.00091169e-03 0.0
2.16486673e-03 -1.08953374e-03 0.0
2.38922991e-03 -1.18711445e-03 0.0
2.62872002e-03 -1.29229724e-03 0.0
2.88138087e-03 -1.40396607e-03 0.0
3.14570326e-03 -1.52114991e-03 0.0
3.42034353e-03 -1.64301282e-03 0.0
3.70416239e-03 -1.76877793e-03 0.0
3.99609668e-03 -1.89778002e-03 0.0
4.29517943e-03 -2.02939101e-03 0.0
4.60050412e-03 -2.16311514e-03 0.0
4.91121414e-03 -2.29852119e-03 0.0
5.22662930e-03 -2.43531015e-03 0.0
5.54606436e-03 -2.57340796e-03 0.0
5.86941094e-03 -2.71261152e-03 0.0
6.19653449e-03 -2.85302208e-03 0.0
6.52975067e-03 -2.99482635e-03 0.0
1.58937128e-03 -9.22613494e-04 0.0
1.31221938e-03 -8.54057057e-04 0.0
1.26779329e-03 -8.41182560e-04 0.0
1.45188537e-03 -9.13285136e-04 0.0
1.76103519e-03 -1.04793428e-03 0.0
2.14742858e-03 -1.22730914e-03 0.0
2.58857622e-03 -1.43948657e-03 0.0
3.07160392e-03 -1.67604154e-03 0.0
3.58747634e-03 -1.93049045e-03 0.0
4.12878667e-03 -2.19757538e-03 0.0
4.68895303e-03 -2.47320607e-03 0.0
5.26287020e-03 -2.75498643e-03 0.0
5.85062493e-03 -3.04267245e-03 0.0
1.45724006e-03 -9.48694558e-04 0.0
1.32950186e-03 -9.30159548e-04 0.0
1.19169849e-03 -9.08225454e-04 0.0
1.13041058e-03 -8.97037255e-04 0.0
1.13853150e-03 -9.02508499e-04 0.0
1.19954890e-03 -9.27026739e-04 0.0
1.29807223e-03 -9.68345716e-04 0.0
1.42472226e-03 -1.02501354e-03 0.0
1.57266113e-03 -1.09484681e-03 0.0
1.73777220e-03 -1.17618758e-03 0.0
1.91704695e-03 -1.26744318e-03 0.0
2.10845403e-03 -1.36735668e-03 0.0
2.31036427e-03 -1.47479154e-03 0.0
2.52154802e-03 -1.58879827e-03 0.0
2.74091728e-03 -1.70852111e-03 0.0
2.96756320e-03 -1.83320051e-03 0.0
3.20061482e-03 -1.96214565e-03 0.0
3.43928318e-03 -2.09472100e-03 0.0
3.68277645e-03 -2.23035118e-03 0.0
3.93034984e-03 -2.36851704e-03 0.0
4.18125878e-03 -2.50878172e-03 0.0
4.43486906e-03 -2.65080530e-03 0.0
4.69073975e-03 -2.79445715e-03 0.0
4.94869136e-03 -2.93968481e-03 0.0
5.20952015e-03 -3.08696253e-03 0.0
1.32184722e-03 -9.72716780e-04 0.0
1.07123680e-03 -9.59110427e-04 0.0
1.01263381e-03 -9.61342681e-04 0.0
1.14996730e-03 -1.02180972e-03 0.0
1.39209528e-03 -1.14072406e-03 0.0
1.69680825e-03 -1.30675706e-03 0.0
2.04489850e-03 -1.50927085e-03 0.0
2.42583525e-03 -1.73998994e-03 0.0
2.83243255e-03 -1.99244348e-03 0.0
3.25873859e-03 -2.26130646e-03 0.0
3.69907604e-03 -2.54207106e-03 0.0
4.14787659e-03 -2.83129210e-03 0.0
4.60138504e-03 -3.12801318e-03 0.0
1.18303558e-03 -9.94270697e-04 0.0
1.07301098e-03 -1.00084989e-03 0.0
9.51102876e-04 -1.00591668e-03 0.0
8.91739863e-04 -1.00827868e-03 0.0
8.90322369e-04 -1.01667218e-03 0.0
9.33194755e-04 -1.03776365e-03 0.0
1.00727661e-03 -1.07278499e-03 0.0
1.10438977e-03 -1.12216293e-03 0.0
1.21865859e-03 -1.18471246e-03 0.0
1.34657071e-03 -1.25929047e-03 0.0
1.48558118e-03 -1.34452131e-03 0.0
1.63402362e-03 -1.43923133e-03 0.0
1.79057863e-03 -1.54232671e-03 0.0
1.95427334e-03 -1.65285775e-03 0.0
2.12425521e-03 -1.76998018e-03 0.0
2.29982232e-03 -1.89293357e-03 0.0
2.48029430e-03 -2.02103815e-03 0.0
2.66505535e-03 -2.15365607e-03 0.0
2.85345691e-03 -2.29020310e-03 0.0
3.04486330e-03 -2.43012652e-03 0.0
3.23856844e-03 -2.57291519e-03 0.0
3.43385563e-03 -2.71812584e-03 0.0
3.62995029e-03 -2.86542540e-03 0.0
3.82614664e-03 -3.01465073e-03 0.0
4.02185824e-03 -3.16610402e-03 0.0
1.04159344e-03 -1.01346931e-03 0.0
8.31197928e-04 -1.04846822e-03 0.0
7.71071198e-04 -1.06776774e-03 0.0
8.69526426e-04 -1.12025412e-03 0.0
1.05163899e-03 -1.22590548e-03 0.0
1.28232496e-03 -1.37994841e-03 0.0
1.54596745e-03 -1.57330160e-03 0.0
1.83431196e-03 -1.79795777e-03 0.0
2.14188316e-03 -2.04751585e-03 0.0
2.46414200e-03 -2.31673850e-03 0.0
2.79646456e-03 -2.60109625e-03 0.0
3.13325737e-03 -2.89666165e-03 0.0
3.46716310e-03 -3.20108822e-03 0.0
8.97426350e-04 -1.03023559e-03 0.0
8.10207350e-04 -1.05763030e-03 0.0
7.11681112e-04 -1.08608634e-03 0.0
6.60838037e-04 -1.10130438e-03 0.0
6.54953025e-04 -1.11364380e-03 0.0
6.83530214e-04 -1.13298003e-03 0.0
7.36343834e-04 -1.16338171e-03 0.0
8.06848487e-04 -1.20697131e-03 0.0
8.90358856e-04 -1.26350888e-03 0.0
9.84091574e-04 -1.33234855e-03 0.0
1.08604394e-03 -1.41235409e-03 0.0
1.19492670e-03 -1.50245949e-03 0.0
1.30973555e-03 -1.60161581e-03 0.0
1.42974242e-03 -1.70888959e-03 0.0
1.55431590e-03 -1.82344778e-03 0.0
1.68294386e-03 -1.94453732e-03 0.0
1.81512592e-03 -2.07149754e-03 0.0
1.95041241e-03 -2.20370559e-03 0.0
2.08830637e-03 -2.34060458e-03 0.0
2.22831530e-03 -2.48164727e-03 0.0
2.36981616e-03 -2.62632886e-03 0.0
2.51213817e-03 -2.77415279e-03 0.0
2.65432364e-03 -2.92468574e-03 0.0
2.79533782e-03 -3.07754816e-03 0.0
2.93350436e-03 -3.23266943e-03 0.0
7.51277965e-04 -1.04441553e-03 0.0
5.92442541e-04 -1.11865752e-03 0.0
5.41374095e-04 -1.15383574e-03 0.0
6.07142405e-04 -1.20132992e-03 0.0
7.34072344e-04 -1.29672752e-03 0.0
8.95765068e-04 -1.44102286e-03 0.0
1.08062895e-03 -1.62665648e-03 0.0
1.28270147e-03 -1.84593414e-03 0.0
1.49812333e-03 -2.09255723e-03 0.0
1.72370473e-03 -2.36145104e-03 0.0
1.95602675e-03 -2.64830028e-03 0.0
2.19028035e-03 -2.94914693e-03 0.0
2.41788971e-03 -3.26045500e-03 0.0
6.03149142e-04 -1.05619442e-03 0.0
5.42718502e-04 -1.09915583e-03 0.0
4.73552536e-04 -1.14563335e-03 0.0
4.36535094e-04 -1.17133361e-03 0.0
4.30231814e-04 -1.18744604e-03 0.0
4.47532400e-04 -1.20608533e-03 0.0
4.81427560e-04 -1.23340021e-03 0.0
5.27353297e-04 -1.27283057e-03 0.0
5.82042162e-04 -1.32490879e-03 0.0
6.43558383e-04 -1.38940386e-03 0.0
7.10516127e-04 -1.46539038e-03 0.0
7.82033278e-04 -1.55190311e-03 0.0
8.57429525e-04 -1.64793888e-03 0.0
9.36218958e-04 -1.75258155e-03 0.0
1.01798325e-03 -1.86501243e-03 0.0
1.10238749e-03 -1.98448602e-03 0.0
1.18910284e-03 -2.11036383e-03 0.0
1.27783580e-03 -2.24204176e-03 0.0
1.36825062e-03 -2.37900233e-03 0.0
1.46001178e-03 -2.52072502e-03 0.0
1.55265584e-03 -2.66674701e-03 0.0
1.64566085e-03 -2.81657453e-03 0.0
1.73817379e-03 -2.96972996e-03 0.0
1.82919754e-03 -3.12568868e-03 0.0
1.91678736e-03 -3.28395371e-03 0.0
4.53695353e-04 -1.06522474e-03 0.0
3.54898723e-04 -1.16698160e-03 0.0
3.20908071e-04 -1.21428087e-03 0.0
3.58516124e-04 -1.25899446e-03 0.0
4.33455264e-04 -1.34744731e-03 0.0
5.29316552e-04 -1.48489272e-03 0.0
6.38948401e-04 -1.66497025e-03 0.0
7.58736424e-04 -1.88025831e-03 0.0
8.86382440e-04 -2.12455536e-03 0.0
1.01999432e-03 -2.39294405e-03 0.0
1.15747356e-03 -2.68137294e-03 0.0
1.29557460e-03 -2.98607781e-03 0.0
1.42753470e-03 -3.30278113e-03 0.0
3.03040221e-04 -1.07187596e-03 0.0
2.72130400e-04 -1.12445932e-03 0.0
2.36482323e-04 -1.18228501e-03 0.0
2.17013640e-04 -1.21481143e-03 0.0
2.13129763e-04 -1.23358812e-03 0.0
2.21244105e-04 -1.25205102e-03 0.0
2.37795053e-04 -1.27761668e-03 0.0
2.60439543e-04 -1.31455416e-03 0.0
2.87498974e-04 -1.36389772e-03 0.0
3.17979507e-04 -1.42569124e-03 0.0
3.51171711e-04 -1.49915258e-03 0.0
3.86626940e-04 -1.58338746e-03 0.0
4.24001115e-04 -1.67742622e-03 0.0
4.63050721e-04 -1.78036655e-03 0.0
5.03567182e-04 -1.89140051e-03 0.0
5.45384885e-04 -2.00978894e-03 0.0
5.88340794e-04 -2.13490963e-03 0.0
6.32290202e-04 -2.26617349e-03 0.0
6.77063815e-04 -2.40309486e-03 0.0
7.22492167e-04 -2.54517861e-03 0.0
7.68327925e-04 -2.69200541e-03 0.0
8.14286833e-04 -2.84310112e-03 0.0
8.59869914e-04 -2.99798512e-03 0.0
9.04473980e-04 -3.15605738e-03 0.0
9.46821917e-04 -3.31650149e-03 0.0
1.51721399e-04 -1.07568228e-03 0.0
1.18199254e-04 -1.19160690e-03 0.0
1.06300172e-04 -1.24544192e-03 0.0
1.18523839e-04 -1.28894412e-03 0.0
1.43303973e-04 -1.37390006e-03 0.0
1.75072813e-04 -1.50781696e-03 0.0
2.11411458e-04 -1.68499252e-03 0.0
2.51107881e-04 -1.89816290e-03 0.0
2.93398559e-04 -2.14118460e-03 0.0
3.37656439e-04 -2.40923407e-03 0.0
3.83174135e-04 -2.69843008e-03 0.0
4.28806694e-04 -3.00518029e-03 0.0
4.71999766e-04 -3.32488021e-03 0.0
1.01226381e-14 -1.07712068e-03 0.0
7.42184529e-14 -1.13295860e-03 0.0
4.74422594e-14 -1.19465708e-03 0.0
8.94825727e-14 -1.22955011e-03 0.0
4.44702831e-14 -1.24928360e-03 0.0
8.92321409e-14 -1.26772993e-03 0.0
4.54127614e-14 -1.29273138e-03 0.0
9.35826650e-14 -1.32883966e-03 0.0
4.83789176e-14 -1.37726260e-03 0.0
1.00296816e-13 -1.43814019e-03 0.0
5.19876189e-14 -1.51074097e-03 0.0
1.07636666e-13 -1.59419612e-03 0.0
5.56705425e-14 -1.68754828e-03 0.0
1.14877665e-13 -1.78990032e-03 0.0
5.92092973e-14 -1.90044834e-03 0.0
1.21731750e-13 -2.01845555e-03 0.0
6.25152808e-14 -2.14330573e-03 0.0
1.28071472e-13 -2.27441540e-03 0.0
6.55423399e-14 -2.41131087e-03 0.0
1.33807149e-13 -2.55350716e-03 0.0
6.82426648e-14 -2.70060252e-03 0.0
1.38798929e-13 -2.85213308e-03 0.0
7.05160503e-14 -3.00762158e-03 0.0
1.42710954e-13 -3.16644677e-03 0.0
3.60421129e-14 -3.32767449e-03 0.0
SCALARS Sxx float 1
LOOKUP_TABLE default
6.52755716e+00
-5.35570413e+00
-2.34887535e+00
1.28220990e+01
2.45659595e+01
4.09900590e+01
5.30389027e+01
6.29252806e+01
7.11453480e+01
7.68890049e+01
8.20196072e+01
8.54673590e+01
8.86703210e+01
9.08319295e+01
9.28889399e+01
9.43034005e+01
9.56750738e+01
9.66350001e+01
9.75909905e+01
9.82558628e+01
9.89340210e+01
9.93512919e+01
9.99189189e+01
1.00114883e+02
1.00364873e+02
6.47622929e+00
-2.11584257e+00
2.51476758e+01
5.34532882e+01
7.14213994e+01
8.22032060e+01
8.87954809e+01
9.29754305e+01
9.57351809e+01
9.76275041e+01
9.89642062e+01
9.98495185e+01
1.00200641e+02
4.23146976e+00
-4.45343597e+00
-4.98212006e-01
1.54001739e+01
2.72968733e+01
4.33708926e+01
5.51367767e+01
6.46534323e+01
7.25913438e+01
7.80780551e+01
8.30057363e+01
8.62852954e+01
8.93514671e+01
9.14012208e+01
9.33654799e+01
9.47018928e+01
9.60080780e+01
9.69092896e+01
9.78153810e+01
9.84319015e+01
9.90660673e+01
9.94422662e+01
9.99642467e+01
1.00145410e+02
1.00362055e+02
1.92550254e+00
1.59329990e+00
3.05143327e+01
5.75533247e+01
7.42390736e+01
8.41212850e+01
9.01184675e+01
9.38996082e+01
9.63795332e+01
9.80595477e+01
9.92161003e+01
9.99292559e+01
1.00181166e+02
-2.02492041e+00
-1.50650469e+00
5.09000477e+00
2.29572647e+01
3.52163361e+01
5.02206134e+01
6.11410919e+01
6.95792500e+01
7.66994037e+01
8.14480437e+01
8.57941519e+01
8.85940707e+01
9.12703870e+01
9.30022779e+01
9.47028390e+01
9.58177931e+01
9.69377778e+01
9.76727198e+01
9.84367463e+01
9.89173641e+01
9.94266819e+01
9.96896505e+01
1.00086789e+02
1.00229191e+02
1.00356761e+02
-5.93028772e+00
9.07079892e+00
4.07076453e+01
6.51881170e+01
7.94283038e+01
8.76288433e+01
9.25243104e+01
9.55703101e+01
9.75349414e+01
9.88241739e+01
9.96522332e+01
1.00063464e+02
1.00152022e+02
-1.04487467e+01
4.13565608e+00
1.44791919e+01
3.49575753e+01
4.75255293e+01
6.06954348e+01
7.02254880e+01
7.69697030e+01
8.28216283e+01
8.64457927e+01
8.99096293e+01
9.19892508e+01
9.40806460e+01
9.53384027e+01
9.66450793e+01
9.74306933e+01
9.82724046e+01
9.87613219e+01
9.93122929e+01
9.95957818e+01
9.99189855e+01
1.00025717e+02
1.00249938e+02
1.00346060e+02
1.00365688e+02
-1.48007733e+01
2.03479985e+01
5.46900049e+01
7.53087259e+01
8.61783908e+01
9.21356916e+01
9.55848415e+01
9.76722587e+01
9.89657744e+01
9.97473032e+01
1.00157856e+02
1.00216283e+02
1.00123218e+02
-1.83775125e+01
1.33386706e+01
2.76374120e+01
5.05016532e+01
6.29645263e+01
7.35017732e+01
8.11463437e+01
8.57401490e+01
9.00109291e+01
9.22698210e+01
9.46684149e+01
9.58921786e+01
9.72889017e+01
9.79883611e+01
9.88300436e+01
9.92295149e+01
9.97420563e+01
9.99454671e+01
1.00243846e+02
1.00306496e+02
1.00415147e+02
1.00357764e+02
1.00415423e+02
1.00471496e+02
1.00386967e+02
-2.17350667e+01
3.52801378e+01
7.10128338e+01
8.65375121e+01
9.34631891e+01
9.69106246e+01
9.87759749e+01
9.98225629e+01
1.00388115e+02
1.00623396e+02
1.00605204e+02
1.00338182e+02
1.00133630e+02
-2.27344059e+01
2.68995590e+01
4.42789401e+01
6.83404048e+01
7.99201482e+01
8.70572583e+01
9.24286859e+01
9.46389030e+01
9.71970557e+01
9.80261816e+01
9.93168449e+01
9.96708893e+01
1.00359068e+02
1.00497704e+02
1.00868059e+02
1.00881699e+02
1.01059019e+02
1.00982677e+02
1.01025012e+02
1.00887888e+02
1.00788225e+02
1.00608213e+02
1.00527854e+02
1.00584800e+02
1.00518801e+02
-2.35727316e+01
5.33846215e+01
8.79407633e+01
9.73854922e+01
1.00227919e+02
1.01226829e+02
1.01586843e+02
1.01652318e+02
1.01532554e+02
1.01262977e+02
1.00896674e+02
1.00471307e+02
1.00126923e+02
-2.04288766e+01
4.52330271e+01
6.37252759e+01
8.69239539e+01
9.65565556e+01
9.97119613e+01
1.02594550e+02
1.02468960e+02
1.03382905e+02
1.02898070e+02
1.03186924e+02
1.02765171e+02
1.02826591e+02
1.02471269e+02
1.02425312e+02
1.02100987e+02
1.01980112e+02
1.01669359e+02
1.01487653e+02
1.01199172e+02
1.00951088e+02
1.00680838e+02
1.00673170e+02
1.00662325e+02
1.00510712e+02
-1.74309640e+01
7.37481405e+01
1.03558107e+02
1.06509266e+02
1.05602917e+02
1.04511567e+02
1.03625789e+02
1.02883415e+02
1.02198088e+02
1.01545157e+02
1.00968157e+02
1.00512466e+02
1.00461813e+02
-9.05745653e+00
6.80163808e+01
8.50051671e+01
1.04409551e+02
1.11019722e+02
1.09995421e+02
1.10410832e+02
1.08329397e+02
1.07784262e+02
1.06322125e+02
1.05785495e+02
1.04803989e+02
1.04367381e+02
1.03651919e+02
1.03274804e+02
1.02703464e+02
1.02343260e+02
1.01871947e+02
1.01526708e+02
1.01180194e+02
1.00835892e+02
1.00539179e+02
1.00466670e+02
9.98913113e+01
1.00909584e+02
-6.23773317e-01
9.54387679e+01
1.15981789e+02
1.12761689e+02
1.08965750e+02
1.06402690e+02
1.04663487e+02
1.03359691e+02
1.02289212e+02
1.01407146e+02
1.00916162e+02
1.01700633e+02
1.01306549e+02
1.55763707e+01
9.26381021e+01
1.06896511e+02
1.19294957e+02
1.20678620e+02
1.16955014e+02
1.14868022e+02
1.11729336e+02
1.09983549e+02
1.08065926e+02
1.06892276e+02
1.05672171e+02
1.04845272e+02
1.03977473e+02
1.03331811e+02
1.02652839e+02
1.02111386e+02
1.01579507e+02
1.01142849e+02
1.00745415e+02
1.00423004e+02
1.00237383e+02
1.00022370e+02
9.70325562e+01
9.42573058e+01
3.28196755e+01
1.14577083e+02
1.24199056e+02
1.16878755e+02
1.11239734e+02
1.07704832e+02
1.05388186e+02
1.03706161e+02
1.02371832e+02
1.01284697e+02
1.00430091e+02
9.93007276e+01
9.37466412e+01
5.17169636e+01
1.16236733e+02
1.22646059e+02
1.30081657e+02
1.28449529e+02
1.23378573e+02
1.19414310e+02
1.15645958e+02
1.12838851e+02
1.10547411e+02
1.08755856e+02
1.07310693e+02
1.06107984e+02
1.05108110e+02
1.04220222e+02
1.03451781e+02
1.02742464e+02
1.02100044e+02
1.01512226e+02
1.00975079e+02
1.00513880e+02
9.98712337e+01
9.91469757e+01
9.88229287e+01
9.68311528e+01
7.21229090e+01
1.30706849e+02
1.31611452e+02
1.20995536e+02
1.13770821e+02
1.09350546e+02
1.06504771e+02
1.04491567e+02
1.02920340e+02
1.01611787e+02
1.00476930e+02
9.93889050e+01
9.79147816e+01
9.44879176e+01
1.43634936e+02
1.39046710e+02
1.39678826e+02
1.34842261e+02
1.27914308e+02
1.22708753e+02
1.18238525e+02
1.14811935e+02
1.12157012e+02
1.10029668e+02
1.08370881e+02
1.06971389e+02
1.05838958e+02
1.04826980e+02
1.03968199e+02
1.03163648e+02
1.02450288e+02
1.01767526e+02
1.01144056e+02
1.00549212e+02
1.00024798e+02
9.94848513e+01
9.90658455e+01
9.86558023e+01
1.17983238e+02
1.47422921e+02
1.37192696e+02
1.23580923e+02
1.15240750e+02
1.10274008e+02
1.07125843e+02
1.04930581e+02
1.03232028e+02
1.01802881e+02
1.00556126e+02
9.95078296e+01
9.87788374e+01
1.42365976e+02
1.72613559e+02
1.55685863e+02
1.48075654e+02
1.39378821e+02
1.30553097e+02
1.24365611e+02
1.19349042e+02
1.15609890e+02
1.12749557e+02
1.10489499e+02
1.08737395e+02
1.07270052e+02
1.06087531e+02
1.05036680e+02
1.04146055e+02
1.03311235e+02
1.02569366e+02
1.01850776e+02
1.01189867e+02
1.00556383e+02
9.99866891e+01
9.94873586e+01
9.91031154e+01
9.89089841e+01
1.66606697e+02
1.63903531e+02
1.41020338e+02
1.24573686e+02
1.15534640e+02
1.10377596e+02
1.07174564e+02
1.04962794e+02
1.03253816e+02
1.01797681e+02
1.00491438e+02
9.93810981e+01
9.87393217e+01
1.90721840e+02
2.01185917e+02
1.71644791e+02
1.55203207e+02
1.42310292e+02
1.31557537e+02
1.24545970e+02
1.19161771e+02
1.15305769e+02
1.12418247e+02
1.10171489e+02
1.08453902e+02
1.07019909e+02
1.05873866e+02
1.04853123e+02
1.03990733e+02
1.03176331e+02
1.02450137e+02
1.01734300e+02
1.01072042e+02
1.00413641e+02
9.98043597e+01
9.92471760e+01
9.87931588e+01
9.85316257e+01
2.13388337e+02
1.79189633e+02
1.43401602e+02
1.24291125e+02
1.14886100e+02
1.09816179e+02
1.06751007e+02
1.04654200e+02
1.03028184e+02
1.01617876e+02
1.00300149e+02
9.90783929e+01
9.81756419e+01
2.34839465e+02
2.26935141e+02
1.85854506e+02
1.60962295e+02
1.44002543e+02
1.31447529e+02
1.23724025e+02
1.18118553e+02
1.14264913e+02
1.11465890e+02
1.09329173e+02
1.07726658e+02
1.06394114e+02
1.05339957e+02
1.04396369e+02
1.03600555e+02
1.02841157e+02
1.02159315e+02
1.01475430e+02
1.00830524e+02
1.00166700e+02
9.95242409e+01
9.88807720e+01
9.82790146e+01
9.77679713e+01
2.53618867e+02
1.92119773e+02
1.44722997e+02
1.23296461e+02
1.13739496e+02
1.08902070e+02
1.06073871e+02
1.04159853e+02
1.02665263e+02
1.01339359e+02
1.00041374e+02
9.87010793e+01
9.73534194e+01
2.70185577e+02
2.47451188e+02
1.97129335e+02
1.65227081e+02
1.44854478e+02
1.30815713e+02
1.22521641e+02
1.16789575e+02
1.12993279e+02
1.10323575e+02
1.08328980e+02
1.06865461e+02
1.05654493e+02
1.04707901e+02
1.03854948e+02
1.03136547e+02
1.02442298e+02
1.01813463e+02
1.01171434e+02
1.00553219e+02
9.98948680e+01
9.92298153e+01
9.85022474e+01
9.77412358e+01
9.69088672e+01
2.83096188e+02
2.01535343e+02
1.45359912e+02
1.22202470e+02
1.12602193e+02
1.08009719e+02
1.05414179e+02
1.03676786e+02
1.02309322e+02
1.01068421e+02
9.98011033e+01
9.83659865e+01
9.65792735e+01
2.93032596e+02
2.60682392e+02
2.04395790e+02
1.67860135e+02
1.45211841e+02
1.30192613e+02
1.21524153e+02
1.15726963e+02
1.11988280e+02
1.09425125e+02
1.07543861e+02
1.06189463e+02
1.05073789e+02
1.04210956e+02
1.03428771e+02
1.02770605e+02
1.02127418e+02
1.01540273e+02
1.00932302e+02
1.00336569e+02
9.96865504e+01
9.90089373e+01
9.82221839e+01
9.73423598e+01
9.62480613e+01
2.98675270e+02
2.06503018e+02
1.45600978e+02
1.21514068e+02
1.11909033e+02
1.07468158e+02
1.05013656e+02
1.03382891e+02
1.02092272e+02
1.00903541e+02
9.96576336e+01
9.81707227e+01
9.61160111e+01
3.00932434e+02
2.65253984e+02
2.06907028e+02
1.68751802e+02
1.45304323e+02
1.29941909e+02
1.21142540e+02
1.15325235e+02
1.11609684e+02
1.09087114e+02
1.07248584e+02
1.05935143e+02
1.04855250e+02
1.04023797e+02
1.03268162e+02
1.02632575e+02
1.02008573e+02
1.01437124e+02
1.00842115e+02
1.00255084e+02
9.96087731e+01
9.89272562e+01
9.81193259e+01
9.71958547e+01
9.60013696e+01
SCALARS Syy float 1
LOOKUP_TABLE default
-1.05421777e+02
-7.51887402e+01
-3.91410244e+01
-1.59791681e+01
-5.43610733e+00
3.13045736e-01
2.32112856e+00
2.86758009e+00
2.94077102e+00
2.54426012e+00
2.32700483e+00
1.94993607e+00
1.80598191e+00
1.61134611e+00
1.60685240e+00
1.59875456e+00
1.74319450e+00
1.91232034e+00
2.22139352e+00
2.58285427e+00
3.09926089e+00
3.71366147e+00
4.58701089e+00
5.64410673e+00
7.10826819e+00
-1.03693893e+02
-3.92433152e+01
-6.12880165e+00
1.67601750e+00
2.45606524e+00
1.98058777e+00
1.55864862e+00
1.42790396e+00
1.61164276e+00
2.12097482e+00
3.02069137e+00
4.47511722e+00
6.90915190e+00
-9.96143789e+01
-7.23141522e+01
-3.80985207e+01
-1.62341131e+01
-6.24052874e+00
-6.42679684e-01
1.38809653e+00
2.02782467e+00
2.21324295e+00
1.92445140e+00
1.80247726e+00
1.50702533e+00
1.43088293e+00
1.29293175e+00
1.33504457e+00
1.36546823e+00
1.54157583e+00
1.73601670e+00
2.06490289e+00
2.43935433e+00
2.96030009e+00
3.56852815e+00
4.41237456e+00
5.41058196e+00
6.74322473e+00
-9.22772819e+01
-3.71974706e+01
-7.66716165e+00
-1.03626505e-01
1.07396284e+00
9.87193886e-01
8.49986879e-01
9.15354099e-01
1.23185265e+00
1.82542726e+00
2.75631184e+00
4.13546916e+00
6.21197650e+00
-8.29728224e+01
-6.40973426e+01
-3.51600659e+01
-1.69699030e+01
-8.51066010e+00
-3.32708875e+00
-1.21833693e+00
-3.10699968e-01
1.93309127e-01
2.07383094e-01
3.52061480e-01
2.84245698e-01
3.96575720e-01
4.15941322e-01
5.86999107e-01
7.23859149e-01
9.87046555e-01
1.25084078e+00
1.63325492e+00
2.04221550e+00
2.57344386e+00
3.16156253e+00
3.92225431e+00
4.75769855e+00
5.74085225e+00
-7.09842250e+01
-3.34699317e+01
-1.04634744e+01
-3.29007723e+00
-1.37809198e+00
-7.64456833e-01
-3.94275337e-01
1.80785714e-02
5.67455967e-01
1.30568207e+00
2.28369202e+00
3.52194020e+00
4.99654194e+00
-5.77319488e+01
-5.16854658e+01
-3.08409076e+01
-1.80867098e+01
-1.18309933e+01
-7.21891541e+00
-4.95460988e+00
-3.64209874e+00
-2.66659796e+00
-2.21269475e+00
-1.68445964e+00
-1.42706573e+00
-1.04730603e+00
-8.05404672e-01
-4.53195697e-01
-1.67213224e-01
2.16544980e-01
5.75636677e-01
1.02886755e+00
1.48162029e+00
2.01880388e+00
2.57173975e+00
3.20922575e+00
3.81955740e+00
4.35573326e+00
-4.26831896e+01
-2.86888027e+01
-1.39853283e+01
-7.20501616e+00
-4.34486873e+00
-2.86125229e+00
-1.87264537e+00
-1.04266593e+00
-2.17779538e-01
6.83542153e-01
1.69801187e+00
2.74886935e+00
3.57285217e+00
-2.72701864e+01
-3.67585048e+01
-2.58389942e+01
-1.93837929e+01
-1.55588339e+01
-1.15367987e+01
-9.02526475e+00
-7.23909966e+00
-5.72434427e+00
-4.78103956e+00
-3.83356011e+00
-3.22311618e+00
-2.55666851e+00
-2.07719513e+00
-1.53396820e+00
-1.09152683e+00
-5.84347987e-01
-1.29451881e-01
3.88949851e-01
8.78769761e-01
1.40765126e+00
1.90392244e+00
2.40965349e+00
2.78963844e+00
2.93769701e+00
-1.11725213e+01
-2.35702097e+01
-1.75103247e+01
-1.09916101e+01
-7.15293273e+00
-4.81412891e+00
-3.23319650e+00
-2.01154059e+00
-9.37002202e-01
9.58384984e-02
1.10919298e+00
1.96550716e+00
2.31297168e+00
4.36409297e+00
-2.12250603e+01
-2.08334515e+01
-2.05351769e+01
-1.89068929e+01
-1.53594798e+01
-1.25365900e+01
-1.03085997e+01
-8.29030150e+00
-6.91502107e+00
-5.60340036e+00
-4.68913076e+00
-3.78170443e+00
-3.10273302e+00
-2.40345775e+00
-1.83412803e+00
-1.23328220e+00
-7.07723577e-01
-1.53686869e-01
3.46177110e-01
8.35990826e-01
1.27152193e+00
1.65141261e+00
1.89450070e+00
1.84824632e+00
1.93629198e+01
-1.87072504e+01
-2.02247725e+01
-1.37915843e+01
-9.16094976e+00
-6.17777899e+00
-4.16461125e+00
-2.66733097e+00
-1.43224169e+00
-3.45855992e-01
6.00672863e-01
1.27750090e+00
1.49784762e+00
3.30966224e+01
-6.90568426e+00
-1.62448413e+01
-2.11015728e+01
-2.10498140e+01
-1.77807696e+01
-1.47086840e+01
-1.21558682e+01
-9.79670326e+00
-8.14545934e+00
-6.60411393e+00
-5.50542583e+00
-4.45492898e+00
-3.66033196e+00
-2.87466283e+00
-2.23952724e+00
-1.59900755e+00
-1.05119758e+00
-5.09902613e-01
-4.32362090e-02
3.84583671e-01
7.53268085e-01
1.15584533e+00
1.21664376e+00
1.42190576e+00
4.49707220e+01
-1.43432756e+01
-2.13281907e+01
-1.49749124e+01
-9.93147977e+00
-6.66161102e+00
-4.47389639e+00
-2.87852935e+00
-1.61421076e+00
-5.82348866e-01
2.15464266e-01
8.38394217e-01
1.91262384e+00
5.49361123e+01
4.87792053e+00
-1.22149503e+01
-2.05458672e+01
-2.12017951e+01
-1.81482993e+01
-1.50447431e+01
-1.23455395e+01
-9.96329328e+00
-8.21746724e+00
-6.66492343e+00
-5.52002032e+00
-4.46915089e+00
-3.65554095e+00
-2.88127688e+00
-2.24666223e+00
-1.64039855e+00
-1.13577089e+00
-6.81880680e-01
-2.72320381e-01
2.04019572e-02
1.98222471e-01
3.86370788e-01
1.13681178e+00
3.11815692e+00
6.26022572e+01
-1.05126722e+01
-2.01912861e+01
-1.42594916e+01
-9.37201045e+00
-6.23182093e+00
-4.15132219e+00
-2.64721391e+00
-1.49081929e+00
-6.35789285e-01
-1.19582126e-01
4.26629405e-01
2.74892936e+00
6.86047131e+01
1.28399059e+01
-8.76025778e+00
-1.81473967e+01
-1.92957113e+01
-1.60888925e+01
-1.35263655e+01
-1.08161476e+01
-8.82672060e+00
-7.13721655e+00
-5.84786609e+00
-4.75580493e+00
-3.88376477e+00
-3.10476756e+00
-2.46001765e+00
-1.86966119e+00
-1.37341409e+00
-9.44996953e-01
-5.93828759e-01
-4.09811238e-01
-2.79008633e-01
-2.19564948e-01
-3.60120914e-01
2.09838597e-01
7.40137742e-01
7.31811657e+01
-3.80562527e+00
-1.76143430e+01
-1.29834737e+01
-8.69016084e+00
-5.89041641e+00
-4.03595641e+00
-2.69998760e+00
-1.67140866e+00
-9.05492033e-01
-5.55205916e-01
-1.15805642e+00
-9.59937797e-01
7.14689334e+01
2.20685610e+01
5.42694918e-01
-1.17332480e+01
-1.55058202e+01
-1.34665917e+01
-1.21135206e+01
-9.79737163e+00
-8.33824501e+00
-6.78265652e+00
-5.76776122e+00
-4.73611864e+00
-4.04135612e+00
-3.30286421e+00
-2.78953401e+00
-2.22078631e+00
-1.80563234e+00
-1.36391348e+00
-1.01541160e+00
-7.11068585e-01
-4.37252272e-01
-1.92538439e-01
-1.77225425e-01
5.13688516e-01
-5.41602742e-03
6.91456520e+01
5.27587374e+00
-1.15842586e+01
-1.01349257e+01
-7.28250801e+00
-5.19014590e+00
-3.74736165e+00
-2.69024847e+00
-1.84842154e+00
-1.14460965e+00
-6.04123589e-01
-2.77753055e-01
-3.26012185e-02
6.30573205e+01
2.90093494e+01
9.21139159e+00
-3.23708691e+00
-7.80226689e+00
-8.08644936e+00
-7.96444870e+00
-6.73318984e+00
-6.06953783e+00
-5.04318019e+00
-4.48382234e+00
-3.75880672e+00
-3.34113695e+00
-2.80704452e+00
-2.48121902e+00
-2.05545197e+00
-1.77550941e+00
-1.41641409e+00
-1.15589185e+00
-8.56609639e-01
-6.18622349e-01
-3.76739600e-01
-1.62018893e-01
-3.27642709e-02
1.85939014e-02
5.65793854e+01
1.32902369e+01
-2.75415241e+00
-4.78732435e+00
-4.13345592e+00
-3.29056944e+00
-2.60177701e+00
-2.04087755e+00
-1.54511870e+00
-1.07198806e+00
-6.11359383e-01
-1.85773891e-01
3.03042795e-02
4.75047281e+01
3.23918661e+01
1.65632729e+01
6.41361427e+00
2.01567195e+00
-5.02596379e-01
-1.65317144e+00
-1.87039068e+00
-2.18603334e+00
-1.99557790e+00
-2.05995706e+00
-1.83513288e+00
-1.81584390e+00
-1.60477881e+00
-1.54683372e+00
-1.34397201e+00
-1.25706251e+00
-1.05230596e+00
-9.32395659e-01
-7.23632826e-01
-5.62129927e-01
-3.67740129e-01
-1.73972892e-01
-7.27453921e-02
4.09614554e-02
3.80474425e+01
1.98274582e+01
7.53920569e+00
2.25633883e+00
3.40350138e-01
-4.23872777e-01
-7.42110456e-01
-8.44969129e-01
-8.15913895e-01
-6.82189485e-01
-4.48835545e-01
-1.46668315e-01
4.10571717e-02
2.75048035e+01
3.26674601e+01
2.22618251e+01
1.60103551e+01
1.25786190e+01
8.22424773e+00
5.90750144e+00
4.13949785e+00
2.73832466e+00
1.95659611e+00
1.14826296e+00
7.70727255e-01
3.02935547e-01
1.20901803e-01
-1.48954511e-01
-2.18930381e-01
-3.66201502e-01
-3.59693409e-01
-4.19319908e-01
-3.52827353e-01
-3.33593765e-01
-2.30416227e-01
-1.27669388e-01
-6.76811820e-02
2.18635234e-02
1.68767053e+01
2.46428247e+01
1.78845068e+01
9.96945846e+00
5.47287394e+00
2.97282146e+00
1.53408852e+00
6.86246021e-01
1.91002788e-01
-6.98708755e-02
-1.48087048e-01
-6.87091927e-02
2.67040289e-02
6.71223925e+00
3.08593169e+01
2.62317943e+01
2.45351109e+01
2.25129116e+01
1.68237207e+01
1.35552224e+01
1.03507055e+01
7.91021060e+00
6.16360269e+00
4.60848336e+00
3.61236111e+00
2.64505989e+00
2.05455377e+00
1.44635922e+00
1.09162384e+00
7.03682054e-01
4.98181002e-01
2.53381675e-01
1.53829840e-01
1.62319793e-02
-3.31395317e-03
-3.78983360e-02
-2.63858594e-02
-6.84090905e-03
-3.20050708e+00
2.78140094e+01
2.69733676e+01
1.71599068e+01
1.04072276e+01
6.30641961e+00
3.80940227e+00
2.25156178e+00
1.25610591e+00
6.15128150e-01
2.21526633e-01
3.25050674e-02
-4.21960631e-03
-1.12781793e+01
2.82613256e+01
2.86836125e+01
3.11827062e+01
3.05926288e+01
2.40404230e+01
2.00879456e+01
1.57351905e+01
1.24429995e+01
9.88296423e+00
7.69307774e+00
6.16268389e+00
4.76316484e+00
3.81652589e+00
2.91370272e+00
2.30971789e+00
1.71253733e+00
1.31957514e+00
9.14065329e-01
6.62290046e-01
3.84571278e-01
2.42700304e-01
6.89344341e-02
3.01362342e-02
-3.81161726e-02
-1.87802479e+01
2.96338897e+01
3.37015731e+01
2.26952875e+01
1.42842394e+01
8.96074353e+00
5.64109610e+00
3.52739058e+00
2.13979399e+00
1.20009159e+00
5.52921432e-01
1.29554114e-01
-3.55392633e-02
-2.34268249e+01
2.61110580e+01
2.99561637e+01
3.53888249e+01
3.58516386e+01
2.88305657e+01
2.44725793e+01
1.93831578e+01
1.55351506e+01
1.24339631e+01
9.81932660e+00
7.92778545e+00
6.23559300e+00
5.04651698e+00
3.94323975e+00
3.16908483e+00
2.42962246e+00
1.90805875e+00
1.39363606e+00
1.03544778e+00
6.61989392e-01
4.30518783e-01
1.54628213e-01
7.72555746e-02
-6.23989553e-02
-2.72690999e+01
3.04367298e+01
3.72733229e+01
2.57005415e+01
1.64141200e+01
1.04299509e+01
6.66108021e+00
4.24243199e+00
2.63949557e+00
1.53567701e+00
7.47936316e-01
1.88905935e-01
-5.47715132e-02
-2.77125038e+01
2.52884596e+01
3.03423803e+01
3.68262974e+01
3.76748798e+01
3.05070675e+01
2.60154526e+01
2.06726698e+01
1.66318461e+01
1.33410928e+01
1.05772234e+01
8.55816104e+00
6.76252328e+00
5.48752683e+00
4.31321553e+00
3.47866553e+00
2.68878152e+00
2.12149333e+00
1.56854287e+00
1.17223157e+00
7.64826015e-01
5.00558415e-01
1.87317477e-01
9.54390490e-02
-7.14725991e-02
SCALARS Txy float 1
LOOKUP_TABLE default
-1.82971322e-01
3.78558275e-02
6.64613191e-02
-1.37671148e-01
8.07006352e-02
-2.92495957e-02
-1.03214131e-02
-1.81595729e-02
-1.58093887e-02
-9.29187243e-03
-1.49836083e-02
-6.28841391e-03
-1.14165232e-02
-4.09306165e-03
-8.70489844e-03
-2.86200898e-03
-7.51522885e-03
-8.38159801e-04
-4.46452694e-03
-4.40457734e-03
-1.40014909e-02
1.55541081e-02
3.27599253e-02
-9.06972348e-02
-2.01010773e-01
7.69896165e+00
-2.87064529e+00
-5.31151470e+00
-4.12850992e+00
-2.84089306e+00
-1.93761534e+00
-1.35059114e+00
-9.70954669e-01
-7.21283544e-01
-5.51007768e-01
-4.21538913e-01
-2.85385352e-01
-2.50267523e-02
1.48757629e+01
3.90148134e-01
-5.78862694e+00
-9.68943331e+00
-1.05616334e+01
-9.37568318e+00
-8.18814501e+00
-6.76763027e+00
-5.62912999e+00
-4.62739517e+00
-3.83755130e+00
-3.18860424e+00
-2.67425268e+00
-2.25550479e+00
-1.92211119e+00
-1.64606589e+00
-1.42743665e+00
-1.23719310e+00
-1.08993459e+00
-9.43088190e-01
-8.34374910e-01
-6.80663681e-01
-5.66411541e-01
-3.05325548e-01
-5.29530415e-02
2.13386475e+01
-8.67502632e+00
-1.53282551e+01
-1.17958691e+01
-8.07605548e+00
-5.49215325e+00
-3.82160571e+00
-2.74460658e+00
-2.03722332e+00
-1.55351430e+00
-1.18174032e+00
-7.87280908e-01
-6.29335276e-02
2.63269253e+01
-4.30615089e-01
-1.16837662e+01
-1.85584861e+01
-1.99192657e+01
-1.75238437e+01
-1.52113284e+01
-1.25176927e+01
-1.03777295e+01
-8.50960174e+00
-7.04359364e+00
-5.84348921e+00
-4.89552279e+00
-4.12486875e+00
-3.51317910e+00
-3.00622252e+00
-2.60576277e+00
-2.25554908e+00
-1.98411464e+00
-1.71128751e+00
-1.50575899e+00
-1.22043760e+00
-9.96300551e-01
-5.35166202e-01
-8.26803824e-02
2.99813203e+01
-1.45871916e+01
-2.35919476e+01
-1.77912712e+01
-1.20578580e+01
-8.15218828e+00
-5.65309691e+00
-4.05187216e+00
-3.00254208e+00
-2.28045716e+00
-1.71270329e+00
-1.10153412e+00
-6.96418755e-02
3.14727857e+01
-3.36882506e+00
-1.76350517e+01
-2.58156760e+01
-2.70006241e+01
-2.33916117e+01
-2.00962075e+01
-1.64165257e+01
-1.35354304e+01
-1.10521748e+01
-9.11922581e+00
-7.54605543e+00
-6.31072380e+00
-5.30849504e+00
-4.51730448e+00
-3.86001525e+00
-3.34312867e+00
-2.88666552e+00
-2.53181150e+00
-2.16999226e+00
-1.88939525e+00
-1.51217471e+00
-1.19120492e+00
-6.33479054e-01
-7.56735887e-02
3.11838231e+01
-2.04335793e+01
-2.91511915e+01
-2.13100202e+01
-1.42222836e+01
-9.53155400e+00
-6.57616065e+00
-4.69989358e+00
-3.47332276e+00
-2.61867405e+00
-1.92152945e+00
-1.16257753e+00
-4.58565111e-02
2.84474028e+01
-8.78393500e+00
-2.33288862e+01
-3.07470741e+01
-3.09916600e+01
-2.62565619e+01
-2.22258521e+01
-1.79669389e+01
-1.46992791e+01
-1.19305871e+01
-9.80127209e+00
-8.08089752e+00
-6.74240868e+00
-5.65823696e+00
-4.80976407e+00
-4.10095442e+00
-3.54732398e+00
-3.04977366e+00
-2.66037091e+00
-2.25525974e+00
-1.92645352e+00
-1.50766701e+00
-1.11489953e+00
-5.83002267e-01
-4.03304088e-02
2.37055053e+01
-2.57566234e+01
-3.13692620e+01
-2.19670973e+01
-1.43560649e+01
-9.50980191e+00
-6.51805591e+00
-4.64133339e+00
-3.41586932e+00
-2.54240980e+00
-1.79254831e+00
-9.75467260e-01
7.82106003e-03
1.67192651e+01
-1.63563025e+01
-2.81728772e+01
-3.27937529e+01
-3.14453512e+01
-2.58471659e+01
-2.14544699e+01
-1.71002292e+01
-1.38495764e+01
-1.11523159e+01
-9.11146753e+00
-7.47643894e+00
-6.22133004e+00
-5.20471826e+00
-4.41943318e+00
-3.75580638e+00
-3.24229471e+00
-2.76705506e+00
-2.39057653e+00
-1.98741099e+00
-1.64432794e+00
-1.23005844e+00
-8.13037621e-01
-3.90419690e-01
3.30139356e-02
7.73913507e+00
-2.98528748e+01
-3.00171317e+01
-1.98787622e+01
-1.26350232e+01
-8.24692195e+00
-5.60850734e+00
-3.97696206e+00
-2.90833568e+00
-2.11788519e+00
-1.38913301e+00
-6.07622852e-01
6.77766427e-03
-2.78466407e+00
-2.50887377e+01
-3.13945651e+01
-3.16443379e+01
-2.83524801e+01
-2.24220193e+01
-1.81432518e+01
-1.41864185e+01
-1.13506385e+01
-9.04265956e+00
-7.34285083e+00
-5.98643289e+00
-4.97015200e+00
-4.13970033e+00
-3.51372798e+00
-2.96983229e+00
-2.55603847e+00
-2.15483966e+00
-1.83087249e+00
-1.46490369e+00
-1.13278872e+00
-7.80341786e-01
-3.57898033e-01
-1.09305085e-01
-1.28078642e-02
-1.51750088e+01
-3.19261970e+01
-2.53270962e+01
-1.56283228e+01
-9.59072086e+00
-6.14426222e+00
-4.14215136e+00
-2.92454588e+00
-2.11871562e+00
-1.49046058e+00
-8.71049787e-01
-3.03350392e-01
1.84341991e-01
-2.79366677e+01
-3.34894838e+01
-3.22756741e+01
-2.72878447e+01
-2.22334123e+01
-1.67723521e+01
-1.30596851e+01
-9.97967883e+00
-7.84204655e+00
-6.16984750e+00
-4.96856787e+00
-4.02280545e+00
-3.33257444e+00
-2.76155459e+00
-2.34466496e+00
-1.96765462e+00
-1.68647243e+00
-1.39130119e+00
-1.15574388e+00
-8.80755507e-01
-6.42831750e-01
-2.48111046e-01
-2.20620885e-02
6.58804547e-01
6.25121800e-01
-4.19034475e+01
-3.13323527e+01
-1.82063310e+01
-1.00998466e+01
-5.91413662e+00
-3.70752320e+00
-2.48080658e+00
-1.74832825e+00
-1.25731605e+00
-8.63338233e-01
-4.95088954e-01
-2.66278482e-01
-9.32677638e-01
-5.52978500e+01
-3.95324821e+01
-3.00867226e+01
-2.02654359e+01
-1.40141542e+01
-1.00746851e+01
-7.19858418e+00
-5.44295587e+00
-4.07734720e+00
-3.21681520e+00
-2.52144403e+00
-2.06229506e+00
-1.68043870e+00
-1.41473959e+00
-1.18732551e+00
-1.01524062e+00
-8.61539161e-01
-7.42766264e-01
-6.33534421e-01
-5.31535705e-01
-4.28810481e-01
-5.02136874e-01
-6.44404661e-01
-1.10902868e+00
-1.45176818e+00
-6.77977581e+01
-2.97741688e+01
-1.09528356e+01
-5.07576076e+00
-2.75129560e+00
-1.67002767e+00
-1.10591674e+00
-7.85023781e-01
-5.91198440e-01
-4.83955220e-01
-4.85738743e-01
-4.27873351e-01
4.14260641e-02
-7.95256200e+01
-4.57438624e+01
-2.92503817e+01
-1.52521098e+01
-7.87572846e+00
-5.14120169e+00
-2.84297593e+00
-2.11701345e+00
-1.31545901e+00
-1.06915788e+00
-7.37927591e-01
-6.43056259e-01
-4.79514645e-01
-4.44861635e-01
-3.51905426e-01
-3.46507620e-01
-2.93531791e-01
-3.11552780e-01
-2.98669564e-01
-3.64595421e-01
-3.90745011e-01
-5.13952479e-01
-6.82279681e-01
-8.49834843e-01
-1.77343791e-01
-8.94505386e+01
-2.90123916e+01
-5.05568553e+00
-6.06412026e-01
1.80209591e-01
2.59411970e-01
2.06575044e-01
1.40747463e-01
7.54667887e-02
-1.57306309e-02
-1.55939657e-01
-3.82783555e-01
-7.00215859e-02
-9.78498927e+01
-5.08285303e+01
-2.84468522e+01
-1.05805915e+01
-2.09269215e+00
3.32852112e-02
1.68373592e+00
1.59393928e+00
1.73894358e+00
1.42298092e+00
1.30753164e+00
1.04888263e+00
9.26877736e-01
7.41127455e-01
6.51215450e-01
5.16132057e-01
4.49747638e-01
3.36329648e-01
2.66864443e-01
1.51892786e-01
5.14296318e-02
-7.24839734e-02
-2.06556434e-01
-1.76787822e-01
-7.25546805e-02
-1.03698263e+02
-2.79712121e+01
1.85761575e-01
3.60323875e+00
3.07847394e+00
2.22710159e+00
1.57034993e+00
1.11794922e+00
8.04329949e-01
5.54814721e-01
2.99684600e-01
1.25226099e-02
-3.96932627e-02
-1.07009487e+02
-5.28201490e+01
-2.70608940e+01
-6.76900943e+00
2.50027876e+00
4.36710111e+00
5.50193708e+00
4.82995093e+00
4.42220496e+00
3.65718897e+00
3.15120540e+00
2.59507939e+00
2.21602085e+00
1.83883151e+00
1.58174298e+00
1.32378652e+00
1.15064328e+00
9.60949152e-01
8.30769198e-01
6.66553164e-01
5.35565357e-01
3.69367647e-01
2.02492144e-01
8.63744275e-02
-3.42128615e-02
-1.07561634e+02
-2.60720527e+01
3.92578733e+00
6.73170912e+00
5.31168374e+00
3.77655060e+00
2.66070268e+00
1.90784617e+00
1.40102070e+00
1.03737359e+00
7.21222313e-01
3.66221420e-01
-1.08562912e-02
-1.05072458e+02
-5.05896065e+01
-2.45508315e+01
-3.95053992e+00
5.32737780e+00
7.06733014e+00
7.85983904e+00
6.86780796e+00
6.12610181e+00
5.09740302e+00
4.34942607e+00
3.61096374e+00
3.06826220e+00
2.57031430e+00
2.20430154e+00
1.86828056e+00
1.62494483e+00
1.38835643e+00
1.21972149e+00
1.03023319e+00
8.88375253e-01
6.94553418e-01
5.20797645e-01
2.73425331e-01
1.20305178e-02
-9.98476189e+01
-2.28150804e+01
5.79487036e+00
8.16506499e+00
6.35093012e+00
4.51581120e+00
3.19255154e+00
2.29981131e+00
1.70243863e+00
1.28978638e+00
9.62248657e-01
5.97078419e-01
2.57933363e-02
-9.15778917e+01
-4.35952183e+01
-2.05154114e+01
-2.07327319e+00
6.20618605e+00
7.75488129e+00
8.31837233e+00
7.28475771e+00
6.45313352e+00
5.39536573e+00
4.59445473e+00
3.83237665e+00
3.25394605e+00
2.73874915e+00
2.34765441e+00
2.00079979e+00
1.74116061e+00
1.50100954e+00
1.32694212e+00
1.14217820e+00
1.01066032e+00
8.18891592e-01
6.68310203e-01
3.61864654e-01
4.70996514e-02
-8.09164346e+01
-1.79334347e+01
5.77820226e+00
7.66513720e+00
5.95456303e+00
4.24737567e+00
3.01327718e+00
2.17777845e+00
1.61877547e+00
1.23884959e+00
9.52603749e-01
6.40608104e-01
4.93761194e-02
-6.76779776e+01
-3.20674946e+01
-1.48490150e+01
-9.54784585e-01
5.28930502e+00
6.47894278e+00
6.85692582e+00
6.02350042e+00
5.32656353e+00
4.46880013e+00
3.80552405e+00
3.18371087e+00
2.70397372e+00
2.28200420e+00
1.95648121e+00
1.67217418e+00
1.45574180e+00
1.26027316e+00
1.11719339e+00
9.69971255e-01
8.68419434e-01
7.15009491e-01
6.07350229e-01
3.31695160e-01
5.68457706e-02
-5.26684594e+01
-1.15050772e+01
4.17218250e+00
5.41287626e+00
4.21204995e+00
3.01326208e+00
2.14327174e+00
1.55234505e+00
1.15647893e+00
8.89295375e-01
6.93734970e-01
4.85630499e-01
4.66630244e-02
-3.59407771e+01
-1.70018039e+01
-7.81406738e+00
-3.49965677e-01
3.01026824e+00
3.66144364e+00
3.85513900e+00
3.39415818e+00
3.00075599e+00
2.52274752e+00
2.14915159e+00
1.80102293e+00
1.53022647e+00
1.29331249e+00
1.10908744e+00
9.49284584e-01
8.26610177e-01
7.17035523e-01
6.36408494e-01
5.54738826e-01
4.99369528e-01
4.14203670e-01
3.58850269e-01
1.96606704e-01
3.79624581e-02
-1.82716610e+01
-3.96898957e+00
1.51326984e+00
1.94834893e+00
1.51823086e+00
1.08791545e+00
7.74861254e-01
5.61827445e-01
4.18981217e-01
3.22816992e-01
2.53334156e-01
1.80456615e-01
1.89423433e-02
1.97866819e-01
-5.49676323e-02
-5.54587821e-02
1.27038028e-01
-7.99312537e-02
2.65705095e-02
6.28598834e-03
1.69260500e-02
1.21847995e-02
8.61263896e-03
1.22890945e-02
5.81178752e-03
9.42580204e-03
3.82441945e-03
7.32213394e-03
2.47382116e-03
5.85707327e-03
1.49613857e-03
5.20876391e-03
6.75485675e-04
4.62271857e-03
1.15922411e-03
5.66992865e-03
2.08032685e-03
1.61222108e-04
SCALARS VonMises float 1
LOOKUP_TABLE default
1.08832932e+02
7.26591073e+01
3.80212161e+01
2.49936666e+01
2.76875488e+01
4.08344675e+01
5.19172712e+01
6.15416254e+01
6.97214977e+01
7.56489720e+01
8.08812189e+01
8.45092654e+01
8.77812668e+01
9.00370714e+01
9.20960289e+01
9.35142737e+01
9.48154965e+01
9.56931718e+01
9.64994720e+01
9.69902325e+01
9.74213744e+01
9.75474968e+01
9.77062182e+01
9.74156627e+01
9.70068864e+01
1.07906128e+02
3.85513127e+01
3.01451404e+01
5.31188120e+01
7.03977624e+01
8.13003210e+01
8.80575842e+01
9.22850901e+01
9.49478388e+01
9.65891994e+01
9.74916994e+01
9.76901175e+01
9.69309302e+01
1.05006238e+02
7.01967229e+01
3.91572339e+01
3.21305976e+01
3.59034081e+01
4.66157834e+01
5.62724883e+01
6.47338784e+01
7.21720214e+01
7.75491273e+01
8.23878973e+01
8.57198389e+01
8.87656211e+01
9.08457000e+01
9.27649267e+01
9.40698101e+01
9.52787305e+01
9.60769481e+01
9.68178557e+01
9.72488953e+01
9.76302839e+01
9.77140015e+01
9.78376330e+01
9.75541502e+01
9.71661344e+01
1.00312004e+02
4.08806237e+01
4.39173588e+01
6.11210893e+01
7.50235393e+01
8.41713275e+01
8.99403978e+01
9.35661344e+01
9.58345310e+01
9.71969481e+01
9.78884612e+01
9.79365272e+01
9.72241924e+01
9.38077672e+01
6.33619146e+01
4.30190012e+01
4.73059022e+01
5.29402245e+01
6.01790932e+01
6.71443330e+01
7.30278353e+01
7.86835498e+01
8.26690743e+01
8.64834797e+01
8.90294713e+01
9.14666257e+01
9.30696343e+01
9.46066017e+01
9.55998273e+01
9.65535858e+01
9.71319426e+01
9.76908306e+01
9.79570850e+01
9.81999014e+01
9.81698285e+01
9.81996004e+01
9.79414386e+01
9.76131340e+01
8.57298684e+01
4.63084573e+01
6.21472450e+01
7.36503709e+01
8.28033206e+01
8.91390014e+01
9.32376321e+01
9.58186294e+01
9.73914051e+01
9.82572677e+01
9.85748846e+01
9.83683052e+01
9.77496486e+01
7.62268747e+01
5.41875565e+01
5.04018367e+01
6.46589208e+01
7.17497294e+01
7.62607779e+01
8.07197614e+01
8.38238526e+01
8.73899792e+01
8.96409558e+01
9.21276768e+01
9.36277862e+01
9.52379743e+01
9.61841258e+01
9.71879313e+01
9.77433313e+01
9.83349456e+01
9.86016122e+01
9.88991461e+01
9.89347180e+01
9.89791485e+01
9.87996858e+01
9.87060358e+01
9.84979554e+01
9.82603420e+01
6.57758757e+01
5.54386295e+01
8.06276603e+01
8.73399561e+01
9.17978583e+01
9.50439239e+01
9.72044387e+01
9.85345818e+01
9.92573250e+01
9.95107160e+01
9.93754850e+01
9.88910157e+01
9.83854909e+01
5.48452553e+01
4.74435448e+01
6.14679908e+01
8.21048701e+01
8.98204457e+01
9.19336972e+01
9.42364963e+01
9.48308593e+01
9.64271509e+01
9.69780418e+01
9.81219488e+01
9.85427458e+01
9.92813308e+01
9.95269889e+01
9.99536604e+01
1.00032261e+02
1.00224018e+02
1.00149661e+02
1.00155992e+02
9.99463740e+01
9.97745833e+01
9.94537656e+01
9.92513285e+01
9.91112710e+01
9.89508540e+01
4.51691909e+01
6.79853963e+01
9.76984320e+01
1.00042007e+02
1.00366119e+02
1.00760579e+02
1.01064158e+02
1.01163301e+02
1.01033262e+02
1.00671868e+02
1.00103379e+02
9.93843709e+01
9.89974119e+01
3.83889966e+01
5.04739548e+01
7.54869090e+01
9.85990741e+01
1.05934757e+02
1.05623208e+02
1.06018166e+02
1.04477927e+02
1.04389760e+02
1.03479106e+02
1.03444683e+02
1.02914214e+02
1.02868299e+02
1.02481707e+02
1.02377577e+02
1.02018770e+02
1.01836231e+02
1.01451661e+02
1.01186696e+02
1.00774055e+02
1.00413239e+02
1.00001214e+02
9.97223482e+01
9.96533514e+01
9.96075558e+01
3.95817621e+01
8.28983770e+01
1.12357847e+02
1.10466002e+02
1.07362345e+02
1.05424988e+02
1.04185730e+02
1.03241937e+02
1.02380199e+02
1.01502655e+02
1.00626452e+02
9.98442334e+01
9.93864654e+01
4.70331297e+01
6.55317824e+01
9.11968683e+01
1.13310964e+02
1.19207173e+02
1.16360763e+02
1.15058901e+02
1.11790051e+02
1.10378091e+02
1.08341231e+02
1.07398167e+02
1.06133257e+02
1.05476759e+02
1.04595647e+02
1.04070578e+02
1.03367039e+02
1.02884241e+02
1.02267141e+02
1.01792971e+02
1.01252593e+02
1.00778448e+02
1.00315431e+02
1.00102172e+02
1.00059730e+02
9.98073579e+01
6.16516833e+01
9.87934910e+01
1.23742740e+02
1.17882027e+02
1.12139866e+02
1.08519657e+02
1.06176284e+02
1.04475331e+02
1.03080022e+02
1.01870296e+02
1.00871881e+02
1.00097281e+02
9.95197986e+01
7.70646976e+01
8.76520407e+01
1.07417758e+02
1.25309821e+02
1.28886330e+02
1.23565847e+02
1.20787685e+02
1.16292035e+02
1.13908269e+02
1.11174731e+02
1.09608870e+02
1.07895393e+02
1.06828251e+02
1.05635532e+02
1.04823865e+02
1.03900933e+02
1.03214582e+02
1.02472894e+02
1.01889026e+02
1.01328112e+02
1.00831840e+02
1.00441134e+02
1.00274050e+02
9.93343388e+01
9.93930953e+01
9.60529961e+01
1.14749903e+02
1.31132362e+02
1.21788656e+02
1.14400736e+02
1.09839372e+02
1.06886080e+02
1.04752177e+02
1.03065720e+02
1.01737520e+02
1.00979647e+02
1.01489038e+02
9.99734897e+01
1.14254865e+02
1.10660147e+02
1.23108407e+02
1.34005863e+02
1.33616702e+02
1.26978354e+02
1.22828461e+02
1.17888896e+02
1.14869319e+02
1.11944262e+02
1.10019639e+02
1.08187526e+02
1.06879749e+02
1.05592542e+02
1.04603738e+02
1.03615246e+02
1.02815803e+02
1.02063395e+02
1.01447001e+02
1.00955142e+02
1.00565541e+02
1.00351115e+02
1.00209132e+02
9.69468393e+01
9.39230909e+01
1.33493221e+02
1.27428143e+02
1.35215566e+02
1.24193382e+02
1.15927552e+02
1.10805330e+02
1.07480091e+02
1.05090970e+02
1.03222766e+02
1.01743918e+02
1.00712356e+02
9.98875401e+01
9.42303047e+01
1.51852788e+02
1.33080145e+02
1.32448274e+02
1.38863485e+02
1.37540935e+02
1.30936649e+02
1.26005119e+02
1.20898502e+02
1.17252726e+02
1.14105079e+02
1.11758735e+02
1.09761069e+02
1.08188478e+02
1.06800634e+02
1.05644373e+02
1.04581582e+02
1.03658322e+02
1.02790204e+02
1.02025033e+02
1.01334452e+02
1.00735492e+02
9.99716054e+01
9.92427432e+01
9.85780785e+01
9.68343482e+01
1.70293999e+02
1.37650568e+02
1.38047348e+02
1.26372547e+02
1.17581754e+02
1.12036720e+02
1.08427621e+02
1.05862613e+02
1.03856970e+02
1.02188903e+02
1.00780711e+02
9.95302804e+01
9.79311614e+01
1.88864612e+02
1.58292134e+02
1.43407440e+02
1.42508430e+02
1.38955115e+02
1.32143244e+02
1.26912107e+02
1.21776143e+02
1.18002317e+02
1.14788204e+02
1.12361536e+02
1.10313291e+02
1.08692339e+02
1.07277709e+02
1.06095349e+02
1.05014819e+02
1.04065679e+02
1.03167433e+02
1.02351411e+02
1.01575410e+02
1.00859985e+02
1.00213778e+02
9.95666024e+01
9.90827048e+01
9.86465867e+01
2.06653917e+02
1.49325244e+02
1.38590672e+02
1.26197207e+02
1.17483146e+02
1.12022002e+02
1.08484243e+02
1.05983451e+02
1.04022525e+02
1.02347597e+02
1.00864531e+02
9.96008488e+01
9.87637126e+01
2.23863362e+02
1.83366580e+02
1.55340395e+02
1.45448589e+02
1.38449741e+02
1.31023639e+02
1.25562533e+02
1.20585683e+02
1.16969313e+02
1.13936695e+02
1.11667214e+02
1.09758551e+02
1.08257468e+02
1.06946391e+02
1.05854036e+02
1.04849576e+02
1.03964571e+02
1.03112981e+02
1.02330277e+02
1.01560179e+02
1.00842889e+02
1.00173108e+02
9.95750767e+01
9.91396210e+01
9.88885275e+01
2.39947819e+02
1.61390709e+02
1.37574087e+02
1.24010328e+02
1.15731105e+02
1.10783421e+02
1.07646232e+02
1.05439613e+02
1.03692580e+02
1.02156287e+02
1.00724352e+02
9.94565362e+01
9.87188013e+01
2.54963197e+02
2.06515442e+02
1.67166465e+02
1.48007867e+02
1.36768113e+02
1.28229885e+02
1.22458862e+02
1.17749282e+02
1.14454190e+02
1.11801986e+02
1.09860467e+02
1.08251428e+02
1.07000819e+02
1.05907079e+02
1.04997117e+02
1.04150653e+02
1.03398231e+02
1.02658625e+02
1.01966494e+02
1.01264639e+02
1.00592621e+02
9.99270087e+01
9.93151689e+01
9.88281515e+01
9.85206980e+01
2.68564247e+02
1.72806361e+02
1.35720116e+02
1.20451499e+02
1.12787473e+02
1.08642278e+02
1.06136434e+02
1.04388799e+02
1.02975043e+02
1.01677374e+02
1.00388110e+02
9.91181606e+01
9.81623028e+01
2.80673940e+02
2.26164589e+02
1.77812692e+02
1.50248127e+02
1.34600139e+02
1.24621300e+02
1.18413925e+02
1.13998782e+02
1.11086053e+02
1.08917093e+02
1.07394560e+02
1.06174365e+02
1.05247563e+02
1.04435642e+02
1.03760462e+02
1.03117329e+02
1.02535487e+02
1.01944294e+02
1.01375033e+02
1.00773118e+02
1.00173881e+02
9.95360041e+01
9.89065005e+01
9.82942085e+01
9.77714260e+01
2.91181885e+02
1.82496108e+02
1.33674249e+02
1.16434474e+02
1.09396714e+02
1.06145043e+02
1.04351997e+02
1.03121532e+02
1.02081521e+02
1.01055983e+02
9.99444149e+01
9.86910683e+01
9.73555668e+01
2.99859251e+02
2.41086016e+02
1.86252040e+02
1.52062016e+02
1.32556327e+02
1.21127031e+02
1.14433048e+02
1.10265782e+02
1.07710032e+02
1.06012031e+02
1.04901927e+02
1.04067456e+02
1.03461318e+02
1.02928677e+02
1.02485223e+02
1.02042414e+02
1.01628138e+02
1.01183679e+02
1.00736099e+02
1.00237795e+02
9.97144839e+01
9.91164253e+01
9.84734174e+01
9.77278598e+01
9.69279810e+01
3.06813731e+02
1.89524368e+02
1.31979785e+02
1.12973436e+02
1.06433457e+02
1.03950883e+02
1.02776945e+02
1.01994310e+02
1.01276195e+02
1.00485557e+02
9.95330476e+01
9.83048721e+01
9.65970818e+01
3.11700112e+02
2.50394863e+02
1.91664488e+02
1.53262482e+02
1.31121781e+02
1.18608642e+02
1.11524005e+02
1.07516713e+02
1.05213946e+02
1.03860321e+02
1.03053139e+02
1.02503345e+02
1.02133301e+02
1.01806219e+02
1.01532781e+02
1.01236629e+02
1.00944695e+02
1.00607481e+02
1.00248810e+02
9.98274968e+01
9.93609744e+01
9.87969863e+01
9.81469293e+01
9.73043509e+01
9.62792984e+01
3.14796263e+02
1.93214578e+02
1.31029703e+02
1.10971155e+02
1.04704736e+02
1.02668651e+02
1.01855460e+02
1.01332978e+02
1.00801059e+02
1.00146095e+02
9.92867479e+01
9.80769042e+01
9.61434141e+01
3.15702425e+02
2.53557344e+02
1.93528126e+02
1.53684389e+02
1.30607960e+02
1.17692125e+02
1.10456964e+02
1.06504411e+02
1.04293170e+02
1.03066203e+02
1.02370623e+02
1.01925889e+02
1.01642852e+02
1.01391469e+02
1.01180529e+02
1.00938209e+02
1.00691111e+02
1.00393191e+02
1.00067065e+02
9.96741380e+01
9.92285711e+01
9.86779292e+01
9.80258019e+01
9.71481704e+01
9.60371258e+01
