# vtk DataFile Version 2.0
MEF - Elasticidade Plana 2D
ASCII
DATASET UNSTRUCTURED_GRID
POINTS      121 float
  0.00000000E+00  0.10000000E+01  0.00000000E+00
  0.10000000E+00  0.10000000E+01  0.00000000E+00
  0.20000000E+00  0.10000000E+01  0.00000000E+00
  0.30000000E+00  0.10000000E+01  0.00000000E+00
  0.40000000E+00  0.10000000E+01  0.00000000E+00
  0.50000000E+00  0.10000000E+01  0.00000000E+00
  0.60000000E+00  0.10000000E+01  0.00000000E+00
  0.70000000E+00  0.10000000E+01  0.00000000E+00
  0.80000000E+00  0.10000000E+01  0.00000000E+00
  0.90000000E+00  0.10000000E+01  0.00000000E+00
  0.10000000E+01  0.10000000E+01  0.00000000E+00
  0.00000000E+00  0.90000000E+00  0.00000000E+00
  0.10000000E+00  0.90000000E+00  0.00000000E+00
  0.20000000E+00  0.90000000E+00  0.00000000E+00
  0.30000000E+00  0.90000000E+00  0.00000000E+00
  0.40000000E+00  0.90000000E+00  0.00000000E+00
  0.50000000E+00  0.90000000E+00  0.00000000E+00
  0.60000000E+00  0.90000000E+00  0.00000000E+00
  0.70000000E+00  0.90000000E+00  0.00000000E+00
  0.80000000E+00  0.90000000E+00  0.00000000E+00
  0.90000000E+00  0.90000000E+00  0.00000000E+00
  0.10000000E+01  0.90000000E+00  0.00000000E+00
  0.00000000E+00  0.80000000E+00  0.00000000E+00
  0.10000000E+00  0.80000000E+00  0.00000000E+00
  0.20000000E+00  0.80000000E+00  0.00000000E+00
  0.30000000E+00  0.80000000E+00  0.00000000E+00
  0.40000000E+00  0.80000000E+00  0.00000000E+00
  0.50000000E+00  0.80000000E+00  0.00000000E+00
  0.60000000E+00  0.80000000E+00  0.00000000E+00
  0.70000000E+00  0.80000000E+00  0.00000000E+00
  0.80000000E+00  0.80000000E+00  0.00000000E+00
  0.90000000E+00  0.80000000E+00  0.00000000E+00
  0.10000000E+01  0.80000000E+00  0.00000000E+00
  0.00000000E+00  0.70000000E+00  0.00000000E+00
  0.10000000E+00  0.70000000E+00  0.00000000E+00
  0.20000000E+00  0.70000000E+00  0.00000000E+00
  0.30000000E+00  0.70000000E+00  0.00000000E+00
  0.40000000E+00  0.70000000E+00  0.00000000E+00
  0.50000000E+00  0.70000000E+00  0.00000000E+00
  0.60000000E+00  0.70000000E+00  0.00000000E+00
  0.70000000E+00  0.70000000E+00  0.00000000E+00
  0.80000000E+00  0.70000000E+00  0.00000000E+00
  0.90000000E+00  0.70000000E+00  0.00000000E+00
  0.10000000E+01  0.70000000E+00  0.00000000E+00
  0.00000000E+00  0.60000000E+00  0.00000000E+00
  0.10000000E+00  0.60000000E+00  0.00000000E+00
  0.20000000E+00  0.60000000E+00  0.00000000E+00
  0.30000000E+00  0.60000000E+00  0.00000000E+00
  0.40000000E+00  0.60000000E+00  0.00000000E+00
  0.50000000E+00  0.60000000E+00  0.00000000E+00
  0.60000000E+00  0.60000000E+00  0.00000000E+00
  0.70000000E+00  0.60000000E+00  0.00000000E+00
  0.80000000E+00  0.60000000E+00  0.00000000E+00
  0.90000000E+00  0.60000000E+00  0.00000000E+00
  0.10000000E+01  0.60000000E+00  0.00000000E+00
  0.00000000E+00  0.50000000E+00  0.00000000E+00
  0.10000000E+00  0.50000000E+00  0.00000000E+00
  0.20000000E+00  0.50000000E+00  0.00000000E+00
  0.30000000E+00  0.50000000E+00  0.00000000E+00
  0.40000000E+00  0.50000000E+00  0.00000000E+00
  0.50000000E+00  0.50000000E+00  0.00000000E+00
  0.60000000E+00  0.50000000E+00  0.00000000E+00
  0.70000000E+00  0.50000000E+00  0.00000000E+00
  0.80000000E+00  0.50000000E+00  0.00000000E+00
  0.90000000E+00  0.50000000E+00  0.00000000E+00
  0.10000000E+01  0.50000000E+00  0.00000000E+00
  0.00000000E+00  0.40000000E+00  0.00000000E+00
  0.10000000E+00  0.40000000E+00  0.00000000E+00
  0.20000000E+00  0.40000000E+00  0.00000000E+00
  0.30000000E+00  0.40000000E+00  0.00000000E+00
  0.40000000E+00  0.40000000E+00  0.00000000E+00
  0.50000000E+00  0.40000000E+00  0.00000000E+00
  0.60000000E+00  0.40000000E+00  0.00000000E+00
  0.70000000E+00  0.40000000E+00  0.00000000E+00
  0.80000000E+00  0.40000000E+00  0.00000000E+00
  0.90000000E+00  0.40000000E+00  0.00000000E+00
  0.10000000E+01  0.40000000E+00  0.00000000E+00
  0.00000000E+00  0.30000000E+00  0.00000000E+00
  0.10000000E+00  0.30000000E+00  0.00000000E+00
  0.20000000E+00  0.30000000E+00  0.00000000E+00
  0.30000000E+00  0.30000000E+00  0.00000000E+00
  0.40000000E+00  0.30000000E+00  0.00000000E+00
  0.50000000E+00  0.30000000E+00  0.00000000E+00
  0.60000000E+00  0.30000000E+00  0.00000000E+00
  0.70000000E+00  0.30000000E+00  0.00000000E+00
  0.80000000E+00  0.30000000E+00  0.00000000E+00
  0.90000000E+00  0.30000000E+00  0.00000000E+00
  0.10000000E+01  0.30000000E+00  0.00000000E+00
  0.00000000E+00  0.20000000E+00  0.00000000E+00
  0.10000000E+00  0.20000000E+00  0.00000000E+00
  0.20000000E+00  0.20000000E+00  0.00000000E+00
  0.30000000E+00  0.20000000E+00  0.00000000E+00
  0.40000000E+00  0.20000000E+00  0.00000000E+00
  0.50000000E+00  0.20000000E+00  0.00000000E+00
  0.60000000E+00  0.20000000E+00  0.00000000E+00
  0.70000000E+00  0.20000000E+00  0.00000000E+00
  0.80000000E+00  0.20000000E+00  0.00000000E+00
  0.90000000E+00  0.20000000E+00  0.00000000E+00
  0.10000000E+01  0.20000000E+00  0.00000000E+00
  0.00000000E+00  0.10000000E+00  0.00000000E+00
  0.10000000E+00  0.10000000E+00  0.00000000E+00
  0.20000000E+00  0.10000000E+00  0.00000000E+00
  0.30000000E+00  0.10000000E+00  0.00000000E+00
  0.40000000E+00  0.10000000E+00  0.00000000E+00
  0.50000000E+00  0.10000000E+00  0.00000000E+00
  0.60000000E+00  0.10000000E+00  0.00000000E+00
  0.70000000E+00  0.10000000E+00  0.00000000E+00
  0.80000000E+00  0.10000000E+00  0.00000000E+00
  0.90000000E+00  0.10000000E+00  0.00000000E+00
  0.10000000E+01  0.10000000E+00  0.00000000E+00
  0.00000000E+00  0.00000000E+00  0.00000000E+00
  0.10000000E+00  0.00000000E+00  0.00000000E+00
  0.20000000E+00  0.00000000E+00  0.00000000E+00
  0.30000000E+00  0.00000000E+00  0.00000000E+00
  0.40000000E+00  0.00000000E+00  0.00000000E+00
  0.50000000E+00  0.00000000E+00  0.00000000E+00
  0.60000000E+00  0.00000000E+00  0.00000000E+00
  0.70000000E+00  0.00000000E+00  0.00000000E+00
  0.80000000E+00  0.00000000E+00  0.00000000E+00
  0.90000000E+00  0.00000000E+00  0.00000000E+00
  0.10000000E+01  0.00000000E+00  0.00000000E+00
CELLS      100     500
       4       0      11      12       1
       4       1      12      13       2
       4       2      13      14       3
       4       3      14      15       4
       4       4      15      16       5
       4       5      16      17       6
       4       6      17      18       7
       4       7      18      19       8
       4       8      19      20       9
       4       9      20      21      10
       4      11      22      23      12
       4      12      23      24      13
       4      13      24      25      14
       4      14      25      26      15
       4      15      26      27      16
       4      16      27      28      17
       4      17      28      29      18
       4      18      29      30      19
       4      19      30      31      20
       4      20      31      32      21
       4      22      33      34      23
       4      23      34      35      24
       4      24      35      36      25
       4      25      36      37      26
       4      26      37      38      27
       4      27      38      39      28
       4      28      39      40      29
       4      29      40      41      30
       4      30      41      42      31
       4      31      42      43      32
       4      33      44      45      34
       4      34      45      46      35
       4      35      46      47      36
       4      36      47      48      37
       4      37      48      49      38
       4      38      49      50      39
       4      39      50      51      40
       4      40      51      52      41
       4      41      52      53      42
       4      42      53      54      43
       4      44      55      56      45
       4      45      56      57      46
       4      46      57      58      47
       4      47      58      59      48
       4      48      59      60      49
       4      49      60      61      50
       4      50      61      62      51
       4      51      62      63      52
       4      52      63      64      53
       4      53      64      65      54
       4      55      66      67      56
       4      56      67      68      57
       4      57      68      69      58
       4      58      69      70      59
       4      59      70      71      60
       4      60      71      72      61
       4      61      72      73      62
       4      62      73      74      63
       4      63      74      75      64
       4      64      75      76      65
       4      66      77      78      67
       4      67      78      79      68
       4      68      79      80      69
       4      69      80      81      70
       4      70      81      82      71
       4      71      82      83      72
       4      72      83      84      73
       4      73      84      85      74
       4      74      85      86      75
       4      75      86      87      76
       4      77      88      89      78
       4      78      89      90      79
       4      79      90      91      80
       4      80      91      92      81
       4      81      92      93      82
       4      82      93      94      83
       4      83      94      95      84
       4      84      95      96      85
       4      85      96      97      86
       4      86      97      98      87
       4      88      99     100      89
       4      89     100     101      90
       4      90     101     102      91
       4      91     102     103      92
       4      92     103     104      93
       4      93     104     105      94
       4      94     105     106      95
       4      95     106     107      96
       4      96     107     108      97
       4      97     108     109      98
       4      99     110     111     100
       4     100     111     112     101
       4     101     112     113     102
       4     102     113     114     103
       4     103     114     115     104
       4     104     115     116     105
       4     105     116     117     106
       4     106     117     118     107
       4     107     118     119     108
       4     108     119     120     109
CELL_TYPES      100
 9
 9
 9
 9
 9
 9
 9
 9
 9
 9
 9
 9
 9
 9
 9
 9
 9
 9
 9
 9
 9
 9
 9
 9
 9
 9
 9
 9
 9
 9
 9
 9
 9
 9
 9
 9
 9
 9
 9
 9
 9
 9
 9
 9
 9
 9
 9
 9
 9
 9
 9
 9
 9
 9
 9
 9
 9
 9
 9
 9
 9
 9
 9
 9
 9
 9
 9
 9
 9
 9
 9
 9
 9
 9
 9
 9
 9
 9
 9
 9
 9
 9
 9
 9
 9
 9
 9
 9
 9
 9
 9
 9
 9
 9
 9
 9
 9
 9
 9
 9
POINT_DATA      121
VECTORS Deslocamentos float
  0.00000000E+00  0.00000000E+00  0.00000000E+00
  0.40724723E+00 -0.56379094E+00  0.00000000E+00
  0.65066721E+00 -0.94022490E+00  0.00000000E+00
  0.81689887E+00 -0.12941323E+01  0.00000000E+00
  0.94161240E+00 -0.16248499E+01  0.00000000E+00
  0.10357783E+01 -0.19401491E+01  0.00000000E+00
  0.11065466E+01 -0.22402303E+01  0.00000000E+00
  0.11598184E+01 -0.25242833E+01  0.00000000E+00
  0.12017397E+01 -0.27917885E+01  0.00000000E+00
  0.12389251E+01 -0.30446352E+01  0.00000000E+00
  0.12768552E+01 -0.32897652E+01  0.00000000E+00
  0.00000000E+00  0.00000000E+00  0.00000000E+00
  0.15870202E+00 -0.38159327E+00  0.00000000E+00
  0.36230988E+00 -0.79395390E+00  0.00000000E+00
  0.52615222E+00 -0.11602532E+01  0.00000000E+00
  0.65491938E+00 -0.15045928E+01  0.00000000E+00
  0.75588850E+00 -0.18303992E+01  0.00000000E+00
  0.83522328E+00 -0.21388901E+01  0.00000000E+00
  0.89803889E+00 -0.24291606E+01  0.00000000E+00
  0.94889173E+00 -0.27005650E+01  0.00000000E+00
  0.99204878E+00 -0.29546002E+01  0.00000000E+00
  0.10320927E+01 -0.31977066E+01  0.00000000E+00
  0.00000000E+00  0.00000000E+00  0.00000000E+00
  0.91073544E-01 -0.31256754E+00  0.00000000E+00
  0.20492173E+00 -0.67632253E+00  0.00000000E+00
  0.32793232E+00 -0.10422390E+01  0.00000000E+00
  0.43692684E+00 -0.13917863E+01  0.00000000E+00
  0.52840400E+00 -0.17249667E+01  0.00000000E+00
  0.60343175E+00 -0.20403646E+01  0.00000000E+00
  0.66449090E+00 -0.23364695E+01  0.00000000E+00
  0.71435171E+00 -0.26120919E+01  0.00000000E+00
  0.75619204E+00 -0.28674629E+01  0.00000000E+00
  0.79503689E+00 -0.31051002E+01  0.00000000E+00
  0.00000000E+00  0.00000000E+00  0.00000000E+00
  0.49606434E-01 -0.27758462E+00  0.00000000E+00
  0.11672732E+00 -0.60431251E+00  0.00000000E+00
  0.19462125E+00 -0.95100588E+00  0.00000000E+00
  0.27320565E+00 -0.12972103E+01  0.00000000E+00
  0.34441827E+00 -0.16325770E+01  0.00000000E+00
  0.40582776E+00 -0.19522728E+01  0.00000000E+00
  0.45745906E+00 -0.22528947E+01  0.00000000E+00
  0.50051500E+00 -0.25320022E+01  0.00000000E+00
  0.53722382E+00 -0.27877260E+01  0.00000000E+00
  0.57194025E+00 -0.30178344E+01  0.00000000E+00
  0.00000000E+00  0.00000000E+00  0.00000000E+00
  0.21112924E-01 -0.25559663E+00  0.00000000E+00
  0.54454991E-01 -0.55751398E+00  0.00000000E+00
  0.97575248E-01 -0.88659030E+00  0.00000000E+00
  0.14487246E+00 -0.12245511E+01  0.00000000E+00
  0.19135491E+00 -0.15582855E+01  0.00000000E+00
  0.23397130E+00 -0.18794022E+01  0.00000000E+00
  0.27168650E+00 -0.21825261E+01  0.00000000E+00
  0.30465148E+00 -0.24636940E+01  0.00000000E+00
  0.33400966E+00 -0.27190259E+01  0.00000000E+00
  0.36241183E+00 -0.29426134E+01  0.00000000E+00
  0.00000000E+00  0.00000000E+00  0.00000000E+00
 -0.27963537E-02 -0.24009940E+00  0.00000000E+00
  0.32656028E-02 -0.52619716E+00  0.00000000E+00
  0.16528333E-01 -0.84292918E+00  0.00000000E+00
  0.34669017E-01 -0.11734481E+01  0.00000000E+00
  0.55423683E-01 -0.15038093E+01  0.00000000E+00
  0.77130229E-01 -0.18240920E+01  0.00000000E+00
  0.98814585E-01 -0.21275466E+01  0.00000000E+00
  0.12007335E+00 -0.24091823E+01  0.00000000E+00
  0.14091209E+00 -0.26639836E+01  0.00000000E+00
  0.16171601E+00 -0.28843197E+01  0.00000000E+00
  0.00000000E+00  0.00000000E+00  0.00000000E+00
 -0.26171497E-01 -0.22876615E+00  0.00000000E+00
 -0.46358856E-01 -0.50645684E+00  0.00000000E+00
 -0.61834369E-01 -0.81682543E+00  0.00000000E+00
 -0.72208358E-01 -0.11424556E+01  0.00000000E+00
 -0.77088967E-01 -0.14692198E+01  0.00000000E+00
 -0.76600626E-01 -0.17869875E+01  0.00000000E+00
 -0.71371353E-01 -0.20887474E+01  0.00000000E+00
 -0.62188751E-01 -0.23692999E+01  0.00000000E+00
 -0.50132203E-01 -0.26237651E+01  0.00000000E+00
 -0.37167753E-01 -0.28451032E+01  0.00000000E+00
  0.00000000E+00  0.00000000E+00  0.00000000E+00
 -0.52804406E-01 -0.22174587E+00  0.00000000E+00
 -0.10310187E+00 -0.49862204E+00  0.00000000E+00
 -0.15006283E+00 -0.80824269E+00  0.00000000E+00
 -0.19005330E+00 -0.11311151E+01  0.00000000E+00
 -0.21995274E+00 -0.14538461E+01  0.00000000E+00
 -0.23949658E+00 -0.17675712E+01  0.00000000E+00
 -0.24959501E+00 -0.20657688E+01  0.00000000E+00
 -0.25165372E+00 -0.23437343E+01  0.00000000E+00
 -0.24772880E+00 -0.25978574E+01  0.00000000E+00
 -0.24174722E+00 -0.28240239E+01  0.00000000E+00
  0.00000000E+00  0.00000000E+00  0.00000000E+00
 -0.89150294E-01 -0.22227864E+00  0.00000000E+00
 -0.17910715E+00 -0.50776231E+00  0.00000000E+00
 -0.26514560E+00 -0.82012447E+00  0.00000000E+00
 -0.33513196E+00 -0.11390380E+01  0.00000000E+00
 -0.38752755E+00 -0.14561006E+01  0.00000000E+00
 -0.42364106E+00 -0.17639885E+01  0.00000000E+00
 -0.44580514E+00 -0.20569720E+01  0.00000000E+00
 -0.45660941E+00 -0.23309764E+01  0.00000000E+00
 -0.45904499E+00 -0.25841360E+01  0.00000000E+00
 -0.45811292E+00 -0.28170191E+01  0.00000000E+00
  0.00000000E+00  0.00000000E+00  0.00000000E+00
 -0.14556844E+00 -0.24304849E+00  0.00000000E+00
 -0.30490725E+00 -0.54683477E+00  0.00000000E+00
 -0.43139247E+00 -0.85325002E+00  0.00000000E+00
 -0.52660532E+00 -0.11639323E+01  0.00000000E+00
 -0.59477214E+00 -0.14722301E+01  0.00000000E+00
 -0.64042513E+00 -0.17723141E+01  0.00000000E+00
 -0.66807869E+00 -0.20588040E+01  0.00000000E+00
 -0.68223436E+00 -0.23279821E+01  0.00000000E+00
 -0.68735640E+00 -0.25791629E+01  0.00000000E+00
 -0.68846972E+00 -0.28174091E+01  0.00000000E+00
  0.00000000E+00  0.00000000E+00  0.00000000E+00
 -0.31652453E+00 -0.33341960E+00  0.00000000E+00
 -0.52818270E+00 -0.61021642E+00  0.00000000E+00
 -0.67753062E+00 -0.90262017E+00  0.00000000E+00
 -0.78438141E+00 -0.11989874E+01  0.00000000E+00
 -0.85652469E+00 -0.14953754E+01  0.00000000E+00
 -0.90039958E+00 -0.17856459E+01  0.00000000E+00
 -0.92229813E+00 -0.20646423E+01  0.00000000E+00
 -0.92914947E+00 -0.23288656E+01  0.00000000E+00
 -0.92864884E+00 -0.25780982E+01  0.00000000E+00
 -0.92773643E+00 -0.28183146E+01  0.00000000E+00
CELL_DATA      100
SCALARS Tensao_X float 1
LOOKUP_TABLE default
  0.32837036E+01
  0.20613355E+01
  0.14135267E+01
  0.97303493E+00
  0.64992731E+00
  0.40139503E+00
  0.21463773E+00
  0.86904520E-01
  0.17905243E-01
 -0.44502657E-03
  0.14820690E+01
  0.15982895E+01
  0.12509939E+01
  0.93449009E+00
  0.66577607E+00
  0.45063826E+00
  0.28218598E+00
  0.15529107E+00
  0.65529448E-01
  0.12491098E-01
  0.84597222E+00
  0.90942759E+00
  0.88134832E+00
  0.72656266E+00
  0.55570335E+00
  0.39770763E+00
  0.26330124E+00
  0.15329244E+00
  0.67658122E-01
  0.13385127E-01
  0.41256876E+00
  0.47777026E+00
  0.49370862E+00
  0.45187189E+00
  0.36828180E+00
  0.27566813E+00
  0.18818074E+00
  0.11164988E+00
  0.49465511E-01
  0.96797630E-02
  0.78581085E-01
  0.13017890E+00
  0.16321837E+00
  0.16708929E+00
  0.14800224E+00
  0.11625132E+00
  0.81661415E-01
  0.49127540E-01
  0.21842575E-01
  0.42643095E-02
 -0.22766801E+00
 -0.18471016E+00
 -0.14713627E+00
 -0.11242485E+00
 -0.82334233E-01
 -0.57420806E-01
 -0.37803577E-01
 -0.22072334E-01
 -0.96496671E-02
 -0.18525984E-02
 -0.55181937E+00
 -0.51726822E+00
 -0.46760381E+00
 -0.39646219E+00
 -0.31115648E+00
 -0.22861394E+00
 -0.15506615E+00
 -0.92082291E-01
 -0.40913267E-01
 -0.80179484E-02
 -0.95392751E+00
 -0.91611646E+00
 -0.83454788E+00
 -0.68309987E+00
 -0.52455130E+00
 -0.37844849E+00
 -0.25286165E+00
 -0.14875461E+00
 -0.66357821E-01
 -0.13252857E-01
 -0.15199246E+01
 -0.15053295E+01
 -0.12221843E+01
 -0.94455272E+00
 -0.69313987E+00
 -0.47980796E+00
 -0.30601009E+00
 -0.17135230E+00
 -0.73851703E-01
 -0.14440245E-01
 -0.28495553E+01
 -0.20535774E+01
 -0.15313237E+01
 -0.11165092E+01
 -0.77650889E+00
 -0.49736904E+00
 -0.27822559E+00
 -0.12200377E+00
 -0.31628453E-01
 -0.18115013E-02
SCALARS Tensao_Y float 1
LOOKUP_TABLE default
  0.40621546E+00
 -0.92134341E+00
 -0.93348885E+00
 -0.97933759E+00
 -0.98523435E+00
 -0.98780919E+00
 -0.98747869E+00
 -0.98663510E+00
 -0.98825246E+00
 -0.10007055E+01
  0.25591011E+00
 -0.34060729E+00
 -0.75861581E+00
 -0.86774988E+00
 -0.91378248E+00
 -0.92751746E+00
 -0.92970399E+00
 -0.92885484E+00
 -0.93680802E+00
 -0.98224899E+00
  0.17034572E+00
 -0.19811857E+00
 -0.51921954E+00
 -0.70954509E+00
 -0.78912537E+00
 -0.82121085E+00
 -0.83037981E+00
 -0.83355797E+00
 -0.84917153E+00
 -0.91186129E+00
  0.56002004E-01
 -0.17318930E+00
 -0.39947715E+00
 -0.55949902E+00
 -0.64958701E+00
 -0.69043957E+00
 -0.70637958E+00
 -0.71411071E+00
 -0.73159338E+00
 -0.78662665E+00
 -0.51471961E-01
 -0.20142902E+00
 -0.34201596E+00
 -0.44907230E+00
 -0.51667575E+00
 -0.55340002E+00
 -0.57098947E+00
 -0.58054533E+00
 -0.59258413E+00
 -0.62089730E+00
 -0.15984264E+00
 -0.24989546E+00
 -0.31494895E+00
 -0.36189767E+00
 -0.39562675E+00
 -0.41853172E+00
 -0.43325488E+00
 -0.44177610E+00
 -0.44425027E+00
 -0.43725057E+00
 -0.27506695E+00
 -0.30330765E+00
 -0.29060785E+00
 -0.27938038E+00
 -0.28013369E+00
 -0.28913120E+00
 -0.29939602E+00
 -0.30619059E+00
 -0.30035493E+00
 -0.26160637E+00
 -0.40589881E+00
 -0.33947280E+00
 -0.24215763E+00
 -0.18394050E+00
 -0.16888855E+00
 -0.16949060E+00
 -0.17638871E+00
 -0.18218396E+00
 -0.17392903E+00
 -0.11955995E+00
 -0.53727619E+00
 -0.31633732E+00
 -0.12710089E+00
 -0.86017919E-01
 -0.71654435E-01
 -0.71263339E-01
 -0.75335916E-01
 -0.79822774E-01
 -0.75427960E-01
 -0.31370357E-01
 -0.72469337E+00
 -0.35309195E-01
 -0.36766233E-01
 -0.14628700E-01
 -0.13006598E-01
 -0.12734351E-01
 -0.13909665E-01
 -0.15354856E-01
 -0.14550783E-01
 -0.16511641E-02
SCALARS Tensao_XY float 1
LOOKUP_TABLE default
 -0.13400750E+01
 -0.48440776E+00
 -0.27135140E+00
 -0.18772589E+00
 -0.14331308E+00
 -0.11030587E+00
 -0.79270453E-01
 -0.46696540E-01
 -0.13764704E-01
  0.65427125E-02
 -0.12048699E+01
 -0.10598058E+01
 -0.72424564E+00
 -0.53398922E+00
 -0.41059586E+00
 -0.31656310E+00
 -0.23276112E+00
 -0.15180539E+00
 -0.75018193E-01
 -0.15059954E-01
 -0.10551636E+01
 -0.10785026E+01
 -0.94443144E+00
 -0.76676821E+00
 -0.61700045E+00
 -0.48750753E+00
 -0.36940564E+00
 -0.25742576E+00
 -0.15055746E+00
 -0.49386164E-01
 -0.97055334E+00
 -0.10343835E+01
 -0.99317570E+00
 -0.88228075E+00
 -0.74558574E+00
 -0.60748587E+00
 -0.47330152E+00
 -0.34353737E+00
 -0.21534215E+00
 -0.78756318E-01
 -0.90728221E+00
 -0.98637779E+00
 -0.98763853E+00
 -0.91774862E+00
 -0.80377115E+00
 -0.67043675E+00
 -0.53243375E+00
 -0.39491067E+00
 -0.25472598E+00
 -0.96404234E-01
 -0.85671232E+00
 -0.94382471E+00
 -0.95983354E+00
 -0.90559413E+00
 -0.80333739E+00
 -0.67655173E+00
 -0.54095716E+00
 -0.40334644E+00
 -0.26146175E+00
 -0.99511785E-01
 -0.81515214E+00
 -0.90613644E+00
 -0.91349569E+00
 -0.85082536E+00
 -0.74766633E+00
 -0.62640987E+00
 -0.49776494E+00
 -0.36697973E+00
 -0.23370518E+00
 -0.87170289E-01
 -0.78399734E+00
 -0.86540130E+00
 -0.82864375E+00
 -0.73389332E+00
 -0.62911555E+00
 -0.51902646E+00
 -0.40543544E+00
 -0.29000799E+00
 -0.17502080E+00
 -0.60322394E-01
 -0.78636341E+00
 -0.78279176E+00
 -0.62832776E+00
 -0.52283754E+00
 -0.43585080E+00
 -0.35373705E+00
 -0.27003049E+00
 -0.18323855E+00
 -0.96930882E-01
 -0.23963489E-01
 -0.77983078E+00
 -0.35836838E+00
 -0.24885655E+00
 -0.19833704E+00
 -0.16376370E+00
 -0.13197586E+00
 -0.98639476E-01
 -0.62051545E-01
 -0.23472914E-01
  0.40319001E-02
