# vtk DataFile Version 2.0
MEF - Elasticidade Plana 2D
ASCII
DATASET UNSTRUCTURED_GRID
POINTS       55 float
  0.00000000E+00  0.00000000E+00  0.00000000E+00
  0.20000000E+03  0.00000000E+00  0.00000000E+00
  0.40000000E+03  0.00000000E+00  0.00000000E+00
  0.60000000E+03  0.00000000E+00  0.00000000E+00
  0.80000000E+03  0.00000000E+00  0.00000000E+00
  0.10000000E+04  0.00000000E+00  0.00000000E+00
  0.12000000E+04  0.00000000E+00  0.00000000E+00
  0.14000000E+04  0.00000000E+00  0.00000000E+00
  0.16000000E+04  0.00000000E+00  0.00000000E+00
  0.18000000E+04  0.00000000E+00  0.00000000E+00
  0.20000000E+04  0.00000000E+00  0.00000000E+00
  0.00000000E+00  0.12500000E+03  0.00000000E+00
  0.20000000E+03  0.12500000E+03  0.00000000E+00
  0.40000000E+03  0.12500000E+03  0.00000000E+00
  0.60000000E+03  0.12500000E+03  0.00000000E+00
  0.80000000E+03  0.12500000E+03  0.00000000E+00
  0.10000000E+04  0.12500000E+03  0.00000000E+00
  0.12000000E+04  0.12500000E+03  0.00000000E+00
  0.14000000E+04  0.12500000E+03  0.00000000E+00
  0.16000000E+04  0.12500000E+03  0.00000000E+00
  0.18000000E+04  0.12500000E+03  0.00000000E+00
  0.20000000E+04  0.12500000E+03  0.00000000E+00
  0.00000000E+00  0.25000000E+03  0.00000000E+00
  0.20000000E+03  0.25000000E+03  0.00000000E+00
  0.40000000E+03  0.25000000E+03  0.00000000E+00
  0.60000000E+03  0.25000000E+03  0.00000000E+00
  0.80000000E+03  0.25000000E+03  0.00000000E+00
  0.10000000E+04  0.25000000E+03  0.00000000E+00
  0.12000000E+04  0.25000000E+03  0.00000000E+00
  0.14000000E+04  0.25000000E+03  0.00000000E+00
  0.16000000E+04  0.25000000E+03  0.00000000E+00
  0.18000000E+04  0.25000000E+03  0.00000000E+00
  0.20000000E+04  0.25000000E+03  0.00000000E+00
  0.00000000E+00  0.37500000E+03  0.00000000E+00
  0.20000000E+03  0.37500000E+03  0.00000000E+00
  0.40000000E+03  0.37500000E+03  0.00000000E+00
  0.60000000E+03  0.37500000E+03  0.00000000E+00
  0.80000000E+03  0.37500000E+03  0.00000000E+00
  0.10000000E+04  0.37500000E+03  0.00000000E+00
  0.12000000E+04  0.37500000E+03  0.00000000E+00
  0.14000000E+04  0.37500000E+03  0.00000000E+00
  0.16000000E+04  0.37500000E+03  0.00000000E+00
  0.18000000E+04  0.37500000E+03  0.00000000E+00
  0.20000000E+04  0.37500000E+03  0.00000000E+00
  0.00000000E+00  0.50000000E+03  0.00000000E+00
  0.20000000E+03  0.50000000E+03  0.00000000E+00
  0.40000000E+03  0.50000000E+03  0.00000000E+00
  0.60000000E+03  0.50000000E+03  0.00000000E+00
  0.80000000E+03  0.50000000E+03  0.00000000E+00
  0.10000000E+04  0.50000000E+03  0.00000000E+00
  0.12000000E+04  0.50000000E+03  0.00000000E+00
  0.14000000E+04  0.50000000E+03  0.00000000E+00
  0.16000000E+04  0.50000000E+03  0.00000000E+00
  0.18000000E+04  0.50000000E+03  0.00000000E+00
  0.20000000E+04  0.50000000E+03  0.00000000E+00
CELLS       80     320
       3       0       1      12
       3       0      12      11
       3       1       2      13
       3       1      13      12
       3       2       3      14
       3       2      14      13
       3       3       4      15
       3       3      15      14
       3       4       5      16
       3       4      16      15
       3       5       6      17
       3       5      17      16
       3       6       7      18
       3       6      18      17
       3       7       8      19
       3       7      19      18
       3       8       9      20
       3       8      20      19
       3       9      10      21
       3       9      21      20
       3      11      12      23
       3      11      23      22
       3      12      13      24
       3      12      24      23
       3      13      14      25
       3      13      25      24
       3      14      15      26
       3      14      26      25
       3      15      16      27
       3      15      27      26
       3      16      17      28
       3      16      28      27
       3      17      18      29
       3      17      29      28
       3      18      19      30
       3      18      30      29
       3      19      20      31
       3      19      31      30
       3      20      21      32
       3      20      32      31
       3      22      23      34
       3      22      34      33
       3      23      24      35
       3      23      35      34
       3      24      25      36
       3      24      36      35
       3      25      26      37
       3      25      37      36
       3      26      27      38
       3      26      38      37
       3      27      28      39
       3      27      39      38
       3      28      29      40
       3      28      40      39
       3      29      30      41
       3      29      41      40
       3      30      31      42
       3      30      42      41
       3      31      32      43
       3      31      43      42
       3      33      34      45
       3      33      45      44
       3      34      35      46
       3      34      46      45
       3      35      36      47
       3      35      47      46
       3      36      37      48
       3      36      48      47
       3      37      38      49
       3      37      49      48
       3      38      39      50
       3      38      50      49
       3      39      40      51
       3      39      51      50
       3      40      41      52
       3      40      52      51
       3      41      42      53
       3      41      53      52
       3      42      43      54
       3      42      54      53
CELL_TYPES       80
 5
 5
 5
 5
 5
 5
 5
 5
 5
 5
 5
 5
 5
 5
 5
 5
 5
 5
 5
 5
 5
 5
 5
 5
 5
 5
 5
 5
 5
 5
 5
 5
 5
 5
 5
 5
 5
 5
 5
 5
 5
 5
 5
 5
 5
 5
 5
 5
 5
 5
 5
 5
 5
 5
 5
 5
 5
 5
 5
 5
 5
 5
 5
 5
 5
 5
 5
 5
 5
 5
 5
 5
 5
 5
 5
 5
 5
 5
 5
 5
VECTORS Deslocamentos float
POINT_DATA       55
  0.00000000E+00  0.00000000E+00  0.00000000E+00
 -0.13942068E-01 -0.18521382E-01  0.00000000E+00
 -0.26052636E-01 -0.46004572E-01  0.00000000E+00
 -0.36606790E-01 -0.82345476E-01  0.00000000E+00
 -0.45696566E-01 -0.12650079E+00  0.00000000E+00
 -0.53362922E-01 -0.17734644E+00  0.00000000E+00
 -0.59626188E-01 -0.23375930E+00  0.00000000E+00
 -0.64497870E-01 -0.29462408E+00  0.00000000E+00
 -0.67987409E-01 -0.35884278E+00  0.00000000E+00
 -0.70110089E-01 -0.42541915E+00  0.00000000E+00
 -0.70905413E-01 -0.49405463E+00  0.00000000E+00
  0.00000000E+00  0.00000000E+00  0.00000000E+00
 -0.57527295E-02 -0.16657266E-01  0.00000000E+00
 -0.11282694E-01 -0.44130560E-01  0.00000000E+00
 -0.16302263E-01 -0.80651671E-01  0.00000000E+00
 -0.20716761E-01 -0.12501879E+00  0.00000000E+00
 -0.24481881E-01 -0.17608599E+00  0.00000000E+00
 -0.27574303E-01 -0.23272526E+00  0.00000000E+00
 -0.29980091E-01 -0.29381879E+00  0.00000000E+00
 -0.31688887E-01 -0.35825413E+00  0.00000000E+00
 -0.32695337E-01 -0.42492008E+00  0.00000000E+00
 -0.33046307E-01 -0.49273899E+00  0.00000000E+00
  0.00000000E+00  0.00000000E+00  0.00000000E+00
  0.17989526E-04 -0.16348060E-01  0.00000000E+00
  0.18825438E-04 -0.43599851E-01  0.00000000E+00
  0.77239617E-05 -0.80079651E-01  0.00000000E+00
 -0.48646989E-05 -0.12447324E+00  0.00000000E+00
 -0.16488815E-04 -0.17559410E+00  0.00000000E+00
 -0.27317958E-04 -0.23229942E+00  0.00000000E+00
 -0.38217407E-04 -0.29346512E+00  0.00000000E+00
 -0.49451321E-04 -0.35796792E+00  0.00000000E+00
 -0.55002543E-04 -0.42460615E+00  0.00000000E+00
 -0.87086917E-05 -0.49153986E+00  0.00000000E+00
  0.00000000E+00  0.00000000E+00  0.00000000E+00
  0.57992252E-02 -0.16629692E-01  0.00000000E+00
  0.11294439E-01 -0.43950575E-01  0.00000000E+00
  0.16288527E-01 -0.80409017E-01  0.00000000E+00
  0.20685228E-01 -0.12475447E+00  0.00000000E+00
  0.24436512E-01 -0.17581399E+00  0.00000000E+00
  0.27516862E-01 -0.23244963E+00  0.00000000E+00
  0.29911143E-01 -0.29354181E+00  0.00000000E+00
  0.31608363E-01 -0.35798435E+00  0.00000000E+00
  0.32602611E-01 -0.42468453E+00  0.00000000E+00
  0.32942009E-01 -0.49248357E+00  0.00000000E+00
  0.00000000E+00  0.00000000E+00  0.00000000E+00
  0.13794200E-01 -0.18015183E-01  0.00000000E+00
  0.25931949E-01 -0.45421993E-01  0.00000000E+00
  0.36515748E-01 -0.81762349E-01  0.00000000E+00
  0.45623255E-01 -0.12593104E+00  0.00000000E+00
  0.53298438E-01 -0.17678869E+00  0.00000000E+00
  0.59566170E-01 -0.23320990E+00  0.00000000E+00
  0.64441931E-01 -0.29408234E+00  0.00000000E+00
  0.67937116E-01 -0.35831376E+00  0.00000000E+00
  0.70056268E-01 -0.42490267E+00  0.00000000E+00
  0.70741952E-01 -0.49349438E+00  0.00000000E+00
