# vtk DataFile Version 2.0
MEF - Elasticidade Plana 2D
ASCII
DATASET UNSTRUCTURED_GRID
POINTS      176 float
  0.00000000E+00  0.00000000E+00  0.00000000E+00
  0.13330000E+03  0.00000000E+00  0.00000000E+00
  0.26660000E+03  0.00000000E+00  0.00000000E+00
  0.40000000E+03  0.00000000E+00  0.00000000E+00
  0.53330000E+03  0.00000000E+00  0.00000000E+00
  0.66660000E+03  0.00000000E+00  0.00000000E+00
  0.80000000E+03  0.00000000E+00  0.00000000E+00
  0.93330000E+03  0.00000000E+00  0.00000000E+00
  0.10666000E+04  0.00000000E+00  0.00000000E+00
  0.12000000E+04  0.00000000E+00  0.00000000E+00
  0.13333000E+04  0.00000000E+00  0.00000000E+00
  0.14666000E+04  0.00000000E+00  0.00000000E+00
  0.16000000E+04  0.00000000E+00  0.00000000E+00
  0.17333000E+04  0.00000000E+00  0.00000000E+00
  0.18666000E+04  0.00000000E+00  0.00000000E+00
  0.20000000E+04  0.00000000E+00  0.00000000E+00
  0.00000000E+00  0.50000000E+02  0.00000000E+00
  0.13330000E+03  0.50000000E+02  0.00000000E+00
  0.26660000E+03  0.50000000E+02  0.00000000E+00
  0.40000000E+03  0.50000000E+02  0.00000000E+00
  0.53330000E+03  0.50000000E+02  0.00000000E+00
  0.66660000E+03  0.50000000E+02  0.00000000E+00
  0.80000000E+03  0.50000000E+02  0.00000000E+00
  0.93330000E+03  0.50000000E+02  0.00000000E+00
  0.10666000E+04  0.50000000E+02  0.00000000E+00
  0.12000000E+04  0.50000000E+02  0.00000000E+00
  0.13333000E+04  0.50000000E+02  0.00000000E+00
  0.14666000E+04  0.50000000E+02  0.00000000E+00
  0.16000000E+04  0.50000000E+02  0.00000000E+00
  0.17333000E+04  0.50000000E+02  0.00000000E+00
  0.18666000E+04  0.50000000E+02  0.00000000E+00
  0.20000000E+04  0.50000000E+02  0.00000000E+00
  0.00000000E+00  0.10000000E+03  0.00000000E+00
  0.13330000E+03  0.10000000E+03  0.00000000E+00
  0.26660000E+03  0.10000000E+03  0.00000000E+00
  0.40000000E+03  0.10000000E+03  0.00000000E+00
  0.53330000E+03  0.10000000E+03  0.00000000E+00
  0.66660000E+03  0.10000000E+03  0.00000000E+00
  0.80000000E+03  0.10000000E+03  0.00000000E+00
  0.93330000E+03  0.10000000E+03  0.00000000E+00
  0.10666000E+04  0.10000000E+03  0.00000000E+00
  0.12000000E+04  0.10000000E+03  0.00000000E+00
  0.13333000E+04  0.10000000E+03  0.00000000E+00
  0.14666000E+04  0.10000000E+03  0.00000000E+00
  0.16000000E+04  0.10000000E+03  0.00000000E+00
  0.17333000E+04  0.10000000E+03  0.00000000E+00
  0.18666000E+04  0.10000000E+03  0.00000000E+00
  0.20000000E+04  0.10000000E+03  0.00000000E+00
  0.00000000E+00  0.15000000E+03  0.00000000E+00
  0.13330000E+03  0.15000000E+03  0.00000000E+00
  0.26660000E+03  0.15000000E+03  0.00000000E+00
  0.40000000E+03  0.15000000E+03  0.00000000E+00
  0.53330000E+03  0.15000000E+03  0.00000000E+00
  0.66660000E+03  0.15000000E+03  0.00000000E+00
  0.80000000E+03  0.15000000E+03  0.00000000E+00
  0.93330000E+03  0.15000000E+03  0.00000000E+00
  0.10666000E+04  0.15000000E+03  0.00000000E+00
  0.12000000E+04  0.15000000E+03  0.00000000E+00
  0.13333000E+04  0.15000000E+03  0.00000000E+00
  0.14666000E+04  0.15000000E+03  0.00000000E+00
  0.16000000E+04  0.15000000E+03  0.00000000E+00
  0.17333000E+04  0.15000000E+03  0.00000000E+00
  0.18666000E+04  0.15000000E+03  0.00000000E+00
  0.20000000E+04  0.15000000E+03  0.00000000E+00
  0.00000000E+00  0.20000000E+03  0.00000000E+00
  0.13330000E+03  0.20000000E+03  0.00000000E+00
  0.26660000E+03  0.20000000E+03  0.00000000E+00
  0.40000000E+03  0.20000000E+03  0.00000000E+00
  0.53330000E+03  0.20000000E+03  0.00000000E+00
  0.66660000E+03  0.20000000E+03  0.00000000E+00
  0.80000000E+03  0.20000000E+03  0.00000000E+00
  0.93330000E+03  0.20000000E+03  0.00000000E+00
  0.10666000E+04  0.20000000E+03  0.00000000E+00
  0.12000000E+04  0.20000000E+03  0.00000000E+00
  0.13333000E+04  0.20000000E+03  0.00000000E+00
  0.14666000E+04  0.20000000E+03  0.00000000E+00
  0.16000000E+04  0.20000000E+03  0.00000000E+00
  0.17333000E+04  0.20000000E+03  0.00000000E+00
  0.18666000E+04  0.20000000E+03  0.00000000E+00
  0.20000000E+04  0.20000000E+03  0.00000000E+00
  0.00000000E+00  0.25000000E+03  0.00000000E+00
  0.13330000E+03  0.25000000E+03  0.00000000E+00
  0.26660000E+03  0.25000000E+03  0.00000000E+00
  0.40000000E+03  0.25000000E+03  0.00000000E+00
  0.53330000E+03  0.25000000E+03  0.00000000E+00
  0.66660000E+03  0.25000000E+03  0.00000000E+00
  0.80000000E+03  0.25000000E+03  0.00000000E+00
  0.93330000E+03  0.25000000E+03  0.00000000E+00
  0.10666000E+04  0.25000000E+03  0.00000000E+00
  0.12000000E+04  0.25000000E+03  0.00000000E+00
  0.13333000E+04  0.25000000E+03  0.00000000E+00
  0.14666000E+04  0.25000000E+03  0.00000000E+00
  0.16000000E+04  0.25000000E+03  0.00000000E+00
  0.17333000E+04  0.25000000E+03  0.00000000E+00
  0.18666000E+04  0.25000000E+03  0.00000000E+00
  0.20000000E+04  0.25000000E+03  0.00000000E+00
  0.00000000E+00  0.30000000E+03  0.00000000E+00
  0.13330000E+03  0.30000000E+03  0.00000000E+00
  0.26660000E+03  0.30000000E+03  0.00000000E+00
  0.40000000E+03  0.30000000E+03  0.00000000E+00
  0.53330000E+03  0.30000000E+03  0.00000000E+00
  0.66660000E+03  0.30000000E+03  0.00000000E+00
  0.80000000E+03  0.30000000E+03  0.00000000E+00
  0.93330000E+03  0.30000000E+03  0.00000000E+00
  0.10666000E+04  0.30000000E+03  0.00000000E+00
  0.12000000E+04  0.30000000E+03  0.00000000E+00
  0.13333000E+04  0.30000000E+03  0.00000000E+00
  0.14666000E+04  0.30000000E+03  0.00000000E+00
  0.16000000E+04  0.30000000E+03  0.00000000E+00
  0.17333000E+04  0.30000000E+03  0.00000000E+00
  0.18666000E+04  0.30000000E+03  0.00000000E+00
  0.20000000E+04  0.30000000E+03  0.00000000E+00
  0.00000000E+00  0.35000000E+03  0.00000000E+00
  0.13330000E+03  0.35000000E+03  0.00000000E+00
  0.26660000E+03  0.35000000E+03  0.00000000E+00
  0.40000000E+03  0.35000000E+03  0.00000000E+00
  0.53330000E+03  0.35000000E+03  0.00000000E+00
  0.66660000E+03  0.35000000E+03  0.00000000E+00
  0.80000000E+03  0.35000000E+03  0.00000000E+00
  0.93330000E+03  0.35000000E+03  0.00000000E+00
  0.10666000E+04  0.35000000E+03  0.00000000E+00
  0.12000000E+04  0.35000000E+03  0.00000000E+00
  0.13333000E+04  0.35000000E+03  0.00000000E+00
  0.14666000E+04  0.35000000E+03  0.00000000E+00
  0.16000000E+04  0.35000000E+03  0.00000000E+00
  0.17333000E+04  0.35000000E+03  0.00000000E+00
  0.18666000E+04  0.35000000E+03  0.00000000E+00
  0.20000000E+04  0.35000000E+03  0.00000000E+00
  0.00000000E+00  0.40000000E+03  0.00000000E+00
  0.13330000E+03  0.40000000E+03  0.00000000E+00
  0.26660000E+03  0.40000000E+03  0.00000000E+00
  0.40000000E+03  0.40000000E+03  0.00000000E+00
  0.53330000E+03  0.40000000E+03  0.00000000E+00
  0.66660000E+03  0.40000000E+03  0.00000000E+00
  0.80000000E+03  0.40000000E+03  0.00000000E+00
  0.93330000E+03  0.40000000E+03  0.00000000E+00
  0.10666000E+04  0.40000000E+03  0.00000000E+00
  0.12000000E+04  0.40000000E+03  0.00000000E+00
  0.13333000E+04  0.40000000E+03  0.00000000E+00
  0.14666000E+04  0.40000000E+03  0.00000000E+00
  0.16000000E+04  0.40000000E+03  0.00000000E+00
  0.17333000E+04  0.40000000E+03  0.00000000E+00
  0.18666000E+04  0.40000000E+03  0.00000000E+00
  0.20000000E+04  0.40000000E+03  0.00000000E+00
  0.00000000E+00  0.45000000E+03  0.00000000E+00
  0.13330000E+03  0.45000000E+03  0.00000000E+00
  0.26660000E+03  0.45000000E+03  0.00000000E+00
  0.40000000E+03  0.45000000E+03  0.00000000E+00
  0.53330000E+03  0.45000000E+03  0.00000000E+00
  0.66660000E+03  0.45000000E+03  0.00000000E+00
  0.80000000E+03  0.45000000E+03  0.00000000E+00
  0.93330000E+03  0.45000000E+03  0.00000000E+00
  0.10666000E+04  0.45000000E+03  0.00000000E+00
  0.12000000E+04  0.45000000E+03  0.00000000E+00
  0.13333000E+04  0.45000000E+03  0.00000000E+00
  0.14666000E+04  0.45000000E+03  0.00000000E+00
  0.16000000E+04  0.45000000E+03  0.00000000E+00
  0.17333000E+04  0.45000000E+03  0.00000000E+00
  0.18666000E+04  0.45000000E+03  0.00000000E+00
  0.20000000E+04  0.45000000E+03  0.00000000E+00
  0.00000000E+00  0.50000000E+03  0.00000000E+00
  0.13330000E+03  0.50000000E+03  0.00000000E+00
  0.26660000E+03  0.50000000E+03  0.00000000E+00
  0.40000000E+03  0.50000000E+03  0.00000000E+00
  0.53330000E+03  0.50000000E+03  0.00000000E+00
  0.66660000E+03  0.50000000E+03  0.00000000E+00
  0.80000000E+03  0.50000000E+03  0.00000000E+00
  0.93330000E+03  0.50000000E+03  0.00000000E+00
  0.10666000E+04  0.50000000E+03  0.00000000E+00
  0.12000000E+04  0.50000000E+03  0.00000000E+00
  0.13333000E+04  0.50000000E+03  0.00000000E+00
  0.14666000E+04  0.50000000E+03  0.00000000E+00
  0.16000000E+04  0.50000000E+03  0.00000000E+00
  0.17333000E+04  0.50000000E+03  0.00000000E+00
  0.18666000E+04  0.50000000E+03  0.00000000E+00
  0.20000000E+04  0.50000000E+03  0.00000000E+00
CELLS      150     750
       4       0       1      17      16
       4       1       2      18      17
       4       2       3      19      18
       4       3       4      20      19
       4       4       5      21      20
       4       5       6      22      21
       4       6       7      23      22
       4       7       8      24      23
       4       8       9      25      24
       4       9      10      26      25
       4      10      11      27      26
       4      11      12      28      27
       4      12      13      29      28
       4      13      14      30      29
       4      14      15      31      30
       4      16      17      33      32
       4      17      18      34      33
       4      18      19      35      34
       4      19      20      36      35
       4      20      21      37      36
       4      21      22      38      37
       4      22      23      39      38
       4      23      24      40      39
       4      24      25      41      40
       4      25      26      42      41
       4      26      27      43      42
       4      27      28      44      43
       4      28      29      45      44
       4      29      30      46      45
       4      30      31      47      46
       4      32      33      49      48
       4      33      34      50      49
       4      34      35      51      50
       4      35      36      52      51
       4      36      37      53      52
       4      37      38      54      53
       4      38      39      55      54
       4      39      40      56      55
       4      40      41      57      56
       4      41      42      58      57
       4      42      43      59      58
       4      43      44      60      59
       4      44      45      61      60
       4      45      46      62      61
       4      46      47      63      62
       4      48      49      65      64
       4      49      50      66      65
       4      50      51      67      66
       4      51      52      68      67
       4      52      53      69      68
       4      53      54      70      69
       4      54      55      71      70
       4      55      56      72      71
       4      56      57      73      72
       4      57      58      74      73
       4      58      59      75      74
       4      59      60      76      75
       4      60      61      77      76
       4      61      62      78      77
       4      62      63      79      78
       4      64      65      81      80
       4      65      66      82      81
       4      66      67      83      82
       4      67      68      84      83
       4      68      69      85      84
       4      69      70      86      85
       4      70      71      87      86
       4      71      72      88      87
       4      72      73      89      88
       4      73      74      90      89
       4      74      75      91      90
       4      75      76      92      91
       4      76      77      93      92
       4      77      78      94      93
       4      78      79      95      94
       4      80      81      97      96
       4      81      82      98      97
       4      82      83      99      98
       4      83      84     100      99
       4      84      85     101     100
       4      85      86     102     101
       4      86      87     103     102
       4      87      88     104     103
       4      88      89     105     104
       4      89      90     106     105
       4      90      91     107     106
       4      91      92     108     107
       4      92      93     109     108
       4      93      94     110     109
       4      94      95     111     110
       4      96      97     113     112
       4      97      98     114     113
       4      98      99     115     114
       4      99     100     116     115
       4     100     101     117     116
       4     101     102     118     117
       4     102     103     119     118
       4     103     104     120     119
       4     104     105     121     120
       4     105     106     122     121
       4     106     107     123     122
       4     107     108     124     123
       4     108     109     125     124
       4     109     110     126     125
       4     110     111     127     126
       4     112     113     129     128
       4     113     114     130     129
       4     114     115     131     130
       4     115     116     132     131
       4     116     117     133     132
       4     117     118     134     133
       4     118     119     135     134
       4     119     120     136     135
       4     120     121     137     136
       4     121     122     138     137
       4     122     123     139     138
       4     123     124     140     139
       4     124     125     141     140
       4     125     126     142     141
       4     126     127     143     142
       4     128     129     145     144
       4     129     130     146     145
       4     130     131     147     146
       4     131     132     148     147
       4     132     133     149     148
       4     133     134     150     149
       4     134     135     151     150
       4     135     136     152     151
       4     136     137     153     152
       4     137     138     154     153
       4     138     139     155     154
       4     139     140     156     155
       4     140     141     157     156
       4     141     142     158     157
       4     142     143     159     158
       4     144     145     161     160
       4     145     146     162     161
       4     146     147     163     162
       4     147     148     164     163
       4     148     149     165     164
       4     149     150     166     165
       4     150     151     167     166
       4     151     152     168     167
       4     152     153     169     168
       4     153     154     170     169
       4     154     155     171     170
       4     155     156     172     171
       4     156     157     173     172
       4     157     158     174     173
       4     158     159     175     174
CELL_TYPES      150
 9
 9
 9
 9
 9
 9
 9
 9
 9
 9
 9
 9
 9
 9
 9
 9
 9
 9
 9
 9
 9
 9
 9
 9
 9
 9
 9
 9
 9
 9
 9
 9
 9
 9
 9
 9
 9
 9
 9
 9
 9
 9
 9
 9
 9
 9
 9
 9
 9
 9
 9
 9
 9
 9
 9
 9
 9
 9
 9
 9
 9
 9
 9
 9
 9
 9
 9
 9
 9
 9
 9
 9
 9
 9
 9
 9
 9
 9
 9
 9
 9
 9
 9
 9
 9
 9
 9
 9
 9
 9
 9
 9
 9
 9
 9
 9
 9
 9
 9
 9
 9
 9
 9
 9
 9
 9
 9
 9
 9
 9
 9
 9
 9
 9
 9
 9
 9
 9
 9
 9
 9
 9
 9
 9
 9
 9
 9
 9
 9
 9
 9
 9
 9
 9
 9
 9
 9
 9
 9
 9
 9
 9
 9
 9
 9
 9
 9
 9
 9
 9
VECTORS Deslocamentos float
POINT_DATA      176
  0.00000000E+00  0.00000000E+00  0.00000000E+00
 -0.11959961E-01 -0.12426005E-01  0.00000000E+00
 -0.21999970E-01 -0.29221483E-01  0.00000000E+00
 -0.31052257E-01 -0.51003461E-01  0.00000000E+00
 -0.39285998E-01 -0.77264347E-01  0.00000000E+00
 -0.46766077E-01 -0.10769306E+00  0.00000000E+00
 -0.53520906E-01 -0.14192925E+00  0.00000000E+00
 -0.59552287E-01 -0.17954305E+00  0.00000000E+00
 -0.64871725E-01 -0.22017954E+00  0.00000000E+00
 -0.69486711E-01 -0.26349415E+00  0.00000000E+00
 -0.73395366E-01 -0.30904447E+00  0.00000000E+00
 -0.76609517E-01 -0.35648588E+00  0.00000000E+00
 -0.79150057E-01 -0.40548163E+00  0.00000000E+00
 -0.81064393E-01 -0.45562861E+00  0.00000000E+00
 -0.82475358E-01 -0.50689450E+00  0.00000000E+00
 -0.83096929E-01 -0.56156916E+00  0.00000000E+00
  0.00000000E+00  0.00000000E+00  0.00000000E+00
 -0.79460273E-02 -0.11149306E-01  0.00000000E+00
 -0.15730413E-01 -0.28175032E-01  0.00000000E+00
 -0.22895946E-01 -0.49990629E-01  0.00000000E+00
 -0.29452299E-01 -0.76344640E-01  0.00000000E+00
 -0.35421200E-01 -0.10685536E+00  0.00000000E+00
 -0.40817414E-01 -0.14117603E+00  0.00000000E+00
 -0.45638095E-01 -0.17887354E+00  0.00000000E+00
 -0.49890556E-01 -0.21959375E+00  0.00000000E+00
 -0.53579444E-01 -0.26299198E+00  0.00000000E+00
 -0.56701274E-01 -0.30862596E+00  0.00000000E+00
 -0.59261830E-01 -0.35615105E+00  0.00000000E+00
 -0.61265144E-01 -0.40523336E+00  0.00000000E+00
 -0.62702865E-01 -0.45546263E+00  0.00000000E+00
 -0.63516212E-01 -0.50682187E+00  0.00000000E+00
 -0.63793450E-01 -0.56074120E+00  0.00000000E+00
  0.00000000E+00  0.00000000E+00  0.00000000E+00
 -0.55324973E-02 -0.10651232E-01  0.00000000E+00
 -0.10964187E-01 -0.27424766E-01  0.00000000E+00
 -0.16163914E-01 -0.49257260E-01  0.00000000E+00
 -0.20998625E-01 -0.75647189E-01  0.00000000E+00
 -0.25435390E-01 -0.10621440E+00  0.00000000E+00
 -0.29461863E-01 -0.14059539E+00  0.00000000E+00
 -0.33065789E-01 -0.17835611E+00  0.00000000E+00
 -0.36247070E-01 -0.21914084E+00  0.00000000E+00
 -0.39005389E-01 -0.26260493E+00  0.00000000E+00
 -0.41334050E-01 -0.30830666E+00  0.00000000E+00
 -0.43230484E-01 -0.35590382E+00  0.00000000E+00
 -0.44684770E-01 -0.40506781E+00  0.00000000E+00
 -0.45672029E-01 -0.45538860E+00  0.00000000E+00
 -0.46183091E-01 -0.50673667E+00  0.00000000E+00
 -0.46376725E-01 -0.55902968E+00  0.00000000E+00
  0.00000000E+00  0.00000000E+00  0.00000000E+00
 -0.35203883E-02 -0.10453419E-01  0.00000000E+00
 -0.69966310E-02 -0.27005563E-01  0.00000000E+00
 -0.10352171E-01 -0.48779970E-01  0.00000000E+00
 -0.13512584E-01 -0.75175085E-01  0.00000000E+00
 -0.16436060E-01 -0.10576920E+00  0.00000000E+00
 -0.19101816E-01 -0.14018770E+00  0.00000000E+00
 -0.21493741E-01 -0.17799078E+00  0.00000000E+00
 -0.23607143E-01 -0.21882089E+00  0.00000000E+00
 -0.25438556E-01 -0.26233291E+00  0.00000000E+00
 -0.26980439E-01 -0.30808600E+00  0.00000000E+00
 -0.28227388E-01 -0.35574085E+00  0.00000000E+00
 -0.29169025E-01 -0.40497300E+00  0.00000000E+00
 -0.29790118E-01 -0.45536106E+00  0.00000000E+00
 -0.30099179E-01 -0.50656102E+00  0.00000000E+00
 -0.30223769E-01 -0.55738430E+00  0.00000000E+00
  0.00000000E+00  0.00000000E+00  0.00000000E+00
 -0.17168130E-02 -0.10380222E-01  0.00000000E+00
 -0.34133637E-02 -0.26798336E-01  0.00000000E+00
 -0.50595232E-02 -0.48520044E-01  0.00000000E+00
 -0.66177389E-02 -0.74906319E-01  0.00000000E+00
 -0.80661914E-02 -0.10551014E+00  0.00000000E+00
 -0.93913934E-02 -0.13994752E+00  0.00000000E+00
 -0.10582816E-01 -0.17777436E+00  0.00000000E+00
 -0.11636333E-01 -0.21863119E+00  0.00000000E+00
 -0.12548947E-01 -0.26217244E+00  0.00000000E+00
 -0.13315822E-01 -0.30795781E+00  0.00000000E+00
 -0.13933324E-01 -0.35564984E+00  0.00000000E+00
 -0.14395769E-01 -0.40492568E+00  0.00000000E+00
 -0.14696057E-01 -0.45534887E+00  0.00000000E+00
 -0.14842800E-01 -0.50639841E+00  0.00000000E+00
 -0.14905021E-01 -0.55625312E+00  0.00000000E+00
  0.00000000E+00  0.00000000E+00  0.00000000E+00
 -0.30563012E-13 -0.10362321E-01  0.00000000E+00
 -0.21969222E-13 -0.26736413E-01  0.00000000E+00
 -0.10918357E-13 -0.48437934E-01  0.00000000E+00
  0.12615921E-14 -0.74819606E-01  0.00000000E+00
  0.12093483E-13 -0.10542543E+00  0.00000000E+00
  0.19699910E-13 -0.13986840E+00  0.00000000E+00
  0.22879376E-13 -0.17770282E+00  0.00000000E+00
  0.21621361E-13 -0.21856844E+00  0.00000000E+00
  0.16899990E-13 -0.26211951E+00  0.00000000E+00
  0.10435390E-13 -0.30791590E+00  0.00000000E+00
  0.40967803E-14 -0.35562068E+00  0.00000000E+00
 -0.44392406E-15 -0.40491146E+00  0.00000000E+00
 -0.25964363E-14 -0.45534500E+00  0.00000000E+00
 -0.17154080E-14 -0.50633391E+00  0.00000000E+00
 -0.18242941E-13 -0.55585402E+00  0.00000000E+00
  0.00000000E+00  0.00000000E+00  0.00000000E+00
  0.17168130E-02 -0.10380222E-01  0.00000000E+00
  0.34133637E-02 -0.26798336E-01  0.00000000E+00
  0.50595232E-02 -0.48520044E-01  0.00000000E+00
  0.66177389E-02 -0.74906319E-01  0.00000000E+00
  0.80661914E-02 -0.10551014E+00  0.00000000E+00
  0.93913934E-02 -0.13994752E+00  0.00000000E+00
  0.10582816E-01 -0.17777436E+00  0.00000000E+00
  0.11636333E-01 -0.21863119E+00  0.00000000E+00
  0.12548947E-01 -0.26217244E+00  0.00000000E+00
  0.13315822E-01 -0.30795781E+00  0.00000000E+00
  0.13933324E-01 -0.35564984E+00  0.00000000E+00
  0.14395769E-01 -0.40492568E+00  0.00000000E+00
  0.14696057E-01 -0.45534887E+00  0.00000000E+00
  0.14842800E-01 -0.50639841E+00  0.00000000E+00
  0.14905021E-01 -0.55625312E+00  0.00000000E+00
  0.00000000E+00  0.00000000E+00  0.00000000E+00
  0.35203883E-02 -0.10453419E-01  0.00000000E+00
  0.69966310E-02 -0.27005563E-01  0.00000000E+00
  0.10352171E-01 -0.48779970E-01  0.00000000E+00
  0.13512584E-01 -0.75175085E-01  0.00000000E+00
  0.16436060E-01 -0.10576920E+00  0.00000000E+00
  0.19101816E-01 -0.14018770E+00  0.00000000E+00
  0.21493741E-01 -0.17799078E+00  0.00000000E+00
  0.23607143E-01 -0.21882089E+00  0.00000000E+00
  0.25438556E-01 -0.26233291E+00  0.00000000E+00
  0.26980439E-01 -0.30808600E+00  0.00000000E+00
  0.28227388E-01 -0.35574085E+00  0.00000000E+00
  0.29169025E-01 -0.40497300E+00  0.00000000E+00
  0.29790118E-01 -0.45536106E+00  0.00000000E+00
  0.30099179E-01 -0.50656102E+00  0.00000000E+00
  0.30223769E-01 -0.55738430E+00  0.00000000E+00
  0.00000000E+00  0.00000000E+00  0.00000000E+00
  0.55324973E-02 -0.10651232E-01  0.00000000E+00
  0.10964187E-01 -0.27424766E-01  0.00000000E+00
  0.16163914E-01 -0.49257260E-01  0.00000000E+00
  0.20998625E-01 -0.75647189E-01  0.00000000E+00
  0.25435390E-01 -0.10621440E+00  0.00000000E+00
  0.29461863E-01 -0.14059539E+00  0.00000000E+00
  0.33065789E-01 -0.17835611E+00  0.00000000E+00
  0.36247070E-01 -0.21914084E+00  0.00000000E+00
  0.39005389E-01 -0.26260493E+00  0.00000000E+00
  0.41334050E-01 -0.30830666E+00  0.00000000E+00
  0.43230484E-01 -0.35590382E+00  0.00000000E+00
  0.44684770E-01 -0.40506781E+00  0.00000000E+00
  0.45672029E-01 -0.45538860E+00  0.00000000E+00
  0.46183091E-01 -0.50673667E+00  0.00000000E+00
  0.46376725E-01 -0.55902968E+00  0.00000000E+00
  0.00000000E+00  0.00000000E+00  0.00000000E+00
  0.79460273E-02 -0.11149306E-01  0.00000000E+00
  0.15730413E-01 -0.28175032E-01  0.00000000E+00
  0.22895946E-01 -0.49990629E-01  0.00000000E+00
  0.29452299E-01 -0.76344640E-01  0.00000000E+00
  0.35421200E-01 -0.10685536E+00  0.00000000E+00
  0.40817414E-01 -0.14117603E+00  0.00000000E+00
  0.45638095E-01 -0.17887354E+00  0.00000000E+00
  0.49890556E-01 -0.21959375E+00  0.00000000E+00
  0.53579444E-01 -0.26299198E+00  0.00000000E+00
  0.56701274E-01 -0.30862596E+00  0.00000000E+00
  0.59261830E-01 -0.35615105E+00  0.00000000E+00
  0.61265144E-01 -0.40523336E+00  0.00000000E+00
  0.62702865E-01 -0.45546263E+00  0.00000000E+00
  0.63516212E-01 -0.50682187E+00  0.00000000E+00
  0.63793450E-01 -0.56074120E+00  0.00000000E+00
  0.00000000E+00  0.00000000E+00  0.00000000E+00
  0.11959961E-01 -0.12426005E-01  0.00000000E+00
  0.21999970E-01 -0.29221483E-01  0.00000000E+00
  0.31052257E-01 -0.51003461E-01  0.00000000E+00
  0.39285998E-01 -0.77264347E-01  0.00000000E+00
  0.46766077E-01 -0.10769306E+00  0.00000000E+00
  0.53520906E-01 -0.14192925E+00  0.00000000E+00
  0.59552287E-01 -0.17954305E+00  0.00000000E+00
  0.64871725E-01 -0.22017954E+00  0.00000000E+00
  0.69486711E-01 -0.26349415E+00  0.00000000E+00
  0.73395366E-01 -0.30904447E+00  0.00000000E+00
  0.76609517E-01 -0.35648588E+00  0.00000000E+00
  0.79150057E-01 -0.40548163E+00  0.00000000E+00
  0.81064393E-01 -0.45562861E+00  0.00000000E+00
  0.82475358E-01 -0.50689450E+00  0.00000000E+00
  0.83096929E-01 -0.56156916E+00  0.00000000E+00
