# vtk DataFile Version 2.0
MEF - Elasticidade Plana 2D
ASCII
DATASET UNSTRUCTURED_GRID
POINTS      176 float
  0.00000000E+00  0.00000000E+00  0.00000000E+00
  0.13330000E+03  0.00000000E+00  0.00000000E+00
  0.26660000E+03  0.00000000E+00  0.00000000E+00
  0.40000000E+03  0.00000000E+00  0.00000000E+00
  0.53330000E+03  0.00000000E+00  0.00000000E+00
  0.66660000E+03  0.00000000E+00  0.00000000E+00
  0.80000000E+03  0.00000000E+00  0.00000000E+00
  0.93330000E+03  0.00000000E+00  0.00000000E+00
  0.10666000E+04  0.00000000E+00  0.00000000E+00
  0.12000000E+04  0.00000000E+00  0.00000000E+00
  0.13333000E+04  0.00000000E+00  0.00000000E+00
  0.14666000E+04  0.00000000E+00  0.00000000E+00
  0.16000000E+04  0.00000000E+00  0.00000000E+00
  0.17333000E+04  0.00000000E+00  0.00000000E+00
  0.18666000E+04  0.00000000E+00  0.00000000E+00
  0.20000000E+04  0.00000000E+00  0.00000000E+00
  0.00000000E+00  0.50000000E+02  0.00000000E+00
  0.13330000E+03  0.50000000E+02  0.00000000E+00
  0.26660000E+03  0.50000000E+02  0.00000000E+00
  0.40000000E+03  0.50000000E+02  0.00000000E+00
  0.53330000E+03  0.50000000E+02  0.00000000E+00
  0.66660000E+03  0.50000000E+02  0.00000000E+00
  0.80000000E+03  0.50000000E+02  0.00000000E+00
  0.93330000E+03  0.50000000E+02  0.00000000E+00
  0.10666000E+04  0.50000000E+02  0.00000000E+00
  0.12000000E+04  0.50000000E+02  0.00000000E+00
  0.13333000E+04  0.50000000E+02  0.00000000E+00
  0.14666000E+04  0.50000000E+02  0.00000000E+00
  0.16000000E+04  0.50000000E+02  0.00000000E+00
  0.17333000E+04  0.50000000E+02  0.00000000E+00
  0.18666000E+04  0.50000000E+02  0.00000000E+00
  0.20000000E+04  0.50000000E+02  0.00000000E+00
  0.00000000E+00  0.10000000E+03  0.00000000E+00
  0.13330000E+03  0.10000000E+03  0.00000000E+00
  0.26660000E+03  0.10000000E+03  0.00000000E+00
  0.40000000E+03  0.10000000E+03  0.00000000E+00
  0.53330000E+03  0.10000000E+03  0.00000000E+00
  0.66660000E+03  0.10000000E+03  0.00000000E+00
  0.80000000E+03  0.10000000E+03  0.00000000E+00
  0.93330000E+03  0.10000000E+03  0.00000000E+00
  0.10666000E+04  0.10000000E+03  0.00000000E+00
  0.12000000E+04  0.10000000E+03  0.00000000E+00
  0.13333000E+04  0.10000000E+03  0.00000000E+00
  0.14666000E+04  0.10000000E+03  0.00000000E+00
  0.16000000E+04  0.10000000E+03  0.00000000E+00
  0.17333000E+04  0.10000000E+03  0.00000000E+00
  0.18666000E+04  0.10000000E+03  0.00000000E+00
  0.20000000E+04  0.10000000E+03  0.00000000E+00
  0.00000000E+00  0.15000000E+03  0.00000000E+00
  0.13330000E+03  0.15000000E+03  0.00000000E+00
  0.26660000E+03  0.15000000E+03  0.00000000E+00
  0.40000000E+03  0.15000000E+03  0.00000000E+00
  0.53330000E+03  0.15000000E+03  0.00000000E+00
  0.66660000E+03  0.15000000E+03  0.00000000E+00
  0.80000000E+03  0.15000000E+03  0.00000000E+00
  0.93330000E+03  0.15000000E+03  0.00000000E+00
  0.10666000E+04  0.15000000E+03  0.00000000E+00
  0.12000000E+04  0.15000000E+03  0.00000000E+00
  0.13333000E+04  0.15000000E+03  0.00000000E+00
  0.14666000E+04  0.15000000E+03  0.00000000E+00
  0.16000000E+04  0.15000000E+03  0.00000000E+00
  0.17333000E+04  0.15000000E+03  0.00000000E+00
  0.18666000E+04  0.15000000E+03  0.00000000E+00
  0.20000000E+04  0.15000000E+03  0.00000000E+00
  0.00000000E+00  0.20000000E+03  0.00000000E+00
  0.13330000E+03  0.20000000E+03  0.00000000E+00
  0.26660000E+03  0.20000000E+03  0.00000000E+00
  0.40000000E+03  0.20000000E+03  0.00000000E+00
  0.53330000E+03  0.20000000E+03  0.00000000E+00
  0.66660000E+03  0.20000000E+03  0.00000000E+00
  0.80000000E+03  0.20000000E+03  0.00000000E+00
  0.93330000E+03  0.20000000E+03  0.00000000E+00
  0.10666000E+04  0.20000000E+03  0.00000000E+00
  0.12000000E+04  0.20000000E+03  0.00000000E+00
  0.13333000E+04  0.20000000E+03  0.00000000E+00
  0.14666000E+04  0.20000000E+03  0.00000000E+00
  0.16000000E+04  0.20000000E+03  0.00000000E+00
  0.17333000E+04  0.20000000E+03  0.00000000E+00
  0.18666000E+04  0.20000000E+03  0.00000000E+00
  0.20000000E+04  0.20000000E+03  0.00000000E+00
  0.00000000E+00  0.25000000E+03  0.00000000E+00
  0.13330000E+03  0.25000000E+03  0.00000000E+00
  0.26660000E+03  0.25000000E+03  0.00000000E+00
  0.40000000E+03  0.25000000E+03  0.00000000E+00
  0.53330000E+03  0.25000000E+03  0.00000000E+00
  0.66660000E+03  0.25000000E+03  0.00000000E+00
  0.80000000E+03  0.25000000E+03  0.00000000E+00
  0.93330000E+03  0.25000000E+03  0.00000000E+00
  0.10666000E+04  0.25000000E+03  0.00000000E+00
  0.12000000E+04  0.25000000E+03  0.00000000E+00
  0.13333000E+04  0.25000000E+03  0.00000000E+00
  0.14666000E+04  0.25000000E+03  0.00000000E+00
  0.16000000E+04  0.25000000E+03  0.00000000E+00
  0.17333000E+04  0.25000000E+03  0.00000000E+00
  0.18666000E+04  0.25000000E+03  0.00000000E+00
  0.20000000E+04  0.25000000E+03  0.00000000E+00
  0.00000000E+00  0.30000000E+03  0.00000000E+00
  0.13330000E+03  0.30000000E+03  0.00000000E+00
  0.26660000E+03  0.30000000E+03  0.00000000E+00
  0.40000000E+03  0.30000000E+03  0.00000000E+00
  0.53330000E+03  0.30000000E+03  0.00000000E+00
  0.66660000E+03  0.30000000E+03  0.00000000E+00
  0.80000000E+03  0.30000000E+03  0.00000000E+00
  0.93330000E+03  0.30000000E+03  0.00000000E+00
  0.10666000E+04  0.30000000E+03  0.00000000E+00
  0.12000000E+04  0.30000000E+03  0.00000000E+00
  0.13333000E+04  0.30000000E+03  0.00000000E+00
  0.14666000E+04  0.30000000E+03  0.00000000E+00
  0.16000000E+04  0.30000000E+03  0.00000000E+00
  0.17333000E+04  0.30000000E+03  0.00000000E+00
  0.18666000E+04  0.30000000E+03  0.00000000E+00
  0.20000000E+04  0.30000000E+03  0.00000000E+00
  0.00000000E+00  0.35000000E+03  0.00000000E+00
  0.13330000E+03  0.35000000E+03  0.00000000E+00
  0.26660000E+03  0.35000000E+03  0.00000000E+00
  0.40000000E+03  0.35000000E+03  0.00000000E+00
  0.53330000E+03  0.35000000E+03  0.00000000E+00
  0.66660000E+03  0.35000000E+03  0.00000000E+00
  0.80000000E+03  0.35000000E+03  0.00000000E+00
  0.93330000E+03  0.35000000E+03  0.00000000E+00
  0.10666000E+04  0.35000000E+03  0.00000000E+00
  0.12000000E+04  0.35000000E+03  0.00000000E+00
  0.13333000E+04  0.35000000E+03  0.00000000E+00
  0.14666000E+04  0.35000000E+03  0.00000000E+00
  0.16000000E+04  0.35000000E+03  0.00000000E+00
  0.17333000E+04  0.35000000E+03  0.00000000E+00
  0.18666000E+04  0.35000000E+03  0.00000000E+00
  0.20000000E+04  0.35000000E+03  0.00000000E+00
  0.00000000E+00  0.40000000E+03  0.00000000E+00
  0.13330000E+03  0.40000000E+03  0.00000000E+00
  0.26660000E+03  0.40000000E+03  0.00000000E+00
  0.40000000E+03  0.40000000E+03  0.00000000E+00
  0.53330000E+03  0.40000000E+03  0.00000000E+00
  0.66660000E+03  0.40000000E+03  0.00000000E+00
  0.80000000E+03  0.40000000E+03  0.00000000E+00
  0.93330000E+03  0.40000000E+03  0.00000000E+00
  0.10666000E+04  0.40000000E+03  0.00000000E+00
  0.12000000E+04  0.40000000E+03  0.00000000E+00
  0.13333000E+04  0.40000000E+03  0.00000000E+00
  0.14666000E+04  0.40000000E+03  0.00000000E+00
  0.16000000E+04  0.40000000E+03  0.00000000E+00
  0.17333000E+04  0.40000000E+03  0.00000000E+00
  0.18666000E+04  0.40000000E+03  0.00000000E+00
  0.20000000E+04  0.40000000E+03  0.00000000E+00
  0.00000000E+00  0.45000000E+03  0.00000000E+00
  0.13330000E+03  0.45000000E+03  0.00000000E+00
  0.26660000E+03  0.45000000E+03  0.00000000E+00
  0.40000000E+03  0.45000000E+03  0.00000000E+00
  0.53330000E+03  0.45000000E+03  0.00000000E+00
  0.66660000E+03  0.45000000E+03  0.00000000E+00
  0.80000000E+03  0.45000000E+03  0.00000000E+00
  0.93330000E+03  0.45000000E+03  0.00000000E+00
  0.10666000E+04  0.45000000E+03  0.00000000E+00
  0.12000000E+04  0.45000000E+03  0.00000000E+00
  0.13333000E+04  0.45000000E+03  0.00000000E+00
  0.14666000E+04  0.45000000E+03  0.00000000E+00
  0.16000000E+04  0.45000000E+03  0.00000000E+00
  0.17333000E+04  0.45000000E+03  0.00000000E+00
  0.18666000E+04  0.45000000E+03  0.00000000E+00
  0.20000000E+04  0.45000000E+03  0.00000000E+00
  0.00000000E+00  0.50000000E+03  0.00000000E+00
  0.13330000E+03  0.50000000E+03  0.00000000E+00
  0.26660000E+03  0.50000000E+03  0.00000000E+00
  0.40000000E+03  0.50000000E+03  0.00000000E+00
  0.53330000E+03  0.50000000E+03  0.00000000E+00
  0.66660000E+03  0.50000000E+03  0.00000000E+00
  0.80000000E+03  0.50000000E+03  0.00000000E+00
  0.93330000E+03  0.50000000E+03  0.00000000E+00
  0.10666000E+04  0.50000000E+03  0.00000000E+00
  0.12000000E+04  0.50000000E+03  0.00000000E+00
  0.13333000E+04  0.50000000E+03  0.00000000E+00
  0.14666000E+04  0.50000000E+03  0.00000000E+00
  0.16000000E+04  0.50000000E+03  0.00000000E+00
  0.17333000E+04  0.50000000E+03  0.00000000E+00
  0.18666000E+04  0.50000000E+03  0.00000000E+00
  0.20000000E+04  0.50000000E+03  0.00000000E+00
CELLS      300    1200
       3       0       1      17
       3       0      17      16
       3       1       2      18
       3       1      18      17
       3       2       3      19
       3       2      19      18
       3       3       4      20
       3       3      20      19
       3       4       5      21
       3       4      21      20
       3       5       6      22
       3       5      22      21
       3       6       7      23
       3       6      23      22
       3       7       8      24
       3       7      24      23
       3       8       9      25
       3       8      25      24
       3       9      10      26
       3       9      26      25
       3      10      11      27
       3      10      27      26
       3      11      12      28
       3      11      28      27
       3      12      13      29
       3      12      29      28
       3      13      14      30
       3      13      30      29
       3      14      15      31
       3      14      31      30
       3      16      17      33
       3      16      33      32
       3      17      18      34
       3      17      34      33
       3      18      19      35
       3      18      35      34
       3      19      20      36
       3      19      36      35
       3      20      21      37
       3      20      37      36
       3      21      22      38
       3      21      38      37
       3      22      23      39
       3      22      39      38
       3      23      24      40
       3      23      40      39
       3      24      25      41
       3      24      41      40
       3      25      26      42
       3      25      42      41
       3      26      27      43
       3      26      43      42
       3      27      28      44
       3      27      44      43
       3      28      29      45
       3      28      45      44
       3      29      30      46
       3      29      46      45
       3      30      31      47
       3      30      47      46
       3      32      33      49
       3      32      49      48
       3      33      34      50
       3      33      50      49
       3      34      35      51
       3      34      51      50
       3      35      36      52
       3      35      52      51
       3      36      37      53
       3      36      53      52
       3      37      38      54
       3      37      54      53
       3      38      39      55
       3      38      55      54
       3      39      40      56
       3      39      56      55
       3      40      41      57
       3      40      57      56
       3      41      42      58
       3      41      58      57
       3      42      43      59
       3      42      59      58
       3      43      44      60
       3      43      60      59
       3      44      45      61
       3      44      61      60
       3      45      46      62
       3      45      62      61
       3      46      47      63
       3      46      63      62
       3      48      49      65
       3      48      65      64
       3      49      50      66
       3      49      66      65
       3      50      51      67
       3      50      67      66
       3      51      52      68
       3      51      68      67
       3      52      53      69
       3      52      69      68
       3      53      54      70
       3      53      70      69
       3      54      55      71
       3      54      71      70
       3      55      56      72
       3      55      72      71
       3      56      57      73
       3      56      73      72
       3      57      58      74
       3      57      74      73
       3      58      59      75
       3      58      75      74
       3      59      60      76
       3      59      76      75
       3      60      61      77
       3      60      77      76
       3      61      62      78
       3      61      78      77
       3      62      63      79
       3      62      79      78
       3      64      65      81
       3      64      81      80
       3      65      66      82
       3      65      82      81
       3      66      67      83
       3      66      83      82
       3      67      68      84
       3      67      84      83
       3      68      69      85
       3      68      85      84
       3      69      70      86
       3      69      86      85
       3      70      71      87
       3      70      87      86
       3      71      72      88
       3      71      88      87
       3      72      73      89
       3      72      89      88
       3      73      74      90
       3      73      90      89
       3      74      75      91
       3      74      91      90
       3      75      76      92
       3      75      92      91
       3      76      77      93
       3      76      93      92
       3      77      78      94
       3      77      94      93
       3      78      79      95
       3      78      95      94
       3      80      81      97
       3      80      97      96
       3      81      82      98
       3      81      98      97
       3      82      83      99
       3      82      99      98
       3      83      84     100
       3      83     100      99
       3      84      85     101
       3      84     101     100
       3      85      86     102
       3      85     102     101
       3      86      87     103
       3      86     103     102
       3      87      88     104
       3      87     104     103
       3      88      89     105
       3      88     105     104
       3      89      90     106
       3      89     106     105
       3      90      91     107
       3      90     107     106
       3      91      92     108
       3      91     108     107
       3      92      93     109
       3      92     109     108
       3      93      94     110
       3      93     110     109
       3      94      95     111
       3      94     111     110
       3      96      97     113
       3      96     113     112
       3      97      98     114
       3      97     114     113
       3      98      99     115
       3      98     115     114
       3      99     100     116
       3      99     116     115
       3     100     101     117
       3     100     117     116
       3     101     102     118
       3     101     118     117
       3     102     103     119
       3     102     119     118
       3     103     104     120
       3     103     120     119
       3     104     105     121
       3     104     121     120
       3     105     106     122
       3     105     122     121
       3     106     107     123
       3     106     123     122
       3     107     108     124
       3     107     124     123
       3     108     109     125
       3     108     125     124
       3     109     110     126
       3     109     126     125
       3     110     111     127
       3     110     127     126
       3     112     113     129
       3     112     129     128
       3     113     114     130
       3     113     130     129
       3     114     115     131
       3     114     131     130
       3     115     116     132
       3     115     132     131
       3     116     117     133
       3     116     133     132
       3     117     118     134
       3     117     134     133
       3     118     119     135
       3     118     135     134
       3     119     120     136
       3     119     136     135
       3     120     121     137
       3     120     137     136
       3     121     122     138
       3     121     138     137
       3     122     123     139
       3     122     139     138
       3     123     124     140
       3     123     140     139
       3     124     125     141
       3     124     141     140
       3     125     126     142
       3     125     142     141
       3     126     127     143
       3     126     143     142
       3     128     129     145
       3     128     145     144
       3     129     130     146
       3     129     146     145
       3     130     131     147
       3     130     147     146
       3     131     132     148
       3     131     148     147
       3     132     133     149
       3     132     149     148
       3     133     134     150
       3     133     150     149
       3     134     135     151
       3     134     151     150
       3     135     136     152
       3     135     152     151
       3     136     137     153
       3     136     153     152
       3     137     138     154
       3     137     154     153
       3     138     139     155
       3     138     155     154
       3     139     140     156
       3     139     156     155
       3     140     141     157
       3     140     157     156
       3     141     142     158
       3     141     158     157
       3     142     143     159
       3     142     159     158
       3     144     145     161
       3     144     161     160
       3     145     146     162
       3     145     162     161
       3     146     147     163
       3     146     163     162
       3     147     148     164
       3     147     164     163
       3     148     149     165
       3     148     165     164
       3     149     150     166
       3     149     166     165
       3     150     151     167
       3     150     167     166
       3     151     152     168
       3     151     168     167
       3     152     153     169
       3     152     169     168
       3     153     154     170
       3     153     170     169
       3     154     155     171
       3     154     171     170
       3     155     156     172
       3     155     172     171
       3     156     157     173
       3     156     173     172
       3     157     158     174
       3     157     174     173
       3     158     159     175
       3     158     175     174
CELL_TYPES      300
 5
 5
 5
 5
 5
 5
 5
 5
 5
 5
 5
 5
 5
 5
 5
 5
 5
 5
 5
 5
 5
 5
 5
 5
 5
 5
 5
 5
 5
 5
 5
 5
 5
 5
 5
 5
 5
 5
 5
 5
 5
 5
 5
 5
 5
 5
 5
 5
 5
 5
 5
 5
 5
 5
 5
 5
 5
 5
 5
 5
 5
 5
 5
 5
 5
 5
 5
 5
 5
 5
 5
 5
 5
 5
 5
 5
 5
 5
 5
 5
 5
 5
 5
 5
 5
 5
 5
 5
 5
 5
 5
 5
 5
 5
 5
 5
 5
 5
 5
 5
 5
 5
 5
 5
 5
 5
 5
 5
 5
 5
 5
 5
 5
 5
 5
 5
 5
 5
 5
 5
 5
 5
 5
 5
 5
 5
 5
 5
 5
 5
 5
 5
 5
 5
 5
 5
 5
 5
 5
 5
 5
 5
 5
 5
 5
 5
 5
 5
 5
 5
 5
 5
 5
 5
 5
 5
 5
 5
 5
 5
 5
 5
 5
 5
 5
 5
 5
 5
 5
 5
 5
 5
 5
 5
 5
 5
 5
 5
 5
 5
 5
 5
 5
 5
 5
 5
 5
 5
 5
 5
 5
 5
 5
 5
 5
 5
 5
 5
 5
 5
 5
 5
 5
 5
 5
 5
 5
 5
 5
 5
 5
 5
 5
 5
 5
 5
 5
 5
 5
 5
 5
 5
 5
 5
 5
 5
 5
 5
 5
 5
 5
 5
 5
 5
 5
 5
 5
 5
 5
 5
 5
 5
 5
 5
 5
 5
 5
 5
 5
 5
 5
 5
 5
 5
 5
 5
 5
 5
 5
 5
 5
 5
 5
 5
 5
 5
 5
 5
 5
 5
 5
 5
 5
 5
 5
 5
 5
 5
 5
 5
 5
 5
 5
 5
 5
 5
 5
 5
 5
 5
 5
 5
 5
 5
 5
 5
 5
 5
 5
 5
VECTORS Deslocamentos float
POINT_DATA      176
  0.00000000E+00  0.00000000E+00  0.00000000E+00
 -0.12967346E+00 -0.43926283E-01  0.00000000E+00
 -0.24884908E+00 -0.15233392E+00  0.00000000E+00
 -0.35933548E+00 -0.32206452E+00  0.00000000E+00
 -0.46096583E+00 -0.54822104E+00  0.00000000E+00
 -0.55376649E+00 -0.82620908E+00  0.00000000E+00
 -0.63776571E+00 -0.11515704E+01  0.00000000E+00
 -0.71289166E+00 -0.15191030E+01  0.00000000E+00
 -0.77918297E+00 -0.19243310E+01  0.00000000E+00
 -0.83666090E+00 -0.23628784E+01  0.00000000E+00
 -0.88527674E+00 -0.28293743E+01  0.00000000E+00
 -0.92505788E+00 -0.33194302E+01  0.00000000E+00
 -0.95601466E+00 -0.38287204E+01  0.00000000E+00
 -0.97812306E+00 -0.43517693E+01  0.00000000E+00
 -0.99142074E+00 -0.48842581E+01  0.00000000E+00
 -0.99595049E+00 -0.54221130E+01  0.00000000E+00
  0.00000000E+00  0.00000000E+00  0.00000000E+00
 -0.10193553E+00 -0.42937348E-01  0.00000000E+00
 -0.19739732E+00 -0.15141760E+00  0.00000000E+00
 -0.28580856E+00 -0.32121713E+00  0.00000000E+00
 -0.36711251E+00 -0.54744295E+00  0.00000000E+00
 -0.44135262E+00 -0.82550052E+00  0.00000000E+00
 -0.50855994E+00 -0.11509313E+01  0.00000000E+00
 -0.56866062E+00 -0.15185334E+01  0.00000000E+00
 -0.62169421E+00 -0.19238309E+01  0.00000000E+00
 -0.66768281E+00 -0.23624478E+01  0.00000000E+00
 -0.70657625E+00 -0.28290132E+01  0.00000000E+00
 -0.73840250E+00 -0.33191386E+01  0.00000000E+00
 -0.76317199E+00 -0.38284984E+01  0.00000000E+00
 -0.78085648E+00 -0.43516171E+01  0.00000000E+00
 -0.79146758E+00 -0.48841741E+01  0.00000000E+00
 -0.79507598E+00 -0.54220271E+01  0.00000000E+00
  0.00000000E+00  0.00000000E+00  0.00000000E+00
 -0.75502222E-01 -0.42200827E-01  0.00000000E+00
 -0.14706535E+00 -0.15070021E+00  0.00000000E+00
 -0.21339026E+00 -0.32055463E+00  0.00000000E+00
 -0.27437189E+00 -0.54683479E+00  0.00000000E+00
 -0.33005411E+00 -0.82494642E+00  0.00000000E+00
 -0.38046514E+00 -0.11504312E+01  0.00000000E+00
 -0.42554278E+00 -0.15180875E+01  0.00000000E+00
 -0.46532021E+00 -0.19234390E+01  0.00000000E+00
 -0.49981642E+00 -0.23621099E+01  0.00000000E+00
 -0.52898896E+00 -0.28287293E+01  0.00000000E+00
 -0.55286120E+00 -0.33189089E+01  0.00000000E+00
 -0.57144184E+00 -0.38283227E+01  0.00000000E+00
 -0.58470454E+00 -0.43514960E+01  0.00000000E+00
 -0.59264670E+00 -0.48841050E+01  0.00000000E+00
 -0.59533867E+00 -0.54219012E+01  0.00000000E+00
  0.00000000E+00  0.00000000E+00  0.00000000E+00
 -0.49902728E-01 -0.41690591E-01  0.00000000E+00
 -0.97575182E-01 -0.15018439E+00  0.00000000E+00
 -0.14180507E+00 -0.32007718E+00  0.00000000E+00
 -0.18246591E+00 -0.54639647E+00  0.00000000E+00
 -0.21959161E+00 -0.82454677E+00  0.00000000E+00
 -0.25320414E+00 -0.11500700E+01  0.00000000E+00
 -0.28325979E+00 -0.15177650E+01  0.00000000E+00
 -0.30978191E+00 -0.19231552E+01  0.00000000E+00
 -0.33278418E+00 -0.23618646E+01  0.00000000E+00
 -0.35223652E+00 -0.28285227E+01  0.00000000E+00
 -0.36815531E+00 -0.33187409E+01  0.00000000E+00
 -0.38054672E+00 -0.38281933E+01  0.00000000E+00
 -0.38939112E+00 -0.43514057E+01  0.00000000E+00
 -0.39468169E+00 -0.48840515E+01  0.00000000E+00
 -0.39646511E+00 -0.54217776E+01  0.00000000E+00
  0.00000000E+00  0.00000000E+00  0.00000000E+00
 -0.24802451E-01 -0.41388933E-01  0.00000000E+00
 -0.48643850E-01 -0.14986970E+00  0.00000000E+00
 -0.70776534E-01 -0.31978489E+00  0.00000000E+00
 -0.91116611E-01 -0.54612798E+00  0.00000000E+00
 -0.10968629E+00 -0.82430157E+00  0.00000000E+00
 -0.12649922E+00 -0.11498479E+01  0.00000000E+00
 -0.14153334E+00 -0.15175662E+01  0.00000000E+00
 -0.15480059E+00 -0.19229795E+01  0.00000000E+00
 -0.16630819E+00 -0.23617119E+01  0.00000000E+00
 -0.17604066E+00 -0.28283934E+01  0.00000000E+00
 -0.18400631E+00 -0.33186347E+01  0.00000000E+00
 -0.19020857E+00 -0.38281103E+01  0.00000000E+00
 -0.19463774E+00 -0.43513460E+01  0.00000000E+00
 -0.19728974E+00 -0.48840140E+01  0.00000000E+00
 -0.19817331E+00 -0.54216862E+01  0.00000000E+00
  0.00000000E+00  0.00000000E+00  0.00000000E+00
  0.59759743E-04 -0.41285250E-01  0.00000000E+00
  0.64753697E-05 -0.14975497E+00  0.00000000E+00
 -0.27711932E-04 -0.31967781E+00  0.00000000E+00
 -0.45974487E-04 -0.54602930E+00  0.00000000E+00
 -0.59576292E-04 -0.82421082E+00  0.00000000E+00
 -0.72400496E-04 -0.11497647E+01  0.00000000E+00
 -0.85164583E-04 -0.15174908E+01  0.00000000E+00
 -0.97722852E-04 -0.19229119E+01  0.00000000E+00
 -0.11036015E-03 -0.23616520E+01  0.00000000E+00
 -0.12306967E-03 -0.28283412E+01  0.00000000E+00
 -0.13573909E-03 -0.33185902E+01  0.00000000E+00
 -0.14891260E-03 -0.38280734E+01  0.00000000E+00
 -0.16423413E-03 -0.43513169E+01  0.00000000E+00
 -0.18392042E-03 -0.48839927E+01  0.00000000E+00
 -0.17583898E-03 -0.54216450E+01  0.00000000E+00
  0.00000000E+00  0.00000000E+00  0.00000000E+00
  0.24911584E-01 -0.41375206E-01  0.00000000E+00
  0.48649133E-01 -0.14983946E+00  0.00000000E+00
  0.70718707E-01 -0.31975599E+00  0.00000000E+00
  0.91024153E-01 -0.54610048E+00  0.00000000E+00
  0.10956704E+00 -0.82427453E+00  0.00000000E+00
  0.12635440E+00 -0.11498206E+01  0.00000000E+00
  0.14136302E+00 -0.15175391E+01  0.00000000E+00
  0.15460514E+00 -0.19229525E+01  0.00000000E+00
  0.16608747E+00 -0.23616847E+01  0.00000000E+00
  0.17579453E+00 -0.28283662E+01  0.00000000E+00
  0.18373487E+00 -0.33186076E+01  0.00000000E+00
  0.18991097E+00 -0.38280829E+01  0.00000000E+00
  0.19431034E+00 -0.43513182E+01  0.00000000E+00
  0.19692467E+00 -0.48839877E+01  0.00000000E+00
  0.19781776E+00 -0.54216598E+01  0.00000000E+00
  0.00000000E+00  0.00000000E+00  0.00000000E+00
  0.49977113E-01 -0.41660219E-01  0.00000000E+00
  0.97557981E-01 -0.15012338E+00  0.00000000E+00
  0.14174076E+00 -0.32001953E+00  0.00000000E+00
  0.18237215E+00 -0.54634155E+00  0.00000000E+00
  0.21947210E+00 -0.82449269E+00  0.00000000E+00
  0.25305926E+00 -0.11500155E+01  0.00000000E+00
  0.28308949E+00 -0.15177108E+01  0.00000000E+00
  0.30958645E+00 -0.19231011E+01  0.00000000E+00
  0.33256344E+00 -0.23618101E+01  0.00000000E+00
  0.35199043E+00 -0.28284685E+01  0.00000000E+00
  0.36788395E+00 -0.33186867E+01  0.00000000E+00
  0.38024970E+00 -0.38281386E+01  0.00000000E+00
  0.38906666E+00 -0.43513502E+01  0.00000000E+00
  0.39432477E+00 -0.48839987E+01  0.00000000E+00
  0.39609887E+00 -0.54217245E+01  0.00000000E+00
  0.00000000E+00  0.00000000E+00  0.00000000E+00
  0.75505430E-01 -0.42147145E-01  0.00000000E+00
  0.14701329E+00 -0.15060780E+00  0.00000000E+00
  0.21331758E+00 -0.32046863E+00  0.00000000E+00
  0.27427664E+00 -0.54675255E+00  0.00000000E+00
  0.32993430E+00 -0.82486531E+00  0.00000000E+00
  0.38032018E+00 -0.11503494E+01  0.00000000E+00
  0.42537254E+00 -0.15180061E+01  0.00000000E+00
  0.46512473E+00 -0.19233579E+01  0.00000000E+00
  0.49959565E+00 -0.23620282E+01  0.00000000E+00
  0.52874291E+00 -0.28286480E+01  0.00000000E+00
  0.55258995E+00 -0.33188276E+01  0.00000000E+00
  0.57114557E+00 -0.38282407E+01  0.00000000E+00
  0.58438414E+00 -0.43514131E+01  0.00000000E+00
  0.59230260E+00 -0.48840254E+01  0.00000000E+00
  0.59495820E+00 -0.54218212E+01  0.00000000E+00
  0.00000000E+00  0.00000000E+00  0.00000000E+00
  0.10180611E+00 -0.42847996E-01  0.00000000E+00
  0.19730569E+00 -0.15129423E+00  0.00000000E+00
  0.28572911E+00 -0.32110344E+00  0.00000000E+00
  0.36701636E+00 -0.54733354E+00  0.00000000E+00
  0.44123261E+00 -0.82539236E+00  0.00000000E+00
  0.50841490E+00 -0.11508224E+01  0.00000000E+00
  0.56849046E+00 -0.15184250E+01  0.00000000E+00
  0.62149869E+00 -0.19237228E+01  0.00000000E+00
  0.66746200E+00 -0.23623390E+01  0.00000000E+00
  0.70633026E+00 -0.28289047E+01  0.00000000E+00
  0.73813131E+00 -0.33190303E+01  0.00000000E+00
  0.76287632E+00 -0.38283893E+01  0.00000000E+00
  0.78053999E+00 -0.43515072E+01  0.00000000E+00
  0.79113901E+00 -0.48840672E+01  0.00000000E+00
  0.79468462E+00 -0.54219197E+01  0.00000000E+00
  0.00000000E+00  0.00000000E+00  0.00000000E+00
  0.12930249E+00 -0.43779436E-01  0.00000000E+00
  0.24873364E+00 -0.15218362E+00  0.00000000E+00
  0.35925450E+00 -0.32192395E+00  0.00000000E+00
  0.46086992E+00 -0.54808454E+00  0.00000000E+00
  0.55364651E+00 -0.82607379E+00  0.00000000E+00
  0.63762062E+00 -0.11514343E+01  0.00000000E+00
  0.71272159E+00 -0.15189675E+01  0.00000000E+00
  0.77898743E+00 -0.19241957E+01  0.00000000E+00
  0.83644005E+00 -0.23627425E+01  0.00000000E+00
  0.88503080E+00 -0.28292387E+01  0.00000000E+00
  0.92478667E+00 -0.33192947E+01  0.00000000E+00
  0.95571916E+00 -0.38285843E+01  0.00000000E+00
  0.97780867E+00 -0.43516329E+01  0.00000000E+00
  0.99110536E+00 -0.48841239E+01  0.00000000E+00
  0.99556517E+00 -0.54219774E+01  0.00000000E+00
